<svg width="23" height="21" viewBox="0 0 23 21" fill="none" xmlns="http://www.w3.org/2000/svg">
<g clip-path="url(#clip0_32_148)">
<path d="M11.3133 20.5646C5.4657 20.5646 0.70752 16.0047 0.70752 10.4007C0.70752 4.79674 5.4657 0.236816 11.3133 0.236816C17.1609 0.236816 21.9191 4.79674 21.9191 10.4007C21.9191 16.0047 17.1609 20.5646 11.3133 20.5646Z" fill="white"/>
<path d="M11.3133 0.480542C17.0211 0.480542 21.6645 4.93054 21.6645 10.4005C21.6645 15.8705 17.0211 20.3205 11.3133 20.3205C5.60549 20.3205 0.96202 15.8705 0.96202 10.4005C0.96202 4.93054 5.60549 0.480542 11.3133 0.480542ZM11.3133 -0.00732422C5.31498 -0.00732422 0.452942 4.65213 0.452942 10.4005C0.452942 16.1482 5.31498 20.8083 11.3133 20.8083C17.3116 20.8083 22.1736 16.1482 22.1736 10.4005C22.1736 4.65278 17.3116 -0.00732422 11.3133 -0.00732422Z" fill="#E5E5E5"/>
<path d="M16.9431 14.917V10.925C16.9431 8.78615 15.7518 7.79091 14.1628 7.79091C12.8806 7.79091 12.3064 8.46676 11.9867 8.94097V7.95418H9.57161C9.60351 8.60792 9.57161 14.917 9.57161 14.917H11.9867V11.0284C11.9867 10.8209 12.0023 10.6127 12.0661 10.4644C12.2405 10.0488 12.6376 9.61813 13.3048 9.61813C14.1791 9.61813 14.5287 10.2563 14.5287 11.1923V14.9177L16.9431 14.917ZM7.02689 7.00381C7.86857 7.00381 8.39326 6.46846 8.39326 5.80041C8.37765 5.1174 7.86857 4.59766 7.04251 4.59766C6.21644 4.59766 5.67682 5.11675 5.67682 5.79976C5.67682 6.46846 6.20083 7.00316 7.01196 7.00316H7.02689V7.00381ZM8.23443 14.917V7.95418H5.82004V14.917H8.23443Z" fill="#333333"/>
</g>
<defs>
<clipPath id="clip0_32_148">
<rect width="21.7207" height="20.8156" fill="white" transform="translate(0.449585)"/>
</clipPath>
</defs>
</svg>
