<svg width="23" height="21" viewBox="0 0 23 21" fill="none" xmlns="http://www.w3.org/2000/svg">
<path d="M19.8556 2.79056C19.6452 2.62115 19.3906 2.50984 19.1191 2.46859C18.8477 2.42733 18.5696 2.45768 18.3148 2.55639L2.76419 8.52137C2.53751 8.61161 2.3438 8.76418 2.20753 8.95984C2.07126 9.1555 1.99854 9.38546 1.99854 9.6207C1.99854 9.85593 2.07126 10.0859 2.20753 10.2815C2.3438 10.4772 2.53751 10.6298 2.76419 10.72L3.76877 11.1168C3.93441 11.184 4.12108 11.1854 4.28779 11.1207C4.45451 11.0561 4.58765 10.9307 4.65796 10.7721C4.69246 10.6931 4.71034 10.6083 4.71058 10.5227C4.71081 10.4371 4.69341 10.3522 4.65935 10.273C4.6253 10.1939 4.57527 10.1219 4.51213 10.0613C4.44899 10.0007 4.37399 9.95267 4.29143 9.91992L3.54478 9.6272L18.8239 3.7728C18.8474 3.759 18.8744 3.75169 18.902 3.75169C18.9295 3.75169 18.9565 3.759 18.98 3.7728C19.0022 3.79083 19.0189 3.81421 19.0285 3.84052C19.038 3.86682 19.04 3.8951 19.0343 3.92241L16.2446 16.3988C16.2354 16.4432 16.2143 16.4846 16.1834 16.5188C16.1524 16.5531 16.1127 16.5789 16.0681 16.5939C16.0243 16.6106 15.9767 16.6157 15.9302 16.6089C15.8837 16.602 15.8399 16.5834 15.8034 16.5549L10.3732 12.4959L15.688 7.35049C15.8015 7.23761 15.8687 7.08922 15.8771 6.93265C15.8856 6.77607 15.8347 6.62184 15.734 6.49834C15.6332 6.37484 15.4892 6.29038 15.3286 6.2605C15.168 6.23062 15.0016 6.25733 14.8599 6.33573L7.0676 10.7591C6.98105 10.7965 6.90368 10.851 6.84047 10.919C6.77727 10.9869 6.72965 11.0668 6.70069 11.1535C6.67173 11.2402 6.66208 11.3317 6.67235 11.4222C6.68263 11.5127 6.7126 11.6001 6.76034 11.6788C6.80808 11.7574 6.87251 11.8257 6.94948 11.879C7.02645 11.9323 7.11424 11.9696 7.20718 11.9883C7.30011 12.0071 7.39612 12.007 7.489 11.9879C7.58188 11.9689 7.66956 11.9314 7.74637 11.8779L11.0248 10.024L9.42972 11.5787C9.2838 11.7101 9.17001 11.8708 9.09651 12.0493C9.02301 12.2277 8.99163 12.4196 9.0046 12.6111C9.01758 12.8026 9.07459 12.9889 9.17156 13.1568C9.26853 13.3247 9.40305 13.47 9.56548 13.5822L14.9956 17.5827C15.2814 17.7941 15.6324 17.9085 15.9934 17.9079C16.1857 17.9066 16.3762 17.8736 16.5568 17.8103C16.8161 17.7211 17.0472 17.5696 17.2278 17.3703C17.4085 17.171 17.5327 16.9305 17.5885 16.672L20.3579 4.20863C20.4167 3.95083 20.401 3.68255 20.3125 3.43268C20.224 3.1828 20.066 2.96079 19.8556 2.79056Z" fill="#F0F0F0"/>
</svg>
