<svg width="27" height="21" viewBox="0 0 27 21" fill="none" xmlns="http://www.w3.org/2000/svg">
<path d="M18.6198 0.855088C19.86 0.855088 21.0558 1.35211 21.9012 2.22323L22.2404 2.57061L22.7243 2.47976C22.9746 2.43166 23.2193 2.37821 23.464 2.31408C23.4084 2.3889 23.147 2.64008 22.8522 2.89127C22.602 3.10504 21.8622 3.77308 21.8622 3.77308C21.8622 3.77308 22.5853 3.99219 23.0358 4.04029C23.4863 4.08839 24.0035 4.00823 24.0869 3.99754C23.9312 4.12046 23.6531 4.30751 23.4863 4.41974L23.097 4.6923L23.1192 5.15191C23.1303 5.35499 23.1359 5.56876 23.1359 5.78253C23.1359 7.39651 22.8077 9.08531 22.1904 10.6726C21.5397 12.34 20.6053 13.8471 19.4095 15.1511C18.1303 16.546 16.6175 17.6362 14.899 18.4004C13.0191 19.2395 10.9334 19.6617 8.69763 19.6617C7.09029 19.6617 5.5052 19.4052 3.99797 18.9028C4.54858 18.8013 5.08807 18.657 5.61643 18.4806C6.82333 18.0744 7.9468 17.4812 8.95903 16.717L10.9223 15.2366L8.42511 15.1938C6.9735 15.1671 5.66093 14.4777 4.84891 13.3821C5.25492 13.3554 5.65537 13.2859 6.04469 13.1844L9.42066 12.1048L5.98907 11.5223C4.3428 11.207 3.05248 10.0313 2.57973 8.54019C3.01354 8.64708 3.43623 8.68983 3.90898 8.71656C3.90898 8.71656 5.67761 8.79138 7.01243 8.71121C6.2894 8.37986 4.43178 7.15068 4.43178 7.15068C3.18039 6.34369 2.42956 5.00227 2.42956 3.54862C2.42956 3.20658 2.47406 2.86455 2.55192 2.5332C3.76994 3.73032 5.16593 4.72971 6.72878 5.49929C8.78662 6.52005 11.0057 7.09189 13.325 7.20412L14.5041 7.26291L14.2371 6.15663C14.1593 5.84132 14.1203 5.50997 14.1203 5.16794C14.1203 2.79507 16.1392 0.855088 18.6198 0.855088ZM18.6198 0C15.6442 0 13.236 2.31943 13.236 5.17863C13.236 5.58479 13.2805 5.98027 13.375 6.35972C8.89785 6.14595 4.92678 4.08305 2.27383 0.945941C1.81221 1.71018 1.54525 2.60267 1.54525 3.54862C1.54525 5.3443 2.4963 6.93156 3.94235 7.86147C3.05804 7.84009 2.22378 7.60494 1.50075 7.21481C1.50075 7.23618 1.50075 7.25756 1.50075 7.27894C1.50075 9.79076 3.35837 11.8804 5.82222 12.356C5.37172 12.4736 4.89341 12.5377 4.40398 12.5377C4.05915 12.5377 3.71988 12.5057 3.39174 12.4415C4.07583 14.4991 6.06693 15.9955 8.42511 16.0382C6.58417 17.4278 4.25937 18.2561 1.73434 18.2561C1.30053 18.2561 0.872277 18.2294 0.449585 18.1813C2.83001 19.667 5.66093 20.5221 8.69763 20.5221C18.6086 20.5221 24.0258 12.6286 24.0258 5.78253C24.0258 5.55807 24.0202 5.33361 24.0091 5.1145C25.0602 4.38233 25.9724 3.4738 26.6954 2.43166C25.7277 2.84317 24.6932 3.12107 23.6031 3.24934C24.7154 2.60802 25.5719 1.5926 25.9724 0.38479C24.9323 0.978007 23.781 1.4109 22.5519 1.6407C21.5675 0.630627 20.1659 0 18.6198 0Z" fill="white"/>
</svg>
