<svg width="20" height="21" viewBox="0 0 20 21" fill="none" xmlns="http://www.w3.org/2000/svg">
<path d="M7.10896 11.4763V17.0126L7.06453 17.0073L1.32713 15.9158V11.4763H7.10896ZM7.23115 10.6367H1.19384C0.782831 10.6367 0.449585 10.9568 0.449585 11.3556V16.026C0.449585 16.3724 0.705074 16.6505 1.04387 16.7187L6.8979 17.826L7.28114 17.8889C7.66992 17.8732 7.98651 17.5531 7.98651 17.1805V11.3556C7.98651 10.9516 7.64215 10.6367 7.23115 10.6367Z" fill="white"/>
<path d="M19.1225 11.4763V19.2008L19.0058 19.2586L10.097 17.5793L10.0415 17.5688V11.4816H19.1225M19.2446 10.6367H9.90264C9.49163 10.6367 9.15839 10.9568 9.15839 11.3556V17.679V17.6895C9.15839 17.9781 9.34167 18.2195 9.59716 18.3297C9.60827 18.3402 9.60827 18.3402 9.60827 18.3402L9.90264 18.398C9.91374 18.398 9.91374 18.398 9.9193 18.398L19.0669 20.1244C19.078 20.1297 19.0947 20.1402 19.1058 20.1402C19.1113 20.1402 19.1169 20.1402 19.1225 20.1349C19.1613 20.1559 19.2002 20.1559 19.2391 20.1559C19.6501 20.1559 19.9944 19.8411 19.9944 19.4475V11.3556C20 10.9516 19.6556 10.6367 19.2446 10.6367Z" fill="white"/>
<path d="M19.0003 0.8971L19.1169 0.954824V8.67933H10.0359V2.59208L10.0915 2.58159L19.0003 0.8971ZM19.2446 -0.000244141C19.2058 -0.000244141 19.1669 -0.000244061 19.128 0.0207465C19.1225 0.0154988 19.1169 0.0154989 19.1113 0.0154989C19.1002 0.0154989 19.0836 0.0207463 19.0725 0.0312416L9.9193 1.75246C9.90819 1.75246 9.90819 1.75246 9.90264 1.75246L9.61938 1.81019C9.61938 1.81019 9.60827 1.81019 9.59716 1.82068C9.34167 1.93088 9.15839 2.18277 9.15839 2.47139V8.79478C9.15839 9.1936 9.49163 9.51371 9.90264 9.51371H19.2446C19.6556 9.51371 20 9.1936 20 8.79478V0.708186C20 0.319861 19.6556 -0.000244141 19.2446 -0.000244141Z" fill="white"/>
<path d="M7.10896 3.14344V8.67969H1.32713V4.2402L7.06453 3.14869L7.10896 3.14344ZM7.28114 2.25659L6.8979 2.31956L1.04387 3.43206C0.705074 3.50028 0.449585 3.7784 0.449585 4.12475V8.79514C0.449585 9.19396 0.782831 9.51406 1.19384 9.51406H7.2367C7.64771 9.51406 7.99206 9.19396 7.99206 8.79514V2.96502C7.98651 2.59244 7.67548 2.27758 7.28114 2.25659Z" fill="white"/>
</svg>
