<svg width="295" height="222" viewBox="0 0 295 222" fill="none" xmlns="http://www.w3.org/2000/svg">
<g clip-path="url(#clip0_15_2)">
<path opacity="0.18" d="M245.08 79.6826C246.497 85.2844 246.668 91.1278 245.583 96.8028C244.498 102.478 242.182 107.847 238.797 112.533C233.744 119.401 226.541 124.536 222.055 131.767C212.359 147.38 217.563 168.699 208.67 184.782C201.236 198.237 185.836 204.846 171.536 210.519C160.307 214.97 148.965 219.449 137.063 221.243C125.16 223.037 112.359 221.899 102.045 215.716C93.539 210.631 87.2901 202.57 81.5183 194.52C67.3305 174.714 54.507 153.148 50.1501 129.189C45.7933 105.229 51.2281 78.354 69.0935 61.7773C77.7903 53.7048 89.1821 48.1381 95.3188 37.9858C101.759 27.3346 101.848 12.4733 111.859 5.05105C115.553 2.30975 120.146 1.03721 124.705 0.431769C135.681 -0.978857 146.821 1.16078 156.489 6.53661C166.297 12.0248 174.349 20.7476 185.033 24.2569C198.861 28.8033 216.609 25.3108 225.8 38.765C233.183 49.5845 241.801 67.0805 245.08 79.6826Z" fill="#89F8CA"/>
<path d="M186.24 72.025C186.08 72.3631 185.861 72.6705 185.594 72.9332C183.455 75.19 180.685 76.7526 177.644 77.4179C176.571 77.6648 175.473 77.7889 174.371 77.7879C173.725 73.6283 173.068 69.4631 172.563 65.2867C172.165 62.024 171.867 58.767 171.727 55.4931C171.631 53.4414 167.179 46.2882 168.088 44.371C169.093 42.2632 176.33 49.478 177.145 50.8514C181.664 58.4194 183.287 64.272 186.386 70.7805C186.503 71.1983 186.451 71.6455 186.24 72.025Z" fill="#66C7B5"/>
<path d="M178.374 76.6555C178.157 76.9371 177.913 77.1963 177.644 77.4291C176.571 77.676 175.473 77.8002 174.371 77.7991C173.725 73.6395 173.068 69.4743 172.563 65.2979C172.754 62.0166 173.1 58.7483 173.602 55.4932C173.388 56.8554 175.067 59.8265 175.522 61.1607L177.493 66.9741C178.52 70.0069 180.715 73.6956 178.374 76.6555Z" fill="url(#paint0_linear_15_2)"/>
<path d="M175.954 83.7694C176.403 86.5051 176.976 89.2744 178.329 91.6962C179.025 92.9407 180.064 94.1628 181.473 94.3814C182.257 94.4554 183.047 94.338 183.775 94.0395C185.284 93.5211 186.708 92.7804 187.997 91.8419C189.23 90.8984 190.391 89.866 191.473 88.7531C193.081 87.2371 194.57 85.599 195.925 83.8535C196.548 83.0126 197.115 82.1269 197.795 81.3252C200.602 77.9897 205.094 76.4929 208.277 73.5162C209.136 72.7201 210.877 69.0763 210.747 67.9103C209.58 67.2376 207.182 69.9452 205.891 70.3376C204.599 70.73 203.392 71.3691 202.095 71.7335C200.542 72.1659 198.904 72.1871 197.34 71.7952C196.812 71.6606 196.183 63.3471 195.656 63.5377C195.39 63.6488 195.152 63.8173 194.959 64.031C193.87 65.1522 193.275 74.7215 192.371 75.966C191.13 77.6478 189.412 78.9259 187.711 80.148C187.559 80.2545 187.369 80.3666 187.2 80.2825C187.145 80.2413 187.098 80.1892 187.063 80.1295C187.029 80.0697 187.006 80.0035 186.998 79.935C186.554 78.2924 186.055 76.6611 185.51 75.0522C185.128 73.931 184.589 72.6977 183.461 72.3614C182.456 72.0643 181.412 72.6304 180.513 73.1742C179.357 73.8806 178.189 74.5757 177.038 75.2877C176.398 75.6801 175.623 76.0613 175.32 76.7844C174.949 77.6534 175.264 78.853 175.37 79.7444C175.539 81.0954 175.735 82.4352 175.954 83.7694Z" fill="#F5BCBA"/>
<path d="M186.201 160.016C186.201 161.731 186.117 163.418 185.965 165.094C184.655 179.439 177.877 192.733 167.031 202.23C156.185 211.727 142.1 216.701 127.686 216.126C113.271 215.55 99.6293 209.468 89.5777 199.136C79.5262 188.805 73.8332 175.013 73.6749 160.61C73.6749 160.419 73.6749 160.234 73.6749 160.049C73.6006 152.624 75.0011 145.258 77.7954 138.377C80.5898 131.496 84.7224 125.236 89.9546 119.96C95.1867 114.683 101.414 110.495 108.278 107.636C115.141 104.777 122.504 103.305 129.941 103.305C137.377 103.305 144.74 104.777 151.603 107.636C158.467 110.495 164.695 114.683 169.927 119.96C175.159 125.236 179.292 131.496 182.086 138.377C184.88 145.258 186.281 152.624 186.206 160.049L186.201 160.016Z" fill="#42CAB1"/>
<path d="M186.201 160.015C186.201 161.731 186.117 163.418 185.965 165.094C173.018 173.89 153.962 179.44 132.711 179.44C108.008 179.44 86.3019 171.945 73.6749 160.582C73.6749 160.391 73.6749 160.206 73.6749 160.021C73.6006 152.596 75.0011 145.23 77.7954 138.349C80.5898 131.468 84.7224 125.208 89.9546 119.932C95.1867 114.655 101.414 110.466 108.278 107.608C115.141 104.749 122.504 103.277 129.941 103.277C137.377 103.277 144.74 104.749 151.603 107.608C158.467 110.466 164.695 114.655 169.927 119.932C175.159 125.208 179.292 131.468 182.086 138.349C184.88 145.23 186.281 152.596 186.206 160.021L186.201 160.015Z" fill="url(#paint1_linear_15_2)"/>
<path d="M155.737 138.051C157.982 138.859 160.425 139.436 162.266 140.966C163.9 142.318 164.894 144.274 165.697 146.23C168.374 152.796 169.339 159.933 168.504 166.972C168.279 168.845 167.942 170.773 168.431 172.578C168.919 174.383 170.587 176.076 172.462 175.852C175.062 170.695 175.118 164.674 175.123 158.9C175.123 154.684 175.123 150.379 173.709 146.404C172.552 143.13 170.508 140.238 168.397 137.485C160.7 127.395 151.385 117.982 139.527 113.447C139.036 113.196 138.471 113.126 137.933 113.251C135.491 114.142 135.889 118.481 136.838 120.225C138.186 122.633 139.686 124.953 141.33 127.17C144.936 132.152 149.954 135.942 155.737 138.051Z" fill="url(#paint2_linear_15_2)"/>
<path d="M133.531 125.382C133.564 124.628 133.662 123.878 133.823 123.14C133.909 122.774 134.095 122.438 134.359 122.17C134.624 121.903 134.957 121.712 135.322 121.621C135.631 121.612 135.938 121.584 136.243 121.536C136.866 121.346 137.13 120.623 137.31 120L139.303 113.049C139.685 111.704 140.072 110.291 139.78 108.929C139.32 106.799 137.36 105.358 135.451 104.315C134.065 103.553 132.504 102.874 130.96 103.16C128.568 103.603 127.181 106.07 126.288 108.329C125.249 110.75 124.611 113.322 124.396 115.947C124.239 118.98 123.981 126.408 125.862 129.06C128.467 132.782 133.116 128.746 133.531 125.382Z" fill="url(#paint3_linear_15_2)"/>
<path d="M163.816 116.609C168.908 118.33 174.337 119.053 179.244 121.245C179.402 121.293 179.549 121.373 179.675 121.48C179.8 121.587 179.902 121.719 179.974 121.867C180.017 122.11 179.986 122.36 179.884 122.585C175.74 134.89 173.403 147.73 172.945 160.705C175.881 161.233 178.882 161.299 181.838 160.901C182.171 160.881 182.493 160.778 182.776 160.604C183.048 160.366 183.254 160.06 183.371 159.718C188.121 149.071 192.384 138.223 196.161 127.176C196.829 125.22 197.492 123.173 197.222 121.122C196.835 118.134 194.583 115.779 192.444 113.655L175.775 97.0498C175.351 96.5725 174.83 96.1903 174.247 95.9286C173.577 95.7294 172.868 95.6948 172.181 95.8277C165.607 96.6405 156.629 96.8928 144.547 96.3883C142.98 96.321 150.723 105.229 151.368 106.939C151.885 108.295 153.519 110.044 154.518 111.098C157.022 113.722 160.402 115.454 163.816 116.609Z" fill="#525263"/>
<path d="M163.816 116.609C168.908 118.33 174.337 119.053 179.244 121.245C179.402 121.293 179.549 121.373 179.675 121.48C179.8 121.587 179.902 121.719 179.974 121.867C180.017 122.11 179.986 122.36 179.884 122.585C175.74 134.89 173.403 147.73 172.945 160.705C175.881 161.233 178.882 161.299 181.838 160.901C182.171 160.881 182.493 160.778 182.776 160.604C183.048 160.366 183.254 160.06 183.371 159.718C188.121 149.071 192.384 138.223 196.161 127.176C196.829 125.22 197.492 123.173 197.222 121.122C196.835 118.134 194.583 115.779 192.444 113.655L175.775 97.0498C175.351 96.5725 174.83 96.1903 174.247 95.9286C173.577 95.7294 172.868 95.6948 172.181 95.8277C165.607 96.6405 156.629 96.8928 144.547 96.3883C142.98 96.321 150.723 105.229 151.368 106.939C151.885 108.295 153.519 110.044 154.518 111.098C157.022 113.722 160.402 115.454 163.816 116.609Z" fill="url(#paint4_linear_15_2)"/>
<path d="M172.091 168.066C171.682 168.701 171.406 169.412 171.277 170.157C170.978 171.46 170.757 172.779 170.615 174.109C170.503 175.14 170.463 176.261 171.053 177.108C171.642 177.954 172.614 178.263 173.523 178.616C175.813 179.557 178.037 180.649 180.182 181.884C181.631 182.68 183.141 183.504 184.791 183.566C186.442 183.628 188.267 182.725 188.643 181.122C188.773 180.35 188.708 179.558 188.452 178.818C187.551 175.601 185.784 172.693 183.343 170.409C182.915 169.992 182.438 169.629 181.922 169.327C181.428 169.072 180.911 168.862 180.378 168.699C178.879 168.151 177.342 167.711 175.78 167.382C174.416 167.163 173.035 166.759 172.091 168.066Z" fill="#2E2E3F"/>
<path d="M172.091 168.066C171.682 168.701 171.406 169.412 171.277 170.157C170.978 171.46 170.757 172.779 170.615 174.109C170.503 175.14 170.463 176.261 171.053 177.108C171.642 177.954 172.614 178.263 173.523 178.616C175.813 179.557 178.037 180.649 180.182 181.884C181.631 182.68 183.141 183.504 184.791 183.566C186.442 183.628 188.267 182.725 188.643 181.122C188.773 180.35 188.708 179.558 188.452 178.818C187.551 175.601 185.784 172.693 183.343 170.409C182.915 169.992 182.438 169.629 181.922 169.327C181.428 169.072 180.911 168.862 180.378 168.699C178.879 168.151 177.342 167.711 175.78 167.382C174.416 167.163 173.035 166.759 172.091 168.066Z" fill="url(#paint5_linear_15_2)"/>
<path d="M173.759 161.125C173.333 163.343 173.112 165.595 173.097 167.853C173.097 168.845 173.164 169.944 173.877 170.656C174.552 171.191 175.412 171.437 176.269 171.339C177.301 171.301 178.321 171.091 179.284 170.717C179.497 170.651 179.691 170.531 179.845 170.37C179.959 170.21 180.037 170.029 180.075 169.837C180.932 166.628 181.387 163.325 181.428 160.004C181.483 159.484 181.375 158.959 181.12 158.502C180.586 157.756 179.48 157.79 178.582 157.969C177.432 158.215 176.305 158.558 175.213 158.995C174.18 159.354 173.967 160.06 173.759 161.125Z" fill="#F5BCBA"/>
<path d="M184.831 171.665C185.237 172.661 185.567 173.686 185.819 174.731C185.993 175.544 186.094 176.413 186.616 177.063C187.279 177.876 188.43 178.083 189.48 178.1C190.345 178.149 191.21 178.003 192.012 177.674C192.429 177.511 192.777 177.21 193 176.822C193.156 176.439 193.21 176.022 193.157 175.611C193.075 172.763 192.364 169.968 191.074 167.427C190.335 166.113 189.502 164.854 188.581 163.659C188.291 163.122 187.801 162.72 187.217 162.538C186.917 162.528 186.618 162.577 186.337 162.684C186.056 162.791 185.8 162.953 185.583 163.16C184.657 163.856 182.619 165.016 182.832 166.333C183.102 168.088 184.202 170 184.831 171.665Z" fill="#F5BCBA"/>
<path d="M191.636 173.733C191 174.088 190.384 174.475 189.788 174.894C188.862 175.404 187.773 175.505 186.757 175.796C186.488 175.847 186.242 175.978 186.049 176.172C185.909 176.36 185.822 176.583 185.797 176.816C185.606 178.347 185.668 179.898 185.982 181.408C186.498 184.674 187.101 187.927 187.79 191.168C188.076 192.502 188.418 193.909 189.39 194.867C190.361 195.826 191.838 196.157 193.219 196.196C194.511 196.27 195.802 196.03 196.981 195.495C197.918 194.994 198.73 194.288 199.356 193.43C199.982 192.572 200.406 191.584 200.596 190.54C200.962 188.44 200.704 186.278 199.855 184.323C199.279 182.985 198.607 181.691 197.845 180.449C196.835 178.715 195.828 176.981 194.825 175.247C194.061 173.924 193.365 172.999 191.636 173.733Z" fill="#2E2E3F"/>
<path d="M191.636 173.733C191 174.088 190.384 174.475 189.788 174.894C188.862 175.404 187.773 175.505 186.757 175.796C186.488 175.847 186.242 175.978 186.049 176.172C185.909 176.36 185.822 176.583 185.797 176.816C185.606 178.347 185.668 179.898 185.982 181.408C186.498 184.674 187.101 187.927 187.79 191.168C188.076 192.502 188.418 193.909 189.39 194.867C190.361 195.826 191.838 196.157 193.219 196.196C194.511 196.27 195.802 196.03 196.981 195.495C197.918 194.994 198.73 194.288 199.356 193.43C199.982 192.572 200.406 191.584 200.596 190.54C200.962 188.44 200.704 186.278 199.855 184.323C199.279 182.985 198.607 181.691 197.845 180.449C196.835 178.715 195.828 176.981 194.825 175.247C194.061 173.924 193.365 172.999 191.636 173.733Z" fill="url(#paint6_linear_15_2)"/>
<path d="M123.61 71.1224C123.119 72.3566 122.791 73.6493 122.633 74.9681C122.099 78.3826 121.758 81.8245 121.612 85.2773C121.331 91.8699 121.758 98.4737 121.572 105.066C121.381 111.922 120.573 119.031 123.043 125.427C123.428 126.588 124.078 127.643 124.941 128.51C125.378 128.937 125.916 129.245 126.506 129.406C127.095 129.567 127.716 129.575 128.31 129.43C128.847 129.223 129.329 128.896 129.718 128.473C130.108 128.05 130.394 127.543 130.555 126.991C130.865 125.886 131.001 124.74 130.96 123.594L131.05 117.326C131.05 117.197 131.05 117.046 131.179 116.99C131.233 116.971 131.291 116.967 131.347 116.978C131.403 116.989 131.455 117.014 131.499 117.052C131.982 117.468 132.441 117.912 132.874 118.38C133.374 118.784 134.171 118.98 134.615 118.515C134.738 118.352 134.825 118.165 134.87 117.966C134.915 117.767 134.918 117.56 134.879 117.36C134.609 114.647 132.24 112.69 130.831 110.353C128.798 106.989 128.798 102.751 129.309 98.8381C129.943 93.9385 131.268 89.1566 132.588 84.3916L133.711 80.361C134.559 77.3001 135.395 73.959 134.16 71.0271C133.664 69.901 132.909 68.9078 131.955 68.1285C131.002 67.3491 129.878 66.8057 128.675 66.5424C126.328 66.1107 124.458 69.2164 123.61 71.1224Z" fill="#F5BCBA"/>
<path d="M175.735 96.6125C175.011 98.5578 170.924 96.2874 168.588 97.4534C164.13 99.6958 159.043 97.3918 154.075 97.4534C148.786 97.5487 145.136 102.751 139.887 103.413C139.505 103.491 139.112 103.491 138.73 103.413C138.006 103.2 137.579 102.476 137.27 101.798C136.817 100.752 136.493 99.6542 136.305 98.5298C135.653 94.8074 136.305 90.816 137.001 87.032C137.585 83.8254 138.167 80.617 138.747 77.4067C139.421 73.6694 140.1 69.9097 140.785 66.1276C141.185 63.6325 141.747 61.1662 142.469 58.7446C142.604 58.3241 142.745 57.9149 142.896 57.5113C144.202 54.2236 145.778 51.0493 147.607 48.0204C148.73 46.0752 149.852 44.0963 151.587 42.6219C153.524 40.9906 156.023 40.1778 158.532 39.7853C160.79 39.3606 163.116 39.4953 165.309 40.1778C166.561 40.615 167.033 41.938 168.027 42.7509C169.286 43.6828 170.411 44.7845 171.367 46.0247C172.339 47.5221 173.033 49.1817 173.417 50.9243C176.937 64.5915 171.844 79.3351 175.191 93.0416C175.572 94.6505 176.314 95.0765 175.735 96.6125Z" fill="#66C7B5"/>
<path d="M170.952 48.6034L171.39 51.468L169.705 50.5318V58.1222L167.785 49.6909L169.644 46.9889L170.952 48.6034Z" fill="url(#paint7_linear_15_2)"/>
<path d="M156.691 48.4184L157.752 48.979L159.436 50.4421L154.945 62.4724C154.945 62.4724 161.469 52.4491 161.682 47.3365C161.814 44.1916 161.422 41.0468 160.52 38.0306L156.691 48.4184Z" fill="url(#paint8_linear_15_2)"/>
<path d="M142.307 82.9005C141.95 85.6546 141.95 88.4431 142.307 91.1973C142.537 92.9295 142.907 94.6561 142.789 96.3939C142.795 96.7335 142.686 97.0651 142.481 97.3357C142.217 97.5498 141.893 97.6771 141.554 97.7001C139.799 97.9767 138.041 98.2589 136.282 98.5466C135.631 94.8243 136.282 90.8329 136.978 87.0489C137.562 83.8423 138.144 80.6338 138.725 77.4235C139.398 73.6862 140.078 69.9265 140.763 66.1444C141.162 63.6493 141.725 61.1831 142.447 58.7614C142.582 58.341 142.722 57.9317 142.874 57.5281C144.614 56.5639 147.034 55.8463 148.112 57.4048C149.235 59.0866 147.758 63.0107 147.32 64.6925C145.726 70.7861 143.109 76.6107 142.307 82.9005Z" fill="url(#paint9_linear_15_2)"/>
<path d="M182.692 34.2971C182.75 34.9942 182.729 35.6957 182.63 36.3881C182.573 36.7334 182.401 37.0491 182.14 37.2834C181.88 37.5177 181.548 37.6567 181.198 37.6775C179.447 37.5486 178.183 39.2247 176.791 40.3011C175.698 41.1184 174.402 41.6193 173.043 41.7489C171.684 41.8784 170.315 41.6316 169.088 41.0354C168.844 40.9479 168.576 40.9572 168.338 41.0615C168.101 41.1659 167.913 41.3572 167.813 41.596C167.638 42.0906 167.599 42.623 167.701 43.1377L168.347 49.2705C168.47 50.4534 168.481 51.8997 167.476 52.5388C166.471 53.1779 165.281 52.6229 164.45 51.8997C163.144 50.6454 162.2 49.0635 161.716 47.3197C160.618 43.7865 160.461 40.0288 161.259 36.4164C162.057 32.8041 163.784 29.4616 166.269 26.7179C167.202 25.6767 168.296 24.791 169.509 24.0943C170.779 23.4364 172.142 22.9769 173.551 22.7321C174.813 22.4349 176.116 22.3628 177.403 22.5191C179.13 22.8327 180.701 23.7196 181.861 25.0361C182.714 25.9667 183.545 28.7417 184.443 29.1957C183.775 30.8887 182.72 32.3855 182.692 34.2971Z" fill="#F5BCBA"/>
<path d="M169.329 10.2253C168.506 10.033 167.647 10.0581 166.836 10.2982C165.253 10.8588 164.366 12.5125 163.793 14.0878C163.221 15.663 162.749 17.384 161.503 18.4996C160.43 19.4638 158.909 19.8506 157.943 20.9158C156.82 22.1547 156.713 23.9878 156.82 25.6528C156.82 26.9019 157.172 28.1258 157.836 29.1845C158.431 29.9918 159.347 30.5523 159.813 31.4269C160.34 32.4303 160.52 33.9832 161.654 34.0504C162.127 34.0266 162.574 33.8266 162.906 33.4898C164.053 32.5005 164.917 31.2259 165.41 29.7955C165.685 28.9995 165.865 28.1138 166.471 27.5532C167.078 26.9926 168.313 26.959 168.588 27.755C168.665 28.2615 168.587 28.7794 168.363 29.2406C168.217 29.7339 168.279 30.401 168.762 30.5692C169.672 29.1677 170.183 27.5195 171.261 26.247C171.872 25.5313 172.64 24.9649 173.505 24.5911C174.369 24.2173 175.308 24.046 176.25 24.0903C177.191 24.1347 178.109 24.3935 178.935 24.847C179.761 25.3005 180.471 25.9366 181.013 26.7067C181.574 27.5083 181.956 28.4613 182.742 29.0331C183.483 29.4836 184.329 29.7311 185.196 29.7507C187.127 29.9413 189.171 30.0142 190.911 29.1565C192.652 28.2988 193.938 26.219 193.269 24.397C192.742 22.9675 191.237 22.1547 189.777 21.695C188.317 21.2353 186.757 21.0055 185.471 20.187C183.725 19.0658 182.793 17.0701 181.777 15.2594C180.76 13.4487 179.385 11.5875 177.352 11.1615C176.523 11.0325 175.678 11.0325 174.848 11.1615C174.039 11.333 173.21 11.397 172.383 11.3521C171.373 11.1447 170.396 10.4607 169.329 10.2253Z" fill="#2E2E3F"/>
<path d="M169.329 56.2892C170.611 62.7744 170.989 69.4055 170.452 75.994C170.009 81.4766 168.953 86.92 168.992 92.4194C169.075 93.9659 169.028 95.5167 168.852 97.0555C168.605 98.5803 158.364 97.9973 156.871 97.9804C154.355 97.9468 157.544 101.344 155.652 99.7071C152.682 97.1227 151.357 93.0921 150.992 89.1791C150.47 83.6013 151.615 78.0178 152.862 72.552C153.726 68.768 154.647 64.9728 156.197 61.413C158.117 57.0124 161.154 51.4121 162.131 46.7087C162.272 46.0192 159.886 43.5133 160.913 43.547C161.581 43.547 161.267 44.5841 161.385 45.0998C161.595 45.8852 161.999 46.6057 162.558 47.1964C163.341 48.1095 164.402 48.7415 165.579 48.9959C166.337 49.1361 167.201 49.1024 167.751 49.6406C168.42 50.2909 168.313 51.5578 168.504 52.4436C168.779 53.7105 169.071 54.9943 169.329 56.2892Z" fill="#F2F2F2"/>
<path d="M146.596 39.6115C143.879 40.856 141.543 42.7844 139.337 44.8026C137.51 46.4458 135.785 48.1981 134.171 50.0497C132.745 51.7315 131.443 53.4749 129.938 55.0614C127.861 57.2421 125.267 59.3499 124.857 62.3491C124.731 63.913 125.006 65.4832 125.654 66.9123C126.188 68.3715 126.977 69.7247 127.984 70.9093C129.262 72.3204 130.947 73.3 132.807 73.7123C133.39 73.864 133.998 73.8908 134.592 73.7908C135.429 73.553 136.198 73.123 136.838 72.5351C138.302 71.4292 139.688 70.2249 140.987 68.9305C142.312 67.557 143.435 65.993 144.726 64.5859C145.849 63.375 147.045 62.2818 148.168 61.0934C149.51 59.6695 150.706 58.1166 151.902 56.5638C153.594 54.4576 155.145 52.2422 156.545 49.932C157.714 47.8933 158.643 45.7261 159.313 43.474C159.745 42.0052 160.436 40.1441 158.942 39.0845C155.77 36.8534 149.757 38.1371 146.596 39.6115Z" fill="#68E1FD"/>
<path d="M146.596 39.6115C143.879 40.856 141.543 42.7844 139.337 44.8026C137.51 46.4458 135.785 48.1981 134.171 50.0497C132.745 51.7315 131.443 53.4749 129.938 55.0614C127.861 57.2421 125.267 59.3499 124.857 62.3491C124.731 63.913 125.006 65.4832 125.654 66.9123C126.188 68.3715 126.977 69.7247 127.984 70.9093C129.262 72.3204 130.947 73.3 132.807 73.7123C133.39 73.864 133.998 73.8908 134.592 73.7908C135.429 73.553 136.198 73.123 136.838 72.5351C138.302 71.4292 139.688 70.2249 140.987 68.9305C142.312 67.557 143.435 65.993 144.726 64.5859C145.849 63.375 147.045 62.2818 148.168 61.0934C149.51 59.6695 150.706 58.1166 151.902 56.5638C153.594 54.4576 155.145 52.2422 156.545 49.932C157.714 47.8933 158.643 45.7261 159.313 43.474C159.745 42.0052 160.436 40.1441 158.942 39.0845C155.77 36.8534 149.757 38.1371 146.596 39.6115Z" fill="#66C7B5"/>
<path d="M193.662 65.2082C193.055 65.5911 192.621 66.1951 192.453 66.892C192.284 67.589 192.394 68.3242 192.759 68.9418C193.701 70.579 194.965 72.0091 196.475 73.1462C197.374 74.1104 199.395 74.2674 201.191 73.2135C202.988 72.1596 211.561 67.501 215.845 64.457C216.16 64.2413 216.427 63.964 216.63 63.6418C216.833 63.3197 216.969 62.9596 217.028 62.5835C217.088 62.2074 217.07 61.8231 216.975 61.4542C216.881 61.0852 216.712 60.7393 216.48 60.4376L212.892 55.9528C212.467 55.4221 211.86 55.0667 211.189 54.955C210.518 54.8433 209.829 54.983 209.254 55.3474L193.662 65.2082Z" fill="#3D3D54"/>
<path d="M136.681 113.526C137.314 115.848 138.438 118.008 139.977 119.86C141.661 121.822 143.952 123.224 146.153 124.558L155.422 130.192C156.781 130.973 158.082 131.851 159.313 132.821C162.35 135.321 164.366 138.808 166.325 142.217L179.845 165.745C180.53 166.95 181.49 168.312 182.877 168.267C183.624 168.171 184.326 167.859 184.898 167.37C186.633 166.154 188.497 164.769 189.014 162.712C189.373 161.277 189.014 159.769 188.581 158.345C186.504 151.332 183.248 144.728 179.98 138.164C174.788 127.774 169.52 117.405 164.175 107.056C162.755 104.309 161.031 100.032 158.684 98.014C158.684 98.014 136.877 96.691 136.327 98.8493C135.102 103.682 135.224 108.757 136.681 113.526Z" fill="#525263"/>
<path d="M136.681 113.526C137.314 115.848 138.438 118.008 139.977 119.86C141.661 121.822 143.952 123.224 146.153 124.558L155.422 130.192C156.781 130.973 158.082 131.851 159.313 132.821C162.35 135.321 164.366 138.808 166.325 142.217L179.845 165.745C180.53 166.95 181.49 168.312 182.877 168.267C183.624 168.171 184.326 167.859 184.898 167.37C186.633 166.154 188.497 164.769 189.014 162.712C189.373 161.277 189.014 159.769 188.581 158.345C186.504 151.332 183.248 144.728 179.98 138.164C174.788 127.774 169.52 117.405 164.175 107.056C162.755 104.309 161.031 100.032 158.684 98.014C158.684 98.014 136.877 96.691 136.327 98.8493C135.102 103.682 135.224 108.757 136.681 113.526Z" fill="url(#paint10_linear_15_2)"/>
<path d="M161.205 36.5396L158.123 37.756L156.253 48.1999L162.468 47.9196L161.205 36.5396Z" fill="#C29F26"/>
<path d="M167.729 47.6673C167.729 48.1382 167.729 48.6091 167.729 49.08C167.729 49.2841 167.74 49.4881 167.763 49.691C167.796 49.897 167.841 50.101 167.897 50.302L168.672 53.3517L168.992 48.396C169.907 48.8389 170.845 49.2425 171.8 49.5957C171.728 48.853 171.538 48.1264 171.238 47.443C170.677 46.0079 170.16 44.5672 169.554 43.1601C169.412 42.7843 169.207 42.4354 168.947 42.1286C168.816 41.9765 168.652 41.8568 168.467 41.779C168.282 41.7011 168.081 41.6673 167.881 41.6801C167.319 41.9156 167.673 44.0178 167.678 44.4831L167.729 47.6673Z" fill="#C29F26"/>
<path d="M213.15 62.7528L201.742 69.9564C201.542 70.0642 201.311 70.1007 201.087 70.0599C200.864 70.0191 200.661 69.9035 200.512 69.7322L196.885 65.6511C196.811 65.5816 196.753 65.496 196.716 65.401C196.68 65.3059 196.665 65.2038 196.674 65.1023C196.682 65.0008 196.714 64.9026 196.766 64.8151C196.818 64.7276 196.89 64.6531 196.975 64.5972L208.406 57.3992C208.606 57.2914 208.837 57.2549 209.06 57.2957C209.284 57.3364 209.487 57.452 209.636 57.6234L213.263 61.6989C213.336 61.77 213.392 61.8568 213.427 61.9529C213.462 62.0489 213.475 62.1516 213.464 62.2532C213.453 62.3548 213.419 62.4525 213.365 62.5391C213.31 62.6257 213.237 62.6988 213.15 62.7528Z" fill="#FFE58C"/>
</g>
<defs>
<linearGradient id="paint0_linear_15_2" x1="162.39" y1="66.8227" x2="185.432" y2="66.4685" gradientUnits="userSpaceOnUse">
<stop offset="0.01"/>
<stop offset="0.13" stop-opacity="0.69"/>
<stop offset="1" stop-opacity="0"/>
</linearGradient>
<linearGradient id="paint1_linear_15_2" x1="232.251" y1="44.4438" x2="57.218" y2="227.548" gradientUnits="userSpaceOnUse">
<stop offset="0.01"/>
<stop offset="0.13" stop-opacity="0.69"/>
<stop offset="1" stop-opacity="0"/>
</linearGradient>
<linearGradient id="paint2_linear_15_2" x1="185.392" y1="112.92" x2="135.15" y2="165.485" gradientUnits="userSpaceOnUse">
<stop offset="0.01"/>
<stop offset="0.13" stop-opacity="0.69"/>
<stop offset="1" stop-opacity="0"/>
</linearGradient>
<linearGradient id="paint3_linear_15_2" x1="112.05" y1="105.246" x2="180" y2="147.871" gradientUnits="userSpaceOnUse">
<stop offset="0.01"/>
<stop offset="0.13" stop-opacity="0.69"/>
<stop offset="1" stop-opacity="0"/>
</linearGradient>
<linearGradient id="paint4_linear_15_2" x1="144.339" y1="128.432" x2="197.284" y2="128.432" gradientUnits="userSpaceOnUse">
<stop offset="0.01"/>
<stop offset="0.13" stop-opacity="0.69"/>
<stop offset="1" stop-opacity="0"/>
</linearGradient>
<linearGradient id="paint5_linear_15_2" x1="191.978" y1="178.537" x2="177.411" y2="174.793" gradientUnits="userSpaceOnUse">
<stop offset="0.01"/>
<stop offset="0.13" stop-opacity="0.69"/>
<stop offset="1" stop-opacity="0"/>
</linearGradient>
<linearGradient id="paint6_linear_15_2" x1="185.684" y1="184.838" x2="200.787" y2="184.838" gradientUnits="userSpaceOnUse">
<stop offset="0.01"/>
<stop offset="0.13" stop-opacity="0.69"/>
<stop offset="1" stop-opacity="0"/>
</linearGradient>
<linearGradient id="paint7_linear_15_2" x1="161.11" y1="45.4361" x2="176.659" y2="58.3923" gradientUnits="userSpaceOnUse">
<stop offset="0.01"/>
<stop offset="0.13" stop-opacity="0.69"/>
<stop offset="1" stop-opacity="0"/>
</linearGradient>
<linearGradient id="paint8_linear_15_2" x1="171.362" y1="44.8699" x2="142.599" y2="56.28" gradientUnits="userSpaceOnUse">
<stop offset="0.01"/>
<stop offset="0.13" stop-opacity="0.69"/>
<stop offset="1" stop-opacity="0"/>
</linearGradient>
<linearGradient id="paint9_linear_15_2" x1="122.824" y1="78.1579" x2="158.476" y2="76.9208" gradientUnits="userSpaceOnUse">
<stop offset="0.01"/>
<stop offset="0.13" stop-opacity="0.69"/>
<stop offset="1" stop-opacity="0"/>
</linearGradient>
<linearGradient id="paint10_linear_15_2" x1="152.615" y1="136.454" x2="192.583" y2="119.62" gradientUnits="userSpaceOnUse">
<stop offset="0.01"/>
<stop offset="0.13" stop-opacity="0.69"/>
<stop offset="1" stop-opacity="0"/>
</linearGradient>
<clipPath id="clip0_15_2">
<rect width="295" height="222" fill="white"/>
</clipPath>
</defs>
</svg>
