<svg width="304" height="204" viewBox="0 0 304 204" fill="none" xmlns="http://www.w3.org/2000/svg">
<rect width="304" height="204" fill="white"/>
<path d="M16.9425 73V63.2H18.8745L23.7465 69.528V63.2H25.6505V73H23.8585L18.8605 66.448V73H16.9425ZM30.8589 73.14C30.1309 73.14 29.4729 72.972 28.8849 72.636C28.2969 72.3 27.8302 71.8473 27.4849 71.278C27.1395 70.7087 26.9669 70.0693 26.9669 69.36C26.9669 68.6507 27.1349 68.0113 27.4709 67.442C27.8162 66.8633 28.2829 66.406 28.8709 66.07C29.4682 65.734 30.1309 65.566 30.8589 65.566C31.5869 65.566 32.2449 65.734 32.8329 66.07C33.4302 66.406 33.8969 66.8633 34.2329 67.442C34.5782 68.0113 34.7509 68.6507 34.7509 69.36C34.7509 70.0693 34.5782 70.7087 34.2329 71.278C33.8969 71.8473 33.4349 72.3 32.8469 72.636C32.2589 72.972 31.5962 73.14 30.8589 73.14ZM30.8589 71.474C31.2415 71.474 31.5822 71.3807 31.8809 71.194C32.1889 71.0073 32.4315 70.7553 32.6089 70.438C32.7955 70.1113 32.8889 69.752 32.8889 69.36C32.8889 68.9587 32.7955 68.5993 32.6089 68.282C32.4315 67.9647 32.1889 67.7127 31.8809 67.526C31.5822 67.33 31.2415 67.232 30.8589 67.232C30.4855 67.232 30.1449 67.33 29.8369 67.526C29.5289 67.7127 29.2862 67.9647 29.1089 68.282C28.9315 68.5993 28.8429 68.9587 28.8429 69.36C28.8429 69.752 28.9315 70.1113 29.1089 70.438C29.2862 70.7553 29.5289 71.0073 29.8369 71.194C30.1449 71.3807 30.4855 71.474 30.8589 71.474ZM39.1007 73.112C38.2887 73.112 37.6727 72.93 37.2527 72.566C36.8421 72.1927 36.6367 71.6513 36.6367 70.942V67.302H35.1387V65.706H36.6367V63.844L38.5547 63.41V65.706H40.6407V67.302H38.5547V70.55C38.5547 70.886 38.6294 71.1287 38.7787 71.278C38.9281 71.418 39.1894 71.488 39.5627 71.488C39.7494 71.488 39.9174 71.4787 40.0667 71.46C40.2254 71.432 40.3981 71.3853 40.5847 71.32V72.902C40.3887 72.9673 40.1414 73.0187 39.8427 73.056C39.5534 73.0933 39.3061 73.112 39.1007 73.112ZM45.7787 73L43.7767 65.706H45.5967L46.8007 70.41L48.2567 65.706H49.8667L51.3087 70.424L52.5127 65.706H54.3047L52.2887 73H50.4547L49.0407 68.338L47.6267 73H45.7787ZM55.2072 73V65.706H57.1252V73H55.2072ZM56.1592 64.838C55.8605 64.838 55.6038 64.7307 55.3892 64.516C55.1745 64.3013 55.0672 64.0447 55.0672 63.746C55.0672 63.438 55.1745 63.1813 55.3892 62.976C55.6038 62.7613 55.8605 62.654 56.1592 62.654C56.4672 62.654 56.7238 62.7613 56.9292 62.976C57.1438 63.1813 57.2512 63.438 57.2512 63.746C57.2512 64.0447 57.1438 64.3013 56.9292 64.516C56.7238 64.7307 56.4672 64.838 56.1592 64.838ZM62.0831 73.112C61.2711 73.112 60.6551 72.93 60.2351 72.566C59.8245 72.1927 59.6191 71.6513 59.6191 70.942V67.302H58.1211V65.706H59.6191V63.844L61.5371 63.41V65.706H63.6231V67.302H61.5371V70.55C61.5371 70.886 61.6118 71.1287 61.7611 71.278C61.9105 71.418 62.1718 71.488 62.5451 71.488C62.7318 71.488 62.8998 71.4787 63.0491 71.46C63.2078 71.432 63.3805 71.3853 63.5671 71.32V72.902C63.3711 72.9673 63.1238 73.0187 62.8251 73.056C62.5358 73.0933 62.2885 73.112 62.0831 73.112ZM64.5587 73V63.2L66.4767 62.78V66.308C67.0274 65.8133 67.7087 65.566 68.5207 65.566C69.0901 65.566 69.5894 65.692 70.0187 65.944C70.4574 66.1867 70.7981 66.5273 71.0407 66.966C71.2834 67.3953 71.4047 67.8993 71.4047 68.478V73H69.4867V68.758C69.4867 68.282 69.3514 67.9087 69.0807 67.638C68.8101 67.358 68.4414 67.218 67.9747 67.218C67.6481 67.218 67.3587 67.2833 67.1067 67.414C66.8547 67.5353 66.6447 67.7127 66.4767 67.946V73H64.5587ZM76.4136 73.14C75.6856 73.14 75.0276 72.972 74.4396 72.636C73.8516 72.3 73.3849 71.8473 73.0396 71.278C72.6942 70.7087 72.5216 70.0693 72.5216 69.36C72.5216 68.6507 72.6896 68.0113 73.0256 67.442C73.3709 66.8633 73.8376 66.406 74.4256 66.07C75.0229 65.734 75.6856 65.566 76.4136 65.566C77.1416 65.566 77.7996 65.734 78.3876 66.07C78.9849 66.406 79.4516 66.8633 79.7876 67.442C80.1329 68.0113 80.3056 68.6507 80.3056 69.36C80.3056 70.0693 80.1329 70.7087 79.7876 71.278C79.4516 71.8473 78.9896 72.3 78.4016 72.636C77.8136 72.972 77.1509 73.14 76.4136 73.14ZM76.4136 71.474C76.7962 71.474 77.1369 71.3807 77.4356 71.194C77.7436 71.0073 77.9862 70.7553 78.1636 70.438C78.3502 70.1113 78.4436 69.752 78.4436 69.36C78.4436 68.9587 78.3502 68.5993 78.1636 68.282C77.9862 67.9647 77.7436 67.7127 77.4356 67.526C77.1369 67.33 76.7962 67.232 76.4136 67.232C76.0402 67.232 75.6996 67.33 75.3916 67.526C75.0836 67.7127 74.8409 67.9647 74.6636 68.282C74.4862 68.5993 74.3976 68.9587 74.3976 69.36C74.3976 69.752 74.4862 70.1113 74.6636 70.438C74.8409 70.7553 75.0836 71.0073 75.3916 71.194C75.6996 71.3807 76.0402 71.474 76.4136 71.474ZM84.3125 73.14C83.7525 73.14 83.2532 73.0187 82.8145 72.776C82.3852 72.524 82.0445 72.1787 81.7925 71.74C81.5498 71.3013 81.4285 70.7973 81.4285 70.228V65.706H83.3465V69.948C83.3465 70.4147 83.4818 70.788 83.7525 71.068C84.0325 71.348 84.4058 71.488 84.8725 71.488C85.1898 71.488 85.4745 71.4273 85.7265 71.306C85.9878 71.1753 86.2025 70.9933 86.3705 70.76V65.706H88.2885V73H86.3705V72.412C85.8105 72.8973 85.1245 73.14 84.3125 73.14ZM93.2413 73.112C92.4293 73.112 91.8133 72.93 91.3933 72.566C90.9827 72.1927 90.7773 71.6513 90.7773 70.942V67.302H89.2793V65.706H90.7773V63.844L92.6953 63.41V65.706H94.7813V67.302H92.6953V70.55C92.6953 70.886 92.77 71.1287 92.9193 71.278C93.0687 71.418 93.33 71.488 93.7033 71.488C93.89 71.488 94.058 71.4787 94.2073 71.46C94.366 71.432 94.5387 71.3853 94.7253 71.32V72.902C94.5293 72.9673 94.282 73.0187 93.9833 73.056C93.694 73.0933 93.4467 73.112 93.2413 73.112ZM101.907 73.098C101.217 73.098 100.591 72.93 100.031 72.594C99.4713 72.258 99.0233 71.81 98.6873 71.25C98.3607 70.6807 98.1973 70.046 98.1973 69.346C98.1973 68.646 98.3607 68.016 98.6873 67.456C99.0233 66.8867 99.476 66.4387 100.045 66.112C100.615 65.776 101.254 65.608 101.963 65.608C102.327 65.608 102.677 65.6593 103.013 65.762C103.349 65.8553 103.662 65.9953 103.951 66.182V63.2L105.869 62.878V73H103.979V72.398C103.382 72.8647 102.691 73.098 101.907 73.098ZM102.215 71.46C102.57 71.46 102.892 71.404 103.181 71.292C103.48 71.1707 103.737 70.9933 103.951 70.76V67.918C103.737 67.7033 103.48 67.5353 103.181 67.414C102.883 67.2927 102.561 67.232 102.215 67.232C101.814 67.232 101.45 67.3253 101.123 67.512C100.806 67.6893 100.554 67.9413 100.367 68.268C100.181 68.5853 100.087 68.9447 100.087 69.346C100.087 69.7473 100.181 70.1067 100.367 70.424C100.554 70.7413 100.806 70.9933 101.123 71.18C101.45 71.3667 101.814 71.46 102.215 71.46ZM110.935 73.14C110.207 73.14 109.545 72.972 108.947 72.636C108.359 72.3 107.893 71.8473 107.547 71.278C107.202 70.7087 107.029 70.0693 107.029 69.36C107.029 68.6507 107.193 68.0113 107.519 67.442C107.855 66.8727 108.308 66.42 108.877 66.084C109.447 65.748 110.081 65.58 110.781 65.58C111.481 65.58 112.102 65.7527 112.643 66.098C113.185 66.4433 113.609 66.91 113.917 67.498C114.235 68.086 114.393 68.7533 114.393 69.5V70.004H108.989C109.073 70.2933 109.209 70.5547 109.395 70.788C109.591 71.0213 109.829 71.2033 110.109 71.334C110.399 71.4647 110.707 71.53 111.033 71.53C111.36 71.53 111.659 71.4787 111.929 71.376C112.209 71.2733 112.447 71.1287 112.643 70.942L113.903 72.09C113.455 72.454 112.993 72.72 112.517 72.888C112.051 73.056 111.523 73.14 110.935 73.14ZM108.961 68.632H112.503C112.438 68.3427 112.317 68.0907 112.139 67.876C111.971 67.652 111.766 67.4793 111.523 67.358C111.29 67.2273 111.029 67.162 110.739 67.162C110.441 67.162 110.17 67.2227 109.927 67.344C109.685 67.4653 109.479 67.638 109.311 67.862C109.153 68.0767 109.036 68.3333 108.961 68.632ZM115.569 73V63.2L117.487 62.878V73H115.569ZM121.31 73.126C120.788 73.126 120.326 73.0327 119.924 72.846C119.523 72.65 119.21 72.384 118.986 72.048C118.762 71.712 118.65 71.3247 118.65 70.886C118.65 70.186 118.912 69.6447 119.434 69.262C119.966 68.87 120.694 68.674 121.618 68.674C122.253 68.674 122.85 68.772 123.41 68.968V68.436C123.41 68.016 123.28 67.6987 123.018 67.484C122.757 67.2693 122.374 67.162 121.87 67.162C121.562 67.162 121.231 67.2133 120.876 67.316C120.522 67.4093 120.111 67.5587 119.644 67.764L118.944 66.35C119.523 66.0887 120.074 65.8927 120.596 65.762C121.128 65.6313 121.66 65.566 122.192 65.566C123.172 65.566 123.933 65.804 124.474 66.28C125.025 66.7467 125.3 67.4093 125.3 68.268V73H123.41V72.482C123.112 72.706 122.79 72.8693 122.444 72.972C122.099 73.0747 121.721 73.126 121.31 73.126ZM120.47 70.844C120.47 71.124 120.592 71.348 120.834 71.516C121.077 71.6747 121.399 71.754 121.8 71.754C122.118 71.754 122.412 71.7167 122.682 71.642C122.953 71.558 123.196 71.4367 123.41 71.278V70.214C123.177 70.1207 122.934 70.0507 122.682 70.004C122.43 69.9573 122.16 69.934 121.87 69.934C121.432 69.934 121.086 70.018 120.834 70.186C120.592 70.3447 120.47 70.564 120.47 70.844ZM127.329 76.01C127.161 76.01 126.998 76.0007 126.839 75.982C126.69 75.9727 126.564 75.9587 126.461 75.94V74.288C126.648 74.3253 126.872 74.344 127.133 74.344C127.833 74.344 128.319 74.0127 128.589 73.35L128.701 73.07L125.859 65.706H127.973L129.793 70.676L131.851 65.706H133.923L130.563 73.588C130.311 74.176 130.036 74.6473 129.737 75.002C129.439 75.3567 129.093 75.6133 128.701 75.772C128.319 75.9307 127.861 76.01 127.329 76.01Z" fill="black"/>
<rect x="14" y="14" width="21" height="21" fill="#4A8B22"/>
<path d="M24 17L26.1607 22.8393L32 25L26.1607 27.1607L24 33L21.8393 27.1607L16 25L21.8393 22.8393L24 17Z" fill="#FFFCFC"/>
<rect x="39" y="14" width="21" height="21" fill="#4A8B22"/>
<path d="M49 17L51.1607 22.8393L57 25L51.1607 27.1607L49 33L46.8393 27.1607L41 25L46.8393 22.8393L49 17Z" fill="#FFFCFC"/>
<rect x="64" y="14" width="21" height="21" fill="#4A8B22"/>
<path d="M74 17L76.1607 22.8393L82 25L76.1607 27.1607L74 33L71.8393 27.1607L66 25L71.8393 22.8393L74 17Z" fill="#FFFCFC"/>
<rect x="89" y="14" width="21" height="21" fill="#4A8B22"/>
<path d="M99 17L101.161 22.8393L107 25L101.161 27.1607L99 33L96.8393 27.1607L91 25L96.8393 22.8393L99 17Z" fill="#FFFCFC"/>
<rect x="114" y="14" width="21" height="21" fill="#CFCFD0"/>
<path d="M124 17L126.161 22.8393L132 25L126.161 27.1607L124 33L121.839 27.1607L116 25L121.839 22.8393L124 17Z" fill="#FFFCFC"/>
<path d="M14.056 116L18.116 106.2H19.418L23.45 116H22.274L21.042 112.92H16.422L15.176 116H14.056ZM16.8 111.996H20.664L18.732 107.194L16.8 111.996ZM24.384 118.856V108.986H25.406V109.742C26.0126 109.163 26.7686 108.874 27.674 108.874C28.3366 108.874 28.934 109.037 29.466 109.364C29.998 109.681 30.418 110.111 30.726 110.652C31.0433 111.193 31.202 111.805 31.202 112.486C31.202 113.167 31.0433 113.783 30.726 114.334C30.418 114.875 29.998 115.309 29.466 115.636C28.934 115.953 28.332 116.112 27.66 116.112C27.2493 116.112 26.8526 116.042 26.47 115.902C26.0873 115.762 25.7373 115.561 25.42 115.3V118.856H24.384ZM27.576 115.202C28.0706 115.202 28.514 115.085 28.906 114.852C29.298 114.609 29.606 114.287 29.83 113.886C30.0633 113.475 30.18 113.013 30.18 112.5C30.18 111.987 30.0633 111.525 29.83 111.114C29.606 110.703 29.298 110.381 28.906 110.148C28.514 109.905 28.0706 109.784 27.576 109.784C27.1373 109.784 26.7266 109.873 26.344 110.05C25.9706 110.218 25.6626 110.456 25.42 110.764V114.236C25.6626 114.535 25.9753 114.773 26.358 114.95C26.7406 115.118 27.1466 115.202 27.576 115.202ZM32.6418 118.856V108.986H33.6638V109.742C34.2704 109.163 35.0264 108.874 35.9318 108.874C36.5944 108.874 37.1918 109.037 37.7238 109.364C38.2558 109.681 38.6758 110.111 38.9838 110.652C39.3011 111.193 39.4598 111.805 39.4598 112.486C39.4598 113.167 39.3011 113.783 38.9838 114.334C38.6758 114.875 38.2558 115.309 37.7238 115.636C37.1918 115.953 36.5898 116.112 35.9178 116.112C35.5071 116.112 35.1104 116.042 34.7278 115.902C34.3451 115.762 33.9951 115.561 33.6778 115.3V118.856H32.6418ZM35.8338 115.202C36.3284 115.202 36.7718 115.085 37.1638 114.852C37.5558 114.609 37.8638 114.287 38.0878 113.886C38.3211 113.475 38.4378 113.013 38.4378 112.5C38.4378 111.987 38.3211 111.525 38.0878 111.114C37.8638 110.703 37.5558 110.381 37.1638 110.148C36.7718 109.905 36.3284 109.784 35.8338 109.784C35.3951 109.784 34.9844 109.873 34.6018 110.05C34.2284 110.218 33.9204 110.456 33.6778 110.764V114.236C33.9204 114.535 34.2331 114.773 34.6158 114.95C34.9984 115.118 35.4044 115.202 35.8338 115.202ZM40.8996 116V108.986H41.9356V116H40.8996ZM41.4176 107.642C41.2309 107.642 41.0676 107.572 40.9276 107.432C40.7876 107.292 40.7176 107.129 40.7176 106.942C40.7176 106.746 40.7876 106.583 40.9276 106.452C41.0676 106.312 41.2309 106.242 41.4176 106.242C41.6136 106.242 41.7769 106.312 41.9076 106.452C42.0476 106.583 42.1176 106.746 42.1176 106.942C42.1176 107.129 42.0476 107.292 41.9076 107.432C41.7769 107.572 41.6136 107.642 41.4176 107.642ZM43.7023 116V106.2L44.7383 105.962V116H43.7023ZM49.795 116.126C49.123 116.126 48.5117 115.967 47.961 115.65C47.4197 115.323 46.9857 114.885 46.659 114.334C46.3417 113.783 46.183 113.167 46.183 112.486C46.183 111.814 46.337 111.207 46.645 110.666C46.953 110.115 47.3684 109.681 47.891 109.364C48.4137 109.037 48.997 108.874 49.641 108.874C50.2664 108.874 50.8264 109.037 51.321 109.364C51.825 109.681 52.2217 110.115 52.511 110.666C52.8097 111.207 52.959 111.814 52.959 112.486V112.808H47.205C47.261 113.265 47.4057 113.676 47.639 114.04C47.8817 114.404 48.1944 114.693 48.577 114.908C48.9597 115.113 49.3797 115.216 49.837 115.216C50.201 115.216 50.5557 115.16 50.901 115.048C51.2464 114.936 51.5357 114.777 51.769 114.572L52.413 115.258C52.021 115.547 51.6104 115.767 51.181 115.916C50.761 116.056 50.299 116.126 49.795 116.126ZM47.233 111.982H51.923C51.867 111.562 51.727 111.189 51.503 110.862C51.2884 110.526 51.0177 110.265 50.691 110.078C50.3644 109.882 50.005 109.784 49.613 109.784C49.2117 109.784 48.843 109.877 48.507 110.064C48.171 110.251 47.891 110.512 47.667 110.848C47.443 111.175 47.2984 111.553 47.233 111.982ZM57.6134 116.112C56.9601 116.112 56.3627 115.953 55.8214 115.636C55.2894 115.309 54.8647 114.875 54.5474 114.334C54.2394 113.783 54.0854 113.167 54.0854 112.486C54.0854 111.805 54.2394 111.193 54.5474 110.652C54.8647 110.111 55.2894 109.681 55.8214 109.364C56.3627 109.037 56.9647 108.874 57.6274 108.874C58.0381 108.874 58.4347 108.944 58.8174 109.084C59.2001 109.215 59.5501 109.411 59.8674 109.672V106.2L60.9034 105.962V116H59.8814V115.258C59.2654 115.827 58.5094 116.112 57.6134 116.112ZM57.7114 115.202C58.1501 115.202 58.5561 115.118 58.9294 114.95C59.3121 114.773 59.6247 114.53 59.8674 114.222V110.75C59.6247 110.451 59.3121 110.218 58.9294 110.05C58.5561 109.873 58.1501 109.784 57.7114 109.784C57.2261 109.784 56.7827 109.901 56.3814 110.134C55.9894 110.367 55.6767 110.689 55.4434 111.1C55.2194 111.501 55.1074 111.959 55.1074 112.472C55.1074 112.985 55.2194 113.447 55.4434 113.858C55.6767 114.269 55.9894 114.595 56.3814 114.838C56.7827 115.081 57.2261 115.202 57.7114 115.202ZM62.3992 117.918L63.2112 114.964H64.3312L63.2112 117.918H62.3992ZM69.173 116V106.2L70.209 105.962V109.728C70.8063 109.159 71.5577 108.874 72.463 108.874C73.1257 108.874 73.723 109.037 74.255 109.364C74.787 109.681 75.207 110.111 75.515 110.652C75.8323 111.193 75.991 111.805 75.991 112.486C75.991 113.167 75.8323 113.783 75.515 114.334C75.207 114.875 74.787 115.309 74.255 115.636C73.723 115.953 73.121 116.112 72.449 116.112C72.0383 116.112 71.637 116.042 71.245 115.902C70.8623 115.762 70.5123 115.561 70.195 115.3V116H69.173ZM72.365 115.202C72.8597 115.202 73.303 115.085 73.695 114.852C74.087 114.609 74.395 114.287 74.619 113.886C74.8523 113.475 74.969 113.013 74.969 112.5C74.969 111.987 74.8523 111.525 74.619 111.114C74.395 110.703 74.087 110.381 73.695 110.148C73.303 109.905 72.8597 109.784 72.365 109.784C71.9263 109.784 71.5157 109.873 71.133 110.05C70.7597 110.218 70.4517 110.456 70.209 110.764V114.236C70.4517 114.535 70.7643 114.773 71.147 114.95C71.5297 115.118 71.9357 115.202 72.365 115.202ZM80.1188 116.14C79.5868 116.14 79.1155 116.028 78.7048 115.804C78.2942 115.571 77.9722 115.253 77.7388 114.852C77.5148 114.441 77.4028 113.965 77.4028 113.424V108.986H78.4248V113.214C78.4248 113.839 78.6022 114.334 78.9568 114.698C79.3115 115.053 79.7875 115.23 80.3848 115.23C80.8048 115.23 81.1782 115.137 81.5048 114.95C81.8408 114.754 82.1115 114.483 82.3168 114.138V108.986H83.3528V116H82.3168V115.188C81.7662 115.823 81.0335 116.14 80.1188 116.14ZM87.8724 116.14C87.2658 116.14 86.7991 115.995 86.4724 115.706C86.1458 115.417 85.9824 114.997 85.9824 114.446V109.868H84.4704V108.986H85.9824V107.208L87.0044 106.942V108.986H89.1184V109.868H87.0044V114.18C87.0044 114.553 87.0884 114.824 87.2564 114.992C87.4244 115.151 87.6998 115.23 88.0824 115.23C88.2784 115.23 88.4511 115.216 88.6004 115.188C88.7591 115.16 88.9271 115.113 89.1044 115.048V115.958C88.9271 116.023 88.7264 116.07 88.5024 116.098C88.2878 116.126 88.0778 116.14 87.8724 116.14ZM94.2435 116V109.868H92.5915V108.986H94.2435V107.656C94.2435 106.965 94.4302 106.438 94.8035 106.074C95.1768 105.71 95.7135 105.528 96.4135 105.528C96.6002 105.528 96.7682 105.537 96.9175 105.556C97.0668 105.575 97.2115 105.607 97.3515 105.654V106.578C97.1928 106.531 97.0482 106.499 96.9175 106.48C96.7868 106.452 96.6422 106.438 96.4835 106.438C96.0728 106.438 95.7648 106.541 95.5595 106.746C95.3635 106.942 95.2655 107.255 95.2655 107.684V108.986H97.3515V109.868H95.2655V116H94.2435ZM98.4718 116V108.986H99.5078V109.98C99.7225 109.616 99.9932 109.336 100.32 109.14C100.656 108.935 101.039 108.832 101.468 108.832C101.711 108.832 101.93 108.865 102.126 108.93V109.882C102.005 109.835 101.883 109.803 101.762 109.784C101.641 109.765 101.519 109.756 101.398 109.756C100.969 109.756 100.591 109.882 100.264 110.134C99.9465 110.377 99.6945 110.731 99.5078 111.198V116H98.4718ZM106.082 116.14C105.419 116.14 104.812 115.981 104.262 115.664C103.72 115.337 103.291 114.899 102.974 114.348C102.656 113.797 102.498 113.181 102.498 112.5C102.498 111.819 102.656 111.203 102.974 110.652C103.291 110.101 103.72 109.667 104.262 109.35C104.812 109.023 105.419 108.86 106.082 108.86C106.754 108.86 107.36 109.023 107.902 109.35C108.443 109.667 108.872 110.101 109.19 110.652C109.507 111.203 109.666 111.819 109.666 112.5C109.666 113.181 109.507 113.797 109.19 114.348C108.872 114.899 108.443 115.337 107.902 115.664C107.36 115.981 106.754 116.14 106.082 116.14ZM106.082 115.216C106.558 115.216 106.987 115.095 107.37 114.852C107.762 114.609 108.07 114.283 108.294 113.872C108.527 113.461 108.644 113.004 108.644 112.5C108.644 111.987 108.527 111.529 108.294 111.128C108.07 110.717 107.762 110.391 107.37 110.148C106.987 109.905 106.558 109.784 106.082 109.784C105.606 109.784 105.172 109.905 104.78 110.148C104.397 110.391 104.089 110.717 103.856 111.128C103.632 111.529 103.52 111.987 103.52 112.5C103.52 113.004 103.632 113.461 103.856 113.872C104.089 114.283 104.397 114.609 104.78 114.852C105.172 115.095 105.606 115.216 106.082 115.216ZM111.105 116V108.986H112.141V109.756C112.673 109.149 113.359 108.846 114.199 108.846C114.693 108.846 115.132 108.963 115.515 109.196C115.897 109.42 116.196 109.728 116.411 110.12C116.7 109.691 117.045 109.373 117.447 109.168C117.848 108.953 118.305 108.846 118.819 108.846C119.332 108.846 119.78 108.963 120.163 109.196C120.545 109.42 120.844 109.737 121.059 110.148C121.283 110.549 121.395 111.021 121.395 111.562V116H120.373V111.772C120.373 111.147 120.209 110.657 119.883 110.302C119.556 109.938 119.113 109.756 118.553 109.756C118.17 109.756 117.82 109.854 117.503 110.05C117.185 110.237 116.915 110.521 116.691 110.904C116.709 111.007 116.723 111.114 116.733 111.226C116.751 111.329 116.761 111.441 116.761 111.562V116H115.739V111.772C115.739 111.147 115.575 110.657 115.249 110.302C114.922 109.938 114.483 109.756 113.933 109.756C113.559 109.756 113.219 109.845 112.911 110.022C112.612 110.19 112.355 110.442 112.141 110.778V116H111.105ZM128.356 116.126C127.842 116.126 127.39 116.037 126.998 115.86C126.615 115.683 126.312 115.435 126.088 115.118C125.873 114.801 125.766 114.432 125.766 114.012C125.766 113.349 126.018 112.827 126.522 112.444C127.026 112.061 127.707 111.87 128.566 111.87C129.322 111.87 130.008 112.029 130.624 112.346V111.422C130.624 110.862 130.465 110.442 130.148 110.162C129.83 109.873 129.368 109.728 128.762 109.728C128.416 109.728 128.066 109.779 127.712 109.882C127.366 109.975 126.984 110.129 126.564 110.344L126.172 109.546C126.676 109.303 127.142 109.126 127.572 109.014C128.001 108.902 128.43 108.846 128.86 108.846C129.746 108.846 130.428 109.056 130.904 109.476C131.389 109.896 131.632 110.498 131.632 111.282V116H130.624V115.314C130.306 115.585 129.956 115.79 129.574 115.93C129.2 116.061 128.794 116.126 128.356 116.126ZM126.76 113.984C126.76 114.376 126.923 114.698 127.25 114.95C127.586 115.193 128.015 115.314 128.538 115.314C128.958 115.314 129.34 115.249 129.686 115.118C130.031 114.987 130.344 114.782 130.624 114.502V113.186C130.334 112.99 130.026 112.85 129.7 112.766C129.373 112.673 129.004 112.626 128.594 112.626C128.034 112.626 127.586 112.752 127.25 113.004C126.923 113.247 126.76 113.573 126.76 113.984ZM136.37 116V106.2L137.406 105.962V116H136.37ZM142.435 116.14C141.772 116.14 141.166 115.981 140.615 115.664C140.074 115.337 139.644 114.899 139.327 114.348C139.01 113.797 138.851 113.181 138.851 112.5C138.851 111.819 139.01 111.203 139.327 110.652C139.644 110.101 140.074 109.667 140.615 109.35C141.166 109.023 141.772 108.86 142.435 108.86C143.107 108.86 143.714 109.023 144.255 109.35C144.796 109.667 145.226 110.101 145.543 110.652C145.86 111.203 146.019 111.819 146.019 112.5C146.019 113.181 145.86 113.797 145.543 114.348C145.226 114.899 144.796 115.337 144.255 115.664C143.714 115.981 143.107 116.14 142.435 116.14ZM142.435 115.216C142.911 115.216 143.34 115.095 143.723 114.852C144.115 114.609 144.423 114.283 144.647 113.872C144.88 113.461 144.997 113.004 144.997 112.5C144.997 111.987 144.88 111.529 144.647 111.128C144.423 110.717 144.115 110.391 143.723 110.148C143.34 109.905 142.911 109.784 142.435 109.784C141.959 109.784 141.525 109.905 141.133 110.148C140.75 110.391 140.442 110.717 140.209 111.128C139.985 111.529 139.873 111.987 139.873 112.5C139.873 113.004 139.985 113.461 140.209 113.872C140.442 114.283 140.75 114.609 141.133 114.852C141.525 115.095 141.959 115.216 142.435 115.216ZM147.458 116V108.986H148.494V109.812C149.045 109.168 149.782 108.846 150.706 108.846C151.238 108.846 151.705 108.963 152.106 109.196C152.517 109.42 152.834 109.737 153.058 110.148C153.292 110.549 153.408 111.021 153.408 111.562V116H152.386V111.772C152.386 111.147 152.209 110.657 151.854 110.302C151.509 109.938 151.033 109.756 150.426 109.756C150.006 109.756 149.633 109.849 149.306 110.036C148.98 110.223 148.709 110.489 148.494 110.834V116H147.458ZM158.558 118.996C158.072 118.996 157.592 118.931 157.116 118.8C156.64 118.679 156.206 118.501 155.814 118.268L156.262 117.456C156.682 117.68 157.069 117.843 157.424 117.946C157.788 118.049 158.152 118.1 158.516 118.1C159.178 118.1 159.682 117.941 160.028 117.624C160.373 117.307 160.546 116.84 160.546 116.224V115.244C159.902 115.785 159.16 116.056 158.32 116.056C157.676 116.056 157.088 115.897 156.556 115.58C156.024 115.263 155.599 114.833 155.282 114.292C154.974 113.741 154.82 113.13 154.82 112.458C154.82 111.786 154.974 111.179 155.282 110.638C155.599 110.087 156.024 109.653 156.556 109.336C157.088 109.019 157.685 108.86 158.348 108.86C158.749 108.86 159.136 108.93 159.51 109.07C159.892 109.21 160.242 109.415 160.56 109.686V108.986H161.582V116.21C161.582 117.106 161.32 117.792 160.798 118.268C160.275 118.753 159.528 118.996 158.558 118.996ZM158.404 115.146C158.852 115.146 159.262 115.062 159.636 114.894C160.009 114.726 160.312 114.488 160.546 114.18V110.736C160.312 110.437 160.004 110.204 159.622 110.036C159.248 109.868 158.842 109.784 158.404 109.784C157.918 109.784 157.48 109.901 157.088 110.134C156.705 110.367 156.402 110.689 156.178 111.1C155.954 111.501 155.842 111.954 155.842 112.458C155.842 112.962 155.954 113.419 156.178 113.83C156.411 114.231 156.719 114.553 157.102 114.796C157.494 115.029 157.928 115.146 158.404 115.146ZM171.813 118.856V115.272C171.197 115.832 170.445 116.112 169.559 116.112C168.905 116.112 168.308 115.953 167.767 115.636C167.235 115.309 166.81 114.875 166.493 114.334C166.185 113.783 166.031 113.167 166.031 112.486C166.031 111.805 166.185 111.193 166.493 110.652C166.81 110.111 167.235 109.681 167.767 109.364C168.308 109.037 168.91 108.874 169.573 108.874C169.993 108.874 170.394 108.944 170.777 109.084C171.169 109.224 171.519 109.42 171.827 109.672V108.986H172.849V118.856H171.813ZM169.657 115.202C170.095 115.202 170.501 115.118 170.875 114.95C171.257 114.773 171.57 114.53 171.813 114.222V110.75C171.57 110.451 171.257 110.218 170.875 110.05C170.501 109.873 170.095 109.784 169.657 109.784C169.171 109.784 168.728 109.901 168.327 110.134C167.935 110.367 167.622 110.689 167.389 111.1C167.165 111.501 167.053 111.959 167.053 112.472C167.053 112.985 167.165 113.447 167.389 113.858C167.622 114.269 167.935 114.595 168.327 114.838C168.728 115.081 169.171 115.202 169.657 115.202ZM177.299 116.14C176.767 116.14 176.295 116.028 175.885 115.804C175.474 115.571 175.152 115.253 174.919 114.852C174.695 114.441 174.583 113.965 174.583 113.424V108.986H175.605V113.214C175.605 113.839 175.782 114.334 176.137 114.698C176.491 115.053 176.967 115.23 177.565 115.23C177.985 115.23 178.358 115.137 178.685 114.95C179.021 114.754 179.291 114.483 179.497 114.138V108.986H180.533V116H179.497V115.188C178.946 115.823 178.213 116.14 177.299 116.14ZM185.584 116.126C184.912 116.126 184.301 115.967 183.75 115.65C183.209 115.323 182.775 114.885 182.448 114.334C182.131 113.783 181.972 113.167 181.972 112.486C181.972 111.814 182.126 111.207 182.434 110.666C182.742 110.115 183.157 109.681 183.68 109.364C184.203 109.037 184.786 108.874 185.43 108.874C186.055 108.874 186.615 109.037 187.11 109.364C187.614 109.681 188.011 110.115 188.3 110.666C188.599 111.207 188.748 111.814 188.748 112.486V112.808H182.994C183.05 113.265 183.195 113.676 183.428 114.04C183.671 114.404 183.983 114.693 184.366 114.908C184.749 115.113 185.169 115.216 185.626 115.216C185.99 115.216 186.345 115.16 186.69 115.048C187.035 114.936 187.325 114.777 187.558 114.572L188.202 115.258C187.81 115.547 187.399 115.767 186.97 115.916C186.55 116.056 186.088 116.126 185.584 116.126ZM183.022 111.982H187.712C187.656 111.562 187.516 111.189 187.292 110.862C187.077 110.526 186.807 110.265 186.48 110.078C186.153 109.882 185.794 109.784 185.402 109.784C185.001 109.784 184.632 109.877 184.296 110.064C183.96 110.251 183.68 110.512 183.456 110.848C183.232 111.175 183.087 111.553 183.022 111.982ZM192.884 116.14C192.352 116.14 191.881 116.028 191.47 115.804C191.06 115.571 190.738 115.253 190.504 114.852C190.28 114.441 190.168 113.965 190.168 113.424V108.986H191.19V113.214C191.19 113.839 191.368 114.334 191.722 114.698C192.077 115.053 192.553 115.23 193.15 115.23C193.57 115.23 193.944 115.137 194.27 114.95C194.606 114.754 194.877 114.483 195.082 114.138V108.986H196.118V116H195.082V115.188C194.532 115.823 193.799 116.14 192.884 116.14ZM201.17 116.126C200.498 116.126 199.887 115.967 199.336 115.65C198.795 115.323 198.361 114.885 198.034 114.334C197.717 113.783 197.558 113.167 197.558 112.486C197.558 111.814 197.712 111.207 198.02 110.666C198.328 110.115 198.743 109.681 199.266 109.364C199.789 109.037 200.372 108.874 201.016 108.874C201.641 108.874 202.201 109.037 202.696 109.364C203.2 109.681 203.597 110.115 203.886 110.666C204.185 111.207 204.334 111.814 204.334 112.486V112.808H198.58C198.636 113.265 198.781 113.676 199.014 114.04C199.257 114.404 199.569 114.693 199.952 114.908C200.335 115.113 200.755 115.216 201.212 115.216C201.576 115.216 201.931 115.16 202.276 115.048C202.621 114.936 202.911 114.777 203.144 114.572L203.788 115.258C203.396 115.547 202.985 115.767 202.556 115.916C202.136 116.056 201.674 116.126 201.17 116.126ZM198.608 111.982H203.298C203.242 111.562 203.102 111.189 202.878 110.862C202.663 110.526 202.393 110.265 202.066 110.078C201.739 109.882 201.38 109.784 200.988 109.784C200.587 109.784 200.218 109.877 199.882 110.064C199.546 110.251 199.266 110.512 199.042 110.848C198.818 111.175 198.673 111.553 198.608 111.982ZM205.093 117.918L205.905 114.964H207.025L205.905 117.918H205.093ZM16.17 135L14.196 127.986H15.218L16.73 133.586L18.48 127.986H19.404L21.14 133.586L22.666 127.986H23.646L21.658 135H20.664L18.928 129.386L17.178 135H16.17ZM26.8694 135.126C26.3561 135.126 25.9034 135.037 25.5114 134.86C25.1287 134.683 24.8254 134.435 24.6014 134.118C24.3867 133.801 24.2794 133.432 24.2794 133.012C24.2794 132.349 24.5314 131.827 25.0354 131.444C25.5394 131.061 26.2207 130.87 27.0794 130.87C27.8354 130.87 28.5214 131.029 29.1374 131.346V130.422C29.1374 129.862 28.9787 129.442 28.6614 129.162C28.3441 128.873 27.8821 128.728 27.2754 128.728C26.9301 128.728 26.5801 128.779 26.2254 128.882C25.8801 128.975 25.4974 129.129 25.0774 129.344L24.6854 128.546C25.1894 128.303 25.6561 128.126 26.0854 128.014C26.5147 127.902 26.9441 127.846 27.3734 127.846C28.2601 127.846 28.9414 128.056 29.4174 128.476C29.9027 128.896 30.1454 129.498 30.1454 130.282V135H29.1374V134.314C28.8201 134.585 28.4701 134.79 28.0874 134.93C27.7141 135.061 27.3081 135.126 26.8694 135.126ZM25.2734 132.984C25.2734 133.376 25.4367 133.698 25.7634 133.95C26.0994 134.193 26.5287 134.314 27.0514 134.314C27.4714 134.314 27.8541 134.249 28.1994 134.118C28.5447 133.987 28.8574 133.782 29.1374 133.502V132.186C28.8481 131.99 28.5401 131.85 28.2134 131.766C27.8867 131.673 27.5181 131.626 27.1074 131.626C26.5474 131.626 26.0994 131.752 25.7634 132.004C25.4367 132.247 25.2734 132.573 25.2734 132.984ZM31.8761 135V127.986H32.9121V135H31.8761ZM32.3941 126.642C32.2075 126.642 32.0441 126.572 31.9041 126.432C31.7641 126.292 31.6941 126.129 31.6941 125.942C31.6941 125.746 31.7641 125.583 31.9041 125.452C32.0441 125.312 32.2075 125.242 32.3941 125.242C32.5901 125.242 32.7535 125.312 32.8841 125.452C33.0241 125.583 33.0941 125.746 33.0941 125.942C33.0941 126.129 33.0241 126.292 32.8841 126.432C32.7535 126.572 32.5901 126.642 32.3941 126.642ZM37.4369 135.14C36.8302 135.14 36.3635 134.995 36.0369 134.706C35.7102 134.417 35.5469 133.997 35.5469 133.446V128.868H34.0349V127.986H35.5469V126.208L36.5689 125.942V127.986H38.6829V128.868H36.5689V133.18C36.5689 133.553 36.6529 133.824 36.8209 133.992C36.9889 134.151 37.2642 134.23 37.6469 134.23C37.8429 134.23 38.0155 134.216 38.1649 134.188C38.3235 134.16 38.4915 134.113 38.6689 134.048V134.958C38.4915 135.023 38.2909 135.07 38.0669 135.098C37.8522 135.126 37.6422 135.14 37.4369 135.14ZM42.9454 135.126C42.2734 135.126 41.6621 134.967 41.1114 134.65C40.5701 134.323 40.1361 133.885 39.8094 133.334C39.4921 132.783 39.3334 132.167 39.3334 131.486C39.3334 130.814 39.4874 130.207 39.7954 129.666C40.1034 129.115 40.5188 128.681 41.0414 128.364C41.5641 128.037 42.1474 127.874 42.7914 127.874C43.4168 127.874 43.9768 128.037 44.4714 128.364C44.9754 128.681 45.3721 129.115 45.6614 129.666C45.9601 130.207 46.1094 130.814 46.1094 131.486V131.808H40.3554C40.4114 132.265 40.5561 132.676 40.7894 133.04C41.0321 133.404 41.3448 133.693 41.7274 133.908C42.1101 134.113 42.5301 134.216 42.9874 134.216C43.3514 134.216 43.7061 134.16 44.0514 134.048C44.3968 133.936 44.6861 133.777 44.9194 133.572L45.5634 134.258C45.1714 134.547 44.7608 134.767 44.3314 134.916C43.9114 135.056 43.4494 135.126 42.9454 135.126ZM40.3834 130.982H45.0734C45.0174 130.562 44.8774 130.189 44.6534 129.862C44.4388 129.526 44.1681 129.265 43.8414 129.078C43.5148 128.882 43.1554 128.784 42.7634 128.784C42.3621 128.784 41.9934 128.877 41.6574 129.064C41.3214 129.251 41.0414 129.512 40.8174 129.848C40.5934 130.175 40.4488 130.553 40.3834 130.982ZM50.7638 135.112C50.1104 135.112 49.5131 134.953 48.9718 134.636C48.4398 134.309 48.0151 133.875 47.6978 133.334C47.3898 132.783 47.2358 132.167 47.2358 131.486C47.2358 130.805 47.3898 130.193 47.6978 129.652C48.0151 129.111 48.4398 128.681 48.9718 128.364C49.5131 128.037 50.1151 127.874 50.7778 127.874C51.1884 127.874 51.5851 127.944 51.9678 128.084C52.3504 128.215 52.7004 128.411 53.0178 128.672V125.2L54.0538 124.962V135H53.0318V134.258C52.4158 134.827 51.6598 135.112 50.7638 135.112ZM50.8618 134.202C51.3004 134.202 51.7064 134.118 52.0798 133.95C52.4624 133.773 52.7751 133.53 53.0178 133.222V129.75C52.7751 129.451 52.4624 129.218 52.0798 129.05C51.7064 128.873 51.3004 128.784 50.8618 128.784C50.3764 128.784 49.9331 128.901 49.5318 129.134C49.1398 129.367 48.8271 129.689 48.5938 130.1C48.3698 130.501 48.2578 130.959 48.2578 131.472C48.2578 131.985 48.3698 132.447 48.5938 132.858C48.8271 133.269 49.1398 133.595 49.5318 133.838C49.9331 134.081 50.3764 134.202 50.8618 134.202ZM61.0354 135.126C60.5221 135.126 60.0694 135.037 59.6774 134.86C59.2947 134.683 58.9914 134.435 58.7674 134.118C58.5527 133.801 58.4454 133.432 58.4454 133.012C58.4454 132.349 58.6974 131.827 59.2014 131.444C59.7054 131.061 60.3867 130.87 61.2454 130.87C62.0014 130.87 62.6874 131.029 63.3034 131.346V130.422C63.3034 129.862 63.1447 129.442 62.8274 129.162C62.5101 128.873 62.0481 128.728 61.4414 128.728C61.0961 128.728 60.7461 128.779 60.3914 128.882C60.0461 128.975 59.6634 129.129 59.2434 129.344L58.8514 128.546C59.3554 128.303 59.8221 128.126 60.2514 128.014C60.6807 127.902 61.1101 127.846 61.5394 127.846C62.4261 127.846 63.1074 128.056 63.5834 128.476C64.0687 128.896 64.3114 129.498 64.3114 130.282V135H63.3034V134.314C62.9861 134.585 62.6361 134.79 62.2534 134.93C61.8801 135.061 61.4741 135.126 61.0354 135.126ZM59.4394 132.984C59.4394 133.376 59.6027 133.698 59.9294 133.95C60.2654 134.193 60.6947 134.314 61.2174 134.314C61.6374 134.314 62.0201 134.249 62.3654 134.118C62.7107 133.987 63.0234 133.782 63.3034 133.502V132.186C63.0141 131.99 62.7061 131.85 62.3794 131.766C62.0527 131.673 61.6841 131.626 61.2734 131.626C60.7134 131.626 60.2654 131.752 59.9294 132.004C59.6027 132.247 59.4394 132.573 59.4394 132.984ZM69.05 135V125.2L70.086 124.962V135H69.05ZM75.1147 135.14C74.452 135.14 73.8454 134.981 73.2947 134.664C72.7534 134.337 72.324 133.899 72.0067 133.348C71.6894 132.797 71.5307 132.181 71.5307 131.5C71.5307 130.819 71.6894 130.203 72.0067 129.652C72.324 129.101 72.7534 128.667 73.2947 128.35C73.8454 128.023 74.452 127.86 75.1147 127.86C75.7867 127.86 76.3934 128.023 76.9347 128.35C77.476 128.667 77.9054 129.101 78.2227 129.652C78.54 130.203 78.6987 130.819 78.6987 131.5C78.6987 132.181 78.54 132.797 78.2227 133.348C77.9054 133.899 77.476 134.337 76.9347 134.664C76.3934 134.981 75.7867 135.14 75.1147 135.14ZM75.1147 134.216C75.5907 134.216 76.02 134.095 76.4027 133.852C76.7947 133.609 77.1027 133.283 77.3267 132.872C77.56 132.461 77.6767 132.004 77.6767 131.5C77.6767 130.987 77.56 130.529 77.3267 130.128C77.1027 129.717 76.7947 129.391 76.4027 129.148C76.02 128.905 75.5907 128.784 75.1147 128.784C74.6387 128.784 74.2047 128.905 73.8127 129.148C73.43 129.391 73.122 129.717 72.8887 130.128C72.6647 130.529 72.5527 130.987 72.5527 131.5C72.5527 132.004 72.6647 132.461 72.8887 132.872C73.122 133.283 73.43 133.609 73.8127 133.852C74.2047 134.095 74.6387 134.216 75.1147 134.216ZM80.1379 135V127.986H81.1739V128.812C81.7245 128.168 82.4619 127.846 83.3859 127.846C83.9179 127.846 84.3845 127.963 84.7859 128.196C85.1965 128.42 85.5139 128.737 85.7379 129.148C85.9712 129.549 86.0879 130.021 86.0879 130.562V135H85.0659V130.772C85.0659 130.147 84.8885 129.657 84.5339 129.302C84.1885 128.938 83.7125 128.756 83.1059 128.756C82.6859 128.756 82.3125 128.849 81.9859 129.036C81.6592 129.223 81.3885 129.489 81.1739 129.834V135H80.1379ZM91.2375 137.996C90.7521 137.996 90.2715 137.931 89.7955 137.8C89.3195 137.679 88.8855 137.501 88.4935 137.268L88.9415 136.456C89.3615 136.68 89.7488 136.843 90.1035 136.946C90.4675 137.049 90.8315 137.1 91.1955 137.1C91.8581 137.1 92.3621 136.941 92.7075 136.624C93.0528 136.307 93.2255 135.84 93.2255 135.224V134.244C92.5815 134.785 91.8395 135.056 90.9995 135.056C90.3555 135.056 89.7675 134.897 89.2355 134.58C88.7035 134.263 88.2788 133.833 87.9615 133.292C87.6535 132.741 87.4995 132.13 87.4995 131.458C87.4995 130.786 87.6535 130.179 87.9615 129.638C88.2788 129.087 88.7035 128.653 89.2355 128.336C89.7675 128.019 90.3648 127.86 91.0275 127.86C91.4288 127.86 91.8161 127.93 92.1895 128.07C92.5721 128.21 92.9221 128.415 93.2395 128.686V127.986H94.2615V135.21C94.2615 136.106 94.0001 136.792 93.4775 137.268C92.9548 137.753 92.2081 137.996 91.2375 137.996ZM91.0835 134.146C91.5315 134.146 91.9421 134.062 92.3155 133.894C92.6888 133.726 92.9921 133.488 93.2255 133.18V129.736C92.9921 129.437 92.6841 129.204 92.3015 129.036C91.9281 128.868 91.5221 128.784 91.0835 128.784C90.5981 128.784 90.1595 128.901 89.7675 129.134C89.3848 129.367 89.0815 129.689 88.8575 130.1C88.6335 130.501 88.5215 130.954 88.5215 131.458C88.5215 131.962 88.6335 132.419 88.8575 132.83C89.0908 133.231 89.3988 133.553 89.7815 133.796C90.1735 134.029 90.6075 134.146 91.0835 134.146ZM101.79 135.14C101.184 135.14 100.717 134.995 100.39 134.706C100.064 134.417 99.9004 133.997 99.9004 133.446V128.868H98.3884V127.986H99.9004V126.208L100.922 125.942V127.986H103.036V128.868H100.922V133.18C100.922 133.553 101.006 133.824 101.174 133.992C101.342 134.151 101.618 134.23 102 134.23C102.196 134.23 102.369 134.216 102.518 134.188C102.677 134.16 102.845 134.113 103.022 134.048V134.958C102.845 135.023 102.644 135.07 102.42 135.098C102.206 135.126 101.996 135.14 101.79 135.14ZM104.146 135V127.986H105.182V135H104.146ZM104.664 126.642C104.477 126.642 104.314 126.572 104.174 126.432C104.034 126.292 103.964 126.129 103.964 125.942C103.964 125.746 104.034 125.583 104.174 125.452C104.314 125.312 104.477 125.242 104.664 125.242C104.86 125.242 105.023 125.312 105.154 125.452C105.294 125.583 105.364 125.746 105.364 125.942C105.364 126.129 105.294 126.292 105.154 126.432C105.023 126.572 104.86 126.642 104.664 126.642ZM106.948 135V127.986H107.984V128.756C108.516 128.149 109.202 127.846 110.042 127.846C110.537 127.846 110.976 127.963 111.358 128.196C111.741 128.42 112.04 128.728 112.254 129.12C112.544 128.691 112.889 128.373 113.29 128.168C113.692 127.953 114.149 127.846 114.662 127.846C115.176 127.846 115.624 127.963 116.006 128.196C116.389 128.42 116.688 128.737 116.902 129.148C117.126 129.549 117.238 130.021 117.238 130.562V135H116.216V130.772C116.216 130.147 116.053 129.657 115.726 129.302C115.4 128.938 114.956 128.756 114.396 128.756C114.014 128.756 113.664 128.854 113.346 129.05C113.029 129.237 112.758 129.521 112.534 129.904C112.553 130.007 112.567 130.114 112.576 130.226C112.595 130.329 112.604 130.441 112.604 130.562V135H111.582V130.772C111.582 130.147 111.419 129.657 111.092 129.302C110.766 128.938 110.327 128.756 109.776 128.756C109.403 128.756 109.062 128.845 108.754 129.022C108.456 129.19 108.199 129.442 107.984 129.778V135H106.948ZM122.27 135.126C121.598 135.126 120.986 134.967 120.436 134.65C119.894 134.323 119.46 133.885 119.134 133.334C118.816 132.783 118.658 132.167 118.658 131.486C118.658 130.814 118.812 130.207 119.12 129.666C119.428 129.115 119.843 128.681 120.366 128.364C120.888 128.037 121.472 127.874 122.116 127.874C122.741 127.874 123.301 128.037 123.796 128.364C124.3 128.681 124.696 129.115 124.986 129.666C125.284 130.207 125.434 130.814 125.434 131.486V131.808H119.68C119.736 132.265 119.88 132.676 120.114 133.04C120.356 133.404 120.669 133.693 121.052 133.908C121.434 134.113 121.854 134.216 122.312 134.216C122.676 134.216 123.03 134.16 123.376 134.048C123.721 133.936 124.01 133.777 124.244 133.572L124.888 134.258C124.496 134.547 124.085 134.767 123.656 134.916C123.236 135.056 122.774 135.126 122.27 135.126ZM119.708 130.982H124.398C124.342 130.562 124.202 130.189 123.978 129.862C123.763 129.526 123.492 129.265 123.166 129.078C122.839 128.882 122.48 128.784 122.088 128.784C121.686 128.784 121.318 128.877 120.982 129.064C120.646 129.251 120.366 129.512 120.142 129.848C119.918 130.175 119.773 130.553 119.708 130.982Z" fill="black"/>
<path d="M18.5597 185.14C17.785 185.14 17.043 184.986 16.3337 184.678C15.6244 184.361 14.999 183.908 14.4577 183.32L15.1717 182.578C15.6757 183.119 16.2124 183.525 16.7817 183.796C17.3604 184.067 17.967 184.202 18.6017 184.202C19.115 184.202 19.5677 184.123 19.9597 183.964C20.361 183.796 20.6737 183.567 20.8977 183.278C21.1217 182.979 21.2337 182.643 21.2337 182.27C21.2337 181.766 21.0564 181.379 20.7017 181.108C20.3564 180.837 19.7824 180.637 18.9797 180.506L17.5657 180.282C16.623 180.123 15.9277 179.843 15.4797 179.442C15.0317 179.041 14.8077 178.495 14.8077 177.804C14.8077 177.263 14.9524 176.787 15.2417 176.376C15.531 175.965 15.9324 175.648 16.4457 175.424C16.9684 175.191 17.5704 175.074 18.2517 175.074C18.9424 175.074 19.619 175.186 20.2817 175.41C20.9537 175.634 21.565 175.956 22.1157 176.376L21.4997 177.216C20.4264 176.404 19.3297 175.998 18.2097 175.998C17.743 175.998 17.3324 176.073 16.9777 176.222C16.623 176.362 16.3477 176.563 16.1517 176.824C15.9557 177.076 15.8577 177.375 15.8577 177.72C15.8577 178.177 16.0117 178.527 16.3197 178.77C16.6277 179.013 17.1364 179.19 17.8457 179.302L19.2457 179.526C20.319 179.703 21.0984 180.007 21.5837 180.436C22.069 180.856 22.3117 181.449 22.3117 182.214C22.3117 182.783 22.153 183.292 21.8357 183.74C21.5184 184.179 21.075 184.524 20.5057 184.776C19.9457 185.019 19.297 185.14 18.5597 185.14ZM25.9973 185.126C25.484 185.126 25.0313 185.037 24.6393 184.86C24.2567 184.683 23.9533 184.435 23.7293 184.118C23.5147 183.801 23.4073 183.432 23.4073 183.012C23.4073 182.349 23.6593 181.827 24.1633 181.444C24.6673 181.061 25.3487 180.87 26.2073 180.87C26.9633 180.87 27.6493 181.029 28.2653 181.346V180.422C28.2653 179.862 28.1067 179.442 27.7893 179.162C27.472 178.873 27.01 178.728 26.4033 178.728C26.058 178.728 25.708 178.779 25.3533 178.882C25.008 178.975 24.6253 179.129 24.2053 179.344L23.8133 178.546C24.3173 178.303 24.784 178.126 25.2133 178.014C25.6427 177.902 26.072 177.846 26.5013 177.846C27.388 177.846 28.0693 178.056 28.5453 178.476C29.0307 178.896 29.2733 179.498 29.2733 180.282V185H28.2653V184.314C27.948 184.585 27.598 184.79 27.2153 184.93C26.842 185.061 26.436 185.126 25.9973 185.126ZM24.4013 182.984C24.4013 183.376 24.5647 183.698 24.8913 183.95C25.2273 184.193 25.6567 184.314 26.1793 184.314C26.5993 184.314 26.982 184.249 27.3273 184.118C27.6727 183.987 27.9853 183.782 28.2653 183.502V182.186C27.976 181.99 27.668 181.85 27.3413 181.766C27.0147 181.673 26.646 181.626 26.2353 181.626C25.6753 181.626 25.2273 181.752 24.8913 182.004C24.5647 182.247 24.4013 182.573 24.4013 182.984ZM31.0041 185V177.986H32.0401V178.812C32.5907 178.168 33.3281 177.846 34.2521 177.846C34.7841 177.846 35.2507 177.963 35.6521 178.196C36.0627 178.42 36.3801 178.737 36.6041 179.148C36.8374 179.549 36.9541 180.021 36.9541 180.562V185H35.9321V180.772C35.9321 180.147 35.7547 179.657 35.4001 179.302C35.0547 178.938 34.5787 178.756 33.9721 178.756C33.5521 178.756 33.1787 178.849 32.8521 179.036C32.5254 179.223 32.2547 179.489 32.0401 179.834V185H31.0041ZM41.8937 185.112C41.2403 185.112 40.643 184.953 40.1017 184.636C39.5697 184.309 39.145 183.875 38.8277 183.334C38.5197 182.783 38.3657 182.167 38.3657 181.486C38.3657 180.805 38.5197 180.193 38.8277 179.652C39.145 179.111 39.5697 178.681 40.1017 178.364C40.643 178.037 41.245 177.874 41.9077 177.874C42.3183 177.874 42.715 177.944 43.0977 178.084C43.4803 178.215 43.8303 178.411 44.1477 178.672V175.2L45.1837 174.962V185H44.1617V184.258C43.5457 184.827 42.7897 185.112 41.8937 185.112ZM41.9917 184.202C42.4303 184.202 42.8363 184.118 43.2097 183.95C43.5923 183.773 43.905 183.53 44.1477 183.222V179.75C43.905 179.451 43.5923 179.218 43.2097 179.05C42.8363 178.873 42.4303 178.784 41.9917 178.784C41.5063 178.784 41.063 178.901 40.6617 179.134C40.2697 179.367 39.957 179.689 39.7237 180.1C39.4997 180.501 39.3877 180.959 39.3877 181.472C39.3877 181.985 39.4997 182.447 39.7237 182.858C39.957 183.269 40.2697 183.595 40.6617 183.838C41.063 184.081 41.5063 184.202 41.9917 184.202ZM46.9455 185V177.986H47.9815V178.98C48.1961 178.616 48.4668 178.336 48.7935 178.14C49.1295 177.935 49.5121 177.832 49.9415 177.832C50.1841 177.832 50.4035 177.865 50.5995 177.93V178.882C50.4781 178.835 50.3568 178.803 50.2355 178.784C50.1141 178.765 49.9928 178.756 49.8715 178.756C49.4421 178.756 49.0641 178.882 48.7375 179.134C48.4201 179.377 48.1681 179.731 47.9815 180.198V185H46.9455ZM54.5551 185.14C53.8925 185.14 53.2858 184.981 52.7351 184.664C52.1938 184.337 51.7645 183.899 51.4471 183.348C51.1298 182.797 50.9711 182.181 50.9711 181.5C50.9711 180.819 51.1298 180.203 51.4471 179.652C51.7645 179.101 52.1938 178.667 52.7351 178.35C53.2858 178.023 53.8925 177.86 54.5551 177.86C55.2271 177.86 55.8338 178.023 56.3751 178.35C56.9165 178.667 57.3458 179.101 57.6631 179.652C57.9805 180.203 58.1391 180.819 58.1391 181.5C58.1391 182.181 57.9805 182.797 57.6631 183.348C57.3458 183.899 56.9165 184.337 56.3751 184.664C55.8338 184.981 55.2271 185.14 54.5551 185.14ZM54.5551 184.216C55.0311 184.216 55.4605 184.095 55.8431 183.852C56.2351 183.609 56.5431 183.283 56.7671 182.872C57.0005 182.461 57.1171 182.004 57.1171 181.5C57.1171 180.987 57.0005 180.529 56.7671 180.128C56.5431 179.717 56.2351 179.391 55.8431 179.148C55.4605 178.905 55.0311 178.784 54.5551 178.784C54.0791 178.784 53.6451 178.905 53.2531 179.148C52.8705 179.391 52.5625 179.717 52.3291 180.128C52.1051 180.529 51.9931 180.987 51.9931 181.5C51.9931 182.004 52.1051 182.461 52.3291 182.872C52.5625 183.283 52.8705 183.609 53.2531 183.852C53.6451 184.095 54.0791 184.216 54.5551 184.216Z" fill="#525263"/>
<path d="M219.202 28.154C217.914 28.154 216.804 27.7107 215.87 26.824L216.5 26.138C216.93 26.5393 217.354 26.8333 217.774 27.02C218.204 27.1973 218.684 27.286 219.216 27.286C219.692 27.286 220.112 27.188 220.476 26.992C220.84 26.796 221.12 26.5207 221.316 26.166C221.522 25.8113 221.624 25.4053 221.624 24.948C221.624 24.2947 221.4 23.7673 220.952 23.366C220.514 22.9647 219.935 22.764 219.216 22.764C218.843 22.764 218.479 22.8107 218.124 22.904C217.77 22.988 217.401 23.128 217.018 23.324L216.318 23.1L216.542 18.2H222.114V19.082H217.41L217.256 22.47C217.63 22.2833 217.989 22.1527 218.334 22.078C218.68 21.994 219.044 21.952 219.426 21.952C220.07 21.952 220.63 22.078 221.106 22.33C221.592 22.5727 221.965 22.918 222.226 23.366C222.497 23.8047 222.632 24.318 222.632 24.906C222.632 25.55 222.488 26.1147 222.198 26.6C221.909 27.0853 221.508 27.468 220.994 27.748C220.481 28.0187 219.884 28.154 219.202 28.154ZM227.171 28V18.2L228.207 17.962V21.812C228.758 21.168 229.495 20.846 230.419 20.846C230.951 20.846 231.418 20.9627 231.819 21.196C232.23 21.42 232.547 21.7373 232.771 22.148C233.004 22.5493 233.121 23.0207 233.121 23.562V28H232.099V23.772C232.099 23.1467 231.922 22.6567 231.567 22.302C231.222 21.938 230.746 21.756 230.139 21.756C229.719 21.756 229.346 21.8493 229.019 22.036C228.692 22.2227 228.422 22.4887 228.207 22.834V28H227.171ZM238.117 28.14C237.454 28.14 236.847 27.9813 236.297 27.664C235.755 27.3373 235.326 26.8987 235.009 26.348C234.691 25.7973 234.533 25.1813 234.533 24.5C234.533 23.8187 234.691 23.2027 235.009 22.652C235.326 22.1013 235.755 21.6673 236.297 21.35C236.847 21.0233 237.454 20.86 238.117 20.86C238.789 20.86 239.395 21.0233 239.937 21.35C240.478 21.6673 240.907 22.1013 241.225 22.652C241.542 23.2027 241.701 23.8187 241.701 24.5C241.701 25.1813 241.542 25.7973 241.225 26.348C240.907 26.8987 240.478 27.3373 239.937 27.664C239.395 27.9813 238.789 28.14 238.117 28.14ZM238.117 27.216C238.593 27.216 239.022 27.0947 239.405 26.852C239.797 26.6093 240.105 26.2827 240.329 25.872C240.562 25.4613 240.679 25.004 240.679 24.5C240.679 23.9867 240.562 23.5293 240.329 23.128C240.105 22.7173 239.797 22.3907 239.405 22.148C239.022 21.9053 238.593 21.784 238.117 21.784C237.641 21.784 237.207 21.9053 236.815 22.148C236.432 22.3907 236.124 22.7173 235.891 23.128C235.667 23.5293 235.555 23.9867 235.555 24.5C235.555 25.004 235.667 25.4613 235.891 25.872C236.124 26.2827 236.432 26.6093 236.815 26.852C237.207 27.0947 237.641 27.216 238.117 27.216ZM245.828 28.14C245.296 28.14 244.824 28.028 244.414 27.804C244.003 27.5707 243.681 27.2533 243.448 26.852C243.224 26.4413 243.112 25.9653 243.112 25.424V20.986H244.134V25.214C244.134 25.8393 244.311 26.334 244.666 26.698C245.02 27.0527 245.496 27.23 246.094 27.23C246.514 27.23 246.887 27.1367 247.214 26.95C247.55 26.754 247.82 26.4833 248.026 26.138V20.986H249.062V28H248.026V27.188C247.475 27.8227 246.742 28.14 245.828 28.14ZM250.823 28V20.986H251.859V21.98C252.074 21.616 252.345 21.336 252.671 21.14C253.007 20.9347 253.39 20.832 253.819 20.832C254.062 20.832 254.281 20.8647 254.477 20.93V21.882C254.356 21.8353 254.235 21.8027 254.113 21.784C253.992 21.7653 253.871 21.756 253.749 21.756C253.32 21.756 252.942 21.882 252.615 22.134C252.298 22.3767 252.046 22.7313 251.859 23.198V28H250.823ZM257.835 28.14C257.256 28.14 256.71 28.0467 256.197 27.86C255.693 27.664 255.254 27.3933 254.881 27.048L255.511 26.376C255.838 26.6747 256.197 26.908 256.589 27.076C256.981 27.2347 257.382 27.314 257.793 27.314C258.353 27.314 258.81 27.1973 259.165 26.964C259.52 26.7307 259.697 26.4273 259.697 26.054C259.697 25.746 259.59 25.508 259.375 25.34C259.17 25.1627 258.843 25.0413 258.395 24.976L257.177 24.808C256.477 24.7053 255.954 24.4953 255.609 24.178C255.273 23.8607 255.105 23.4313 255.105 22.89C255.105 22.498 255.217 22.148 255.441 21.84C255.665 21.532 255.973 21.2893 256.365 21.112C256.766 20.9347 257.224 20.846 257.737 20.846C258.25 20.846 258.731 20.9207 259.179 21.07C259.627 21.2193 260.066 21.4527 260.495 21.77L259.949 22.47C259.557 22.1993 259.174 22.0033 258.801 21.882C258.437 21.7513 258.064 21.686 257.681 21.686C257.196 21.686 256.804 21.7933 256.505 22.008C256.206 22.2227 256.057 22.5027 256.057 22.848C256.057 23.1653 256.16 23.408 256.365 23.576C256.57 23.7347 256.902 23.8467 257.359 23.912L258.577 24.08C259.277 24.1733 259.8 24.3787 260.145 24.696C260.5 25.0133 260.677 25.4473 260.677 25.998C260.677 26.3993 260.551 26.7633 260.299 27.09C260.047 27.4167 259.706 27.6733 259.277 27.86C258.857 28.0467 258.376 28.14 257.835 28.14ZM267.063 28.126C266.549 28.126 266.097 28.0373 265.705 27.86C265.322 27.6827 265.019 27.4353 264.795 27.118C264.58 26.8007 264.473 26.432 264.473 26.012C264.473 25.3493 264.725 24.8267 265.229 24.444C265.733 24.0613 266.414 23.87 267.273 23.87C268.029 23.87 268.715 24.0287 269.331 24.346V23.422C269.331 22.862 269.172 22.442 268.855 22.162C268.537 21.8727 268.075 21.728 267.469 21.728C267.123 21.728 266.773 21.7793 266.419 21.882C266.073 21.9753 265.691 22.1293 265.271 22.344L264.879 21.546C265.383 21.3033 265.849 21.126 266.279 21.014C266.708 20.902 267.137 20.846 267.567 20.846C268.453 20.846 269.135 21.056 269.611 21.476C270.096 21.896 270.339 22.498 270.339 23.282V28H269.331V27.314C269.013 27.5847 268.663 27.79 268.281 27.93C267.907 28.0607 267.501 28.126 267.063 28.126ZM265.467 25.984C265.467 26.376 265.63 26.698 265.957 26.95C266.293 27.1927 266.722 27.314 267.245 27.314C267.665 27.314 268.047 27.2487 268.393 27.118C268.738 26.9873 269.051 26.782 269.331 26.502V25.186C269.041 24.99 268.733 24.85 268.407 24.766C268.08 24.6727 267.711 24.626 267.301 24.626C266.741 24.626 266.293 24.752 265.957 25.004C265.63 25.2467 265.467 25.5733 265.467 25.984ZM275.486 30.996C275 30.996 274.52 30.9307 274.044 30.8C273.568 30.6787 273.134 30.5013 272.742 30.268L273.19 29.456C273.61 29.68 273.997 29.8433 274.352 29.946C274.716 30.0487 275.08 30.1 275.444 30.1C276.106 30.1 276.61 29.9413 276.956 29.624C277.301 29.3067 277.474 28.84 277.474 28.224V27.244C276.83 27.7853 276.088 28.056 275.248 28.056C274.604 28.056 274.016 27.8973 273.484 27.58C272.952 27.2627 272.527 26.8333 272.21 26.292C271.902 25.7413 271.748 25.13 271.748 24.458C271.748 23.786 271.902 23.1793 272.21 22.638C272.527 22.0873 272.952 21.6533 273.484 21.336C274.016 21.0187 274.613 20.86 275.276 20.86C275.677 20.86 276.064 20.93 276.438 21.07C276.82 21.21 277.17 21.4153 277.488 21.686V20.986H278.51V28.21C278.51 29.106 278.248 29.792 277.726 30.268C277.203 30.7533 276.456 30.996 275.486 30.996ZM275.332 27.146C275.78 27.146 276.19 27.062 276.564 26.894C276.937 26.726 277.24 26.488 277.474 26.18V22.736C277.24 22.4373 276.932 22.204 276.55 22.036C276.176 21.868 275.77 21.784 275.332 21.784C274.846 21.784 274.408 21.9007 274.016 22.134C273.633 22.3673 273.33 22.6893 273.106 23.1C272.882 23.5013 272.77 23.954 272.77 24.458C272.77 24.962 272.882 25.4193 273.106 25.83C273.339 26.2313 273.647 26.5533 274.03 26.796C274.422 27.0293 274.856 27.146 275.332 27.146ZM283.535 28.14C282.872 28.14 282.265 27.9813 281.715 27.664C281.173 27.3373 280.744 26.8987 280.427 26.348C280.109 25.7973 279.951 25.1813 279.951 24.5C279.951 23.8187 280.109 23.2027 280.427 22.652C280.744 22.1013 281.173 21.6673 281.715 21.35C282.265 21.0233 282.872 20.86 283.535 20.86C284.207 20.86 284.813 21.0233 285.355 21.35C285.896 21.6673 286.325 22.1013 286.643 22.652C286.96 23.2027 287.119 23.8187 287.119 24.5C287.119 25.1813 286.96 25.7973 286.643 26.348C286.325 26.8987 285.896 27.3373 285.355 27.664C284.813 27.9813 284.207 28.14 283.535 28.14ZM283.535 27.216C284.011 27.216 284.44 27.0947 284.823 26.852C285.215 26.6093 285.523 26.2827 285.747 25.872C285.98 25.4613 286.097 25.004 286.097 24.5C286.097 23.9867 285.98 23.5293 285.747 23.128C285.523 22.7173 285.215 22.3907 284.823 22.148C284.44 21.9053 284.011 21.784 283.535 21.784C283.059 21.784 282.625 21.9053 282.233 22.148C281.85 22.3907 281.542 22.7173 281.309 23.128C281.085 23.5293 280.973 23.9867 280.973 24.5C280.973 25.004 281.085 25.4613 281.309 25.872C281.542 26.2827 281.85 26.6093 282.233 26.852C282.625 27.0947 283.059 27.216 283.535 27.216Z" fill="#525263"/>
</svg>
