<svg width="304" height="204" viewBox="0 0 304 204" fill="none" xmlns="http://www.w3.org/2000/svg">
<rect width="304" height="204" fill="white"/>
<path d="M19.8142 73.154C19.0862 73.154 18.4095 73.028 17.7842 72.776C17.1589 72.5147 16.6082 72.1553 16.1322 71.698C15.6562 71.2313 15.2829 70.6947 15.0122 70.088C14.7509 69.472 14.6202 68.8093 14.6202 68.1C14.6202 67.3907 14.7509 66.7327 15.0122 66.126C15.2829 65.51 15.6515 64.9733 16.1182 64.516C16.5849 64.0493 17.1309 63.69 17.7562 63.438C18.3909 63.1767 19.0675 63.046 19.7862 63.046C20.5982 63.046 21.3635 63.2093 22.0822 63.536C22.8009 63.8533 23.3935 64.3013 23.8602 64.88L22.4462 66.182C22.1102 65.762 21.7135 65.4447 21.2562 65.23C20.7989 65.0153 20.3089 64.908 19.7862 64.908C19.3475 64.908 18.9415 64.992 18.5682 65.16C18.1949 65.3187 17.8682 65.5427 17.5882 65.832C17.3082 66.112 17.0889 66.448 16.9302 66.84C16.7809 67.2227 16.7062 67.6427 16.7062 68.1C16.7062 68.5573 16.7855 68.982 16.9442 69.374C17.1029 69.766 17.3222 70.1067 17.6022 70.396C17.8915 70.676 18.2229 70.9 18.5962 71.068C18.9789 71.2267 19.3942 71.306 19.8422 71.306C20.3089 71.306 20.7289 71.222 21.1022 71.054C21.4755 70.8767 21.7882 70.634 22.0402 70.326C22.3015 70.0087 22.4742 69.654 22.5582 69.262H19.6602V67.498H24.7282V68.114C24.7282 68.842 24.6022 69.514 24.3502 70.13C24.1075 70.7367 23.7669 71.2687 23.3282 71.726C22.8895 72.174 22.3715 72.524 21.7742 72.776C21.1769 73.028 20.5235 73.154 19.8142 73.154ZM25.9874 73V65.706H27.9054V66.518C28.1388 66.2007 28.4188 65.958 28.7454 65.79C29.0721 65.622 29.4408 65.538 29.8514 65.538C30.2061 65.5473 30.4721 65.6033 30.6494 65.706V67.386C30.5094 67.3207 30.3554 67.274 30.1874 67.246C30.0194 67.2087 29.8468 67.19 29.6694 67.19C29.2961 67.19 28.9554 67.2833 28.6474 67.47C28.3394 67.6567 28.0921 67.9227 27.9054 68.268V73H25.9874ZM34.9852 73.14C34.2572 73.14 33.5945 72.972 32.9972 72.636C32.4092 72.3 31.9425 71.8473 31.5972 71.278C31.2518 70.7087 31.0792 70.0693 31.0792 69.36C31.0792 68.6507 31.2425 68.0113 31.5692 67.442C31.9052 66.8727 32.3578 66.42 32.9272 66.084C33.4965 65.748 34.1312 65.58 34.8312 65.58C35.5312 65.58 36.1518 65.7527 36.6932 66.098C37.2345 66.4433 37.6592 66.91 37.9672 67.498C38.2845 68.086 38.4432 68.7533 38.4432 69.5V70.004H33.0392C33.1232 70.2933 33.2585 70.5547 33.4452 70.788C33.6412 71.0213 33.8792 71.2033 34.1592 71.334C34.4485 71.4647 34.7565 71.53 35.0832 71.53C35.4098 71.53 35.7085 71.4787 35.9792 71.376C36.2592 71.2733 36.4972 71.1287 36.6932 70.942L37.9532 72.09C37.5052 72.454 37.0432 72.72 36.5672 72.888C36.1005 73.056 35.5732 73.14 34.9852 73.14ZM33.0112 68.632H36.5532C36.4878 68.3427 36.3665 68.0907 36.1892 67.876C36.0212 67.652 35.8158 67.4793 35.5732 67.358C35.3398 67.2273 35.0785 67.162 34.7892 67.162C34.4905 67.162 34.2198 67.2227 33.9772 67.344C33.7345 67.4653 33.5292 67.638 33.3612 67.862C33.2025 68.0767 33.0858 68.3333 33.0112 68.632ZM41.9013 73.126C41.3786 73.126 40.9166 73.0327 40.5153 72.846C40.114 72.65 39.8013 72.384 39.5773 72.048C39.3533 71.712 39.2413 71.3247 39.2413 70.886C39.2413 70.186 39.5026 69.6447 40.0253 69.262C40.5573 68.87 41.2853 68.674 42.2093 68.674C42.844 68.674 43.4413 68.772 44.0013 68.968V68.436C44.0013 68.016 43.8706 67.6987 43.6093 67.484C43.348 67.2693 42.9653 67.162 42.4613 67.162C42.1533 67.162 41.822 67.2133 41.4673 67.316C41.1126 67.4093 40.702 67.5587 40.2353 67.764L39.5353 66.35C40.114 66.0887 40.6646 65.8927 41.1873 65.762C41.7193 65.6313 42.2513 65.566 42.7833 65.566C43.7633 65.566 44.524 65.804 45.0653 66.28C45.616 66.7467 45.8913 67.4093 45.8913 68.268V73H44.0013V72.482C43.7026 72.706 43.3806 72.8693 43.0353 72.972C42.69 73.0747 42.312 73.126 41.9013 73.126ZM41.0613 70.844C41.0613 71.124 41.1826 71.348 41.4253 71.516C41.668 71.6747 41.99 71.754 42.3913 71.754C42.7086 71.754 43.0026 71.7167 43.2733 71.642C43.544 71.558 43.7866 71.4367 44.0013 71.278V70.214C43.768 70.1207 43.5253 70.0507 43.2733 70.004C43.0213 69.9573 42.7506 69.934 42.4613 69.934C42.0226 69.934 41.6773 70.018 41.4253 70.186C41.1826 70.3447 41.0613 70.564 41.0613 70.844ZM50.5958 73.112C49.7838 73.112 49.1678 72.93 48.7478 72.566C48.3372 72.1927 48.1318 71.6513 48.1318 70.942V67.302H46.6338V65.706H48.1318V63.844L50.0498 63.41V65.706H52.1358V67.302H50.0498V70.55C50.0498 70.886 50.1245 71.1287 50.2738 71.278C50.4232 71.418 50.6845 71.488 51.0578 71.488C51.2445 71.488 51.4125 71.4787 51.5618 71.46C51.7205 71.432 51.8932 71.3853 52.0798 71.32V72.902C51.8838 72.9673 51.6365 73.0187 51.3378 73.056C51.0485 73.0933 50.8012 73.112 50.5958 73.112ZM55.8878 73V63.2L57.8058 62.78V66.308C58.3565 65.8133 59.0378 65.566 59.8498 65.566C60.4192 65.566 60.9185 65.692 61.3478 65.944C61.7865 66.1867 62.1272 66.5273 62.3698 66.966C62.6125 67.3953 62.7338 67.8993 62.7338 68.478V73H60.8158V68.758C60.8158 68.282 60.6805 67.9087 60.4098 67.638C60.1392 67.358 59.7705 67.218 59.3038 67.218C58.9772 67.218 58.6878 67.2833 58.4358 67.414C58.1838 67.5353 57.9738 67.7127 57.8058 67.946V73H55.8878ZM67.7567 73.14C67.0287 73.14 66.366 72.972 65.7687 72.636C65.1807 72.3 64.714 71.8473 64.3687 71.278C64.0233 70.7087 63.8507 70.0693 63.8507 69.36C63.8507 68.6507 64.014 68.0113 64.3407 67.442C64.6767 66.8727 65.1293 66.42 65.6987 66.084C66.268 65.748 66.9027 65.58 67.6027 65.58C68.3027 65.58 68.9233 65.7527 69.4647 66.098C70.006 66.4433 70.4307 66.91 70.7387 67.498C71.056 68.086 71.2147 68.7533 71.2147 69.5V70.004H65.8107C65.8947 70.2933 66.03 70.5547 66.2167 70.788C66.4127 71.0213 66.6507 71.2033 66.9307 71.334C67.22 71.4647 67.528 71.53 67.8547 71.53C68.1813 71.53 68.48 71.4787 68.7507 71.376C69.0307 71.2733 69.2687 71.1287 69.4647 70.942L70.7247 72.09C70.2767 72.454 69.8147 72.72 69.3387 72.888C68.872 73.056 68.3447 73.14 67.7567 73.14ZM65.7827 68.632H69.3247C69.2593 68.3427 69.138 68.0907 68.9607 67.876C68.7927 67.652 68.5873 67.4793 68.3447 67.358C68.1113 67.2273 67.85 67.162 67.5607 67.162C67.262 67.162 66.9913 67.2227 66.7487 67.344C66.506 67.4653 66.3007 67.638 66.1327 67.862C65.974 68.0767 65.8573 68.3333 65.7827 68.632ZM72.3898 73V63.2L74.3078 62.878V73H72.3898ZM75.8078 75.856V65.706H77.6978V66.308C78.2951 65.8413 78.9858 65.608 79.7698 65.608C80.4604 65.608 81.0858 65.776 81.6458 66.112C82.2058 66.448 82.6491 66.9007 82.9758 67.47C83.3118 68.03 83.4798 68.66 83.4798 69.36C83.4798 70.06 83.3118 70.6947 82.9758 71.264C82.6398 71.824 82.1871 72.272 81.6178 72.608C81.0484 72.9347 80.4138 73.098 79.7138 73.098C79.3498 73.098 78.9998 73.0513 78.6638 72.958C78.3278 72.8553 78.0151 72.7107 77.7258 72.524V75.856H75.8078ZM79.4618 71.474C79.8631 71.474 80.2224 71.3807 80.5398 71.194C80.8664 71.0073 81.1231 70.7553 81.3098 70.438C81.4964 70.1207 81.5898 69.7613 81.5898 69.36C81.5898 68.9587 81.4964 68.5993 81.3098 68.282C81.1231 67.9553 80.8664 67.7033 80.5398 67.526C80.2224 67.3393 79.8631 67.246 79.4618 67.246C79.1071 67.246 78.7804 67.3067 78.4818 67.428C78.1924 67.54 77.9404 67.7127 77.7258 67.946V70.788C77.9311 71.0027 78.1831 71.1707 78.4818 71.292C78.7898 71.4133 79.1164 71.474 79.4618 71.474Z" fill="black"/>
<rect x="14" y="14" width="21" height="21" fill="#228B78"/>
<path d="M24 17L26.1607 22.8393L32 25L26.1607 27.1607L24 33L21.8393 27.1607L16 25L21.8393 22.8393L24 17Z" fill="white"/>
<rect x="39" y="14" width="21" height="21" fill="#228B78"/>
<path d="M49 17L51.1607 22.8393L57 25L51.1607 27.1607L49 33L46.8393 27.1607L41 25L46.8393 22.8393L49 17Z" fill="white"/>
<rect x="64" y="14" width="21" height="21" fill="#228B78"/>
<path d="M74 17L76.1607 22.8393L82 25L76.1607 27.1607L74 33L71.8393 27.1607L66 25L71.8393 22.8393L74 17Z" fill="white"/>
<rect x="89" y="14" width="21" height="21" fill="#228B78"/>
<path d="M99 17L101.161 22.8393L107 25L101.161 27.1607L99 33L96.8393 27.1607L91 25L96.8393 22.8393L99 17Z" fill="white"/>
<rect x="114" y="14" width="21" height="21" fill="#228B78"/>
<path d="M124 17L126.161 22.8393L132 25L126.161 27.1607L124 33L121.839 27.1607L116 25L121.839 22.8393L124 17Z" fill="white"/>
<path d="M15.078 116V106.2H22.092V107.152H16.156V110.582H20.034V111.52H16.156V115.048H22.148V116H15.078ZM25.5982 116L22.5602 108.986H23.7082L26.1022 114.656L28.4962 108.986H29.6022L26.5782 116H25.5982ZM33.6349 116.126C32.9629 116.126 32.3516 115.967 31.8009 115.65C31.2596 115.323 30.8256 114.885 30.4989 114.334C30.1816 113.783 30.0229 113.167 30.0229 112.486C30.0229 111.814 30.1769 111.207 30.4849 110.666C30.7929 110.115 31.2082 109.681 31.7309 109.364C32.2536 109.037 32.8369 108.874 33.4809 108.874C34.1062 108.874 34.6662 109.037 35.1609 109.364C35.6649 109.681 36.0616 110.115 36.3509 110.666C36.6496 111.207 36.7989 111.814 36.7989 112.486V112.808H31.0449C31.1009 113.265 31.2456 113.676 31.4789 114.04C31.7216 114.404 32.0342 114.693 32.4169 114.908C32.7996 115.113 33.2196 115.216 33.6769 115.216C34.0409 115.216 34.3956 115.16 34.7409 115.048C35.0862 114.936 35.3756 114.777 35.6089 114.572L36.2529 115.258C35.8609 115.547 35.4502 115.767 35.0209 115.916C34.6009 116.056 34.1389 116.126 33.6349 116.126ZM31.0729 111.982H35.7629C35.7069 111.562 35.5669 111.189 35.3429 110.862C35.1282 110.526 34.8576 110.265 34.5309 110.078C34.2042 109.882 33.8449 109.784 33.4529 109.784C33.0516 109.784 32.6829 109.877 32.3469 110.064C32.0109 110.251 31.7309 110.512 31.5069 110.848C31.2829 111.175 31.1382 111.553 31.0729 111.982ZM38.2472 116V108.986H39.2832V109.98C39.4979 109.616 39.7686 109.336 40.0952 109.14C40.4312 108.935 40.8139 108.832 41.2432 108.832C41.4859 108.832 41.7052 108.865 41.9012 108.93V109.882C41.7799 109.835 41.6586 109.803 41.5372 109.784C41.4159 109.765 41.2946 109.756 41.1732 109.756C40.7439 109.756 40.3659 109.882 40.0392 110.134C39.7219 110.377 39.4699 110.731 39.2832 111.198V116H38.2472ZM43.5178 118.996C43.3871 118.996 43.2611 118.987 43.1398 118.968C43.0278 118.959 42.9345 118.945 42.8598 118.926V117.988C43.0185 118.025 43.2145 118.044 43.4478 118.044C44.0638 118.044 44.5305 117.68 44.8478 116.952L45.2678 115.986L42.4118 108.986H43.5598L45.8278 114.74L48.2778 108.986H49.3978L45.8978 117.092C45.7018 117.54 45.4918 117.904 45.2678 118.184C45.0438 118.464 44.7871 118.669 44.4978 118.8C44.2178 118.931 43.8911 118.996 43.5178 118.996ZM53.3236 116.14C52.7169 116.14 52.2503 115.995 51.9236 115.706C51.5969 115.417 51.4336 114.997 51.4336 114.446V109.868H49.9216V108.986H51.4336V107.208L52.4556 106.942V108.986H54.5696V109.868H52.4556V114.18C52.4556 114.553 52.5396 114.824 52.7076 114.992C52.8756 115.151 53.1509 115.23 53.5336 115.23C53.7296 115.23 53.9023 115.216 54.0516 115.188C54.2103 115.16 54.3783 115.113 54.5556 115.048V115.958C54.3783 116.023 54.1776 116.07 53.9536 116.098C53.7389 116.126 53.5289 116.14 53.3236 116.14ZM55.6789 116V106.2L56.7149 105.962V109.812C57.2655 109.168 58.0029 108.846 58.9269 108.846C59.4589 108.846 59.9255 108.963 60.3269 109.196C60.7375 109.42 61.0549 109.737 61.2789 110.148C61.5122 110.549 61.6289 111.021 61.6289 111.562V116H60.6069V111.772C60.6069 111.147 60.4295 110.657 60.0749 110.302C59.7295 109.938 59.2535 109.756 58.6469 109.756C58.2269 109.756 57.8535 109.849 57.5269 110.036C57.2002 110.223 56.9295 110.489 56.7149 110.834V116H55.6789ZM63.3625 116V108.986H64.3985V116H63.3625ZM63.8805 107.642C63.6938 107.642 63.5305 107.572 63.3905 107.432C63.2505 107.292 63.1805 107.129 63.1805 106.942C63.1805 106.746 63.2505 106.583 63.3905 106.452C63.5305 106.312 63.6938 106.242 63.8805 106.242C64.0765 106.242 64.2398 106.312 64.3705 106.452C64.5105 106.583 64.5805 106.746 64.5805 106.942C64.5805 107.129 64.5105 107.292 64.3705 107.432C64.2398 107.572 64.0765 107.642 63.8805 107.642ZM66.1652 116V108.986H67.2012V109.812C67.7519 109.168 68.4892 108.846 69.4132 108.846C69.9452 108.846 70.4119 108.963 70.8132 109.196C71.2239 109.42 71.5412 109.737 71.7652 110.148C71.9985 110.549 72.1152 111.021 72.1152 111.562V116H71.0932V111.772C71.0932 111.147 70.9159 110.657 70.5612 110.302C70.2159 109.938 69.7399 109.756 69.1332 109.756C68.7132 109.756 68.3399 109.849 68.0132 110.036C67.6865 110.223 67.4159 110.489 67.2012 110.834V116H66.1652ZM77.2648 118.996C76.7795 118.996 76.2988 118.931 75.8228 118.8C75.3468 118.679 74.9128 118.501 74.5208 118.268L74.9688 117.456C75.3888 117.68 75.7761 117.843 76.1308 117.946C76.4948 118.049 76.8588 118.1 77.2228 118.1C77.8855 118.1 78.3895 117.941 78.7348 117.624C79.0801 117.307 79.2528 116.84 79.2528 116.224V115.244C78.6088 115.785 77.8668 116.056 77.0268 116.056C76.3828 116.056 75.7948 115.897 75.2628 115.58C74.7308 115.263 74.3061 114.833 73.9888 114.292C73.6808 113.741 73.5268 113.13 73.5268 112.458C73.5268 111.786 73.6808 111.179 73.9888 110.638C74.3061 110.087 74.7308 109.653 75.2628 109.336C75.7948 109.019 76.3921 108.86 77.0548 108.86C77.4561 108.86 77.8435 108.93 78.2168 109.07C78.5995 109.21 78.9495 109.415 79.2668 109.686V108.986H80.2888V116.21C80.2888 117.106 80.0275 117.792 79.5048 118.268C78.9821 118.753 78.2355 118.996 77.2648 118.996ZM77.1108 115.146C77.5588 115.146 77.9695 115.062 78.3428 114.894C78.7161 114.726 79.0195 114.488 79.2528 114.18V110.736C79.0195 110.437 78.7115 110.204 78.3288 110.036C77.9555 109.868 77.5495 109.784 77.1108 109.784C76.6255 109.784 76.1868 109.901 75.7948 110.134C75.4121 110.367 75.1088 110.689 74.8848 111.1C74.6608 111.501 74.5488 111.954 74.5488 112.458C74.5488 112.962 74.6608 113.419 74.8848 113.83C75.1181 114.231 75.4261 114.553 75.8088 114.796C76.2008 115.029 76.6348 115.146 77.1108 115.146ZM85.0597 116V108.986H86.0957V116H85.0597ZM85.5777 107.642C85.3911 107.642 85.2277 107.572 85.0877 107.432C84.9477 107.292 84.8777 107.129 84.8777 106.942C84.8777 106.746 84.9477 106.583 85.0877 106.452C85.2277 106.312 85.3911 106.242 85.5777 106.242C85.7737 106.242 85.9371 106.312 86.0677 106.452C86.2077 106.583 86.2777 106.746 86.2777 106.942C86.2777 107.129 86.2077 107.292 86.0677 107.432C85.9371 107.572 85.7737 107.642 85.5777 107.642ZM90.1025 116.14C89.5238 116.14 88.9778 116.047 88.4645 115.86C87.9605 115.664 87.5218 115.393 87.1485 115.048L87.7785 114.376C88.1051 114.675 88.4645 114.908 88.8565 115.076C89.2485 115.235 89.6498 115.314 90.0605 115.314C90.6205 115.314 91.0778 115.197 91.4325 114.964C91.7871 114.731 91.9645 114.427 91.9645 114.054C91.9645 113.746 91.8571 113.508 91.6425 113.34C91.4371 113.163 91.1105 113.041 90.6625 112.976L89.4445 112.808C88.7445 112.705 88.2218 112.495 87.8765 112.178C87.5405 111.861 87.3725 111.431 87.3725 110.89C87.3725 110.498 87.4845 110.148 87.7085 109.84C87.9325 109.532 88.2405 109.289 88.6325 109.112C89.0338 108.935 89.4911 108.846 90.0045 108.846C90.5178 108.846 90.9985 108.921 91.4465 109.07C91.8945 109.219 92.3331 109.453 92.7625 109.77L92.2165 110.47C91.8245 110.199 91.4418 110.003 91.0685 109.882C90.7045 109.751 90.3311 109.686 89.9485 109.686C89.4631 109.686 89.0711 109.793 88.7725 110.008C88.4738 110.223 88.3245 110.503 88.3245 110.848C88.3245 111.165 88.4271 111.408 88.6325 111.576C88.8378 111.735 89.1691 111.847 89.6265 111.912L90.8445 112.08C91.5445 112.173 92.0671 112.379 92.4125 112.696C92.7671 113.013 92.9445 113.447 92.9445 113.998C92.9445 114.399 92.8185 114.763 92.5665 115.09C92.3145 115.417 91.9738 115.673 91.5445 115.86C91.1245 116.047 90.6438 116.14 90.1025 116.14ZM98.1263 116V109.868H96.4743V108.986H98.1263V107.656C98.1263 106.965 98.313 106.438 98.6863 106.074C99.0597 105.71 99.5963 105.528 100.296 105.528C100.483 105.528 100.651 105.537 100.8 105.556C100.95 105.575 101.094 105.607 101.234 105.654V106.578C101.076 106.531 100.931 106.499 100.8 106.48C100.67 106.452 100.525 106.438 100.366 106.438C99.9557 106.438 99.6477 106.541 99.4423 106.746C99.2463 106.942 99.1483 107.255 99.1483 107.684V108.986H101.234V109.868H99.1483V116H98.1263ZM102.355 116V108.986H103.391V116H102.355ZM102.873 107.642C102.686 107.642 102.523 107.572 102.383 107.432C102.243 107.292 102.173 107.129 102.173 106.942C102.173 106.746 102.243 106.583 102.383 106.452C102.523 106.312 102.686 106.242 102.873 106.242C103.069 106.242 103.232 106.312 103.363 106.452C103.503 106.583 103.573 106.746 103.573 106.942C103.573 107.129 103.503 107.292 103.363 107.432C103.232 107.572 103.069 107.642 102.873 107.642ZM105.157 116V108.986H106.193V109.812C106.744 109.168 107.481 108.846 108.405 108.846C108.937 108.846 109.404 108.963 109.805 109.196C110.216 109.42 110.533 109.737 110.757 110.148C110.991 110.549 111.107 111.021 111.107 111.562V116H110.085V111.772C110.085 111.147 109.908 110.657 109.553 110.302C109.208 109.938 108.732 109.756 108.125 109.756C107.705 109.756 107.332 109.849 107.005 110.036C106.679 110.223 106.408 110.489 106.193 110.834V116H105.157ZM116.131 116.126C115.459 116.126 114.848 115.967 114.297 115.65C113.756 115.323 113.322 114.885 112.995 114.334C112.678 113.783 112.519 113.167 112.519 112.486C112.519 111.814 112.673 111.207 112.981 110.666C113.289 110.115 113.704 109.681 114.227 109.364C114.75 109.037 115.333 108.874 115.977 108.874C116.602 108.874 117.162 109.037 117.657 109.364C118.161 109.681 118.558 110.115 118.847 110.666C119.146 111.207 119.295 111.814 119.295 112.486V112.808H113.541C113.597 113.265 113.742 113.676 113.975 114.04C114.218 114.404 114.53 114.693 114.913 114.908C115.296 115.113 115.716 115.216 116.173 115.216C116.537 115.216 116.892 115.16 117.237 115.048C117.582 114.936 117.872 114.777 118.105 114.572L118.749 115.258C118.357 115.547 117.946 115.767 117.517 115.916C117.097 116.056 116.635 116.126 116.131 116.126ZM113.569 111.982H118.259C118.203 111.562 118.063 111.189 117.839 110.862C117.624 110.526 117.354 110.265 117.027 110.078C116.7 109.882 116.341 109.784 115.949 109.784C115.548 109.784 115.179 109.877 114.843 110.064C114.507 110.251 114.227 110.512 114.003 110.848C113.779 111.175 113.634 111.553 113.569 111.982ZM120.054 117.918L120.866 114.964H121.986L120.866 117.918H120.054ZM128.115 116L126.141 108.986H127.163L128.675 114.586L130.425 108.986H131.349L133.085 114.586L134.611 108.986H135.591L133.603 116H132.609L130.873 110.386L129.123 116H128.115ZM139.824 116.126C139.152 116.126 138.541 115.967 137.99 115.65C137.449 115.323 137.015 114.885 136.688 114.334C136.371 113.783 136.212 113.167 136.212 112.486C136.212 111.814 136.366 111.207 136.674 110.666C136.982 110.115 137.398 109.681 137.92 109.364C138.443 109.037 139.026 108.874 139.67 108.874C140.296 108.874 140.856 109.037 141.35 109.364C141.854 109.681 142.251 110.115 142.54 110.666C142.839 111.207 142.988 111.814 142.988 112.486V112.808H137.234C137.29 113.265 137.435 113.676 137.668 114.04C137.911 114.404 138.224 114.693 138.606 114.908C138.989 115.113 139.409 115.216 139.866 115.216C140.23 115.216 140.585 115.16 140.93 115.048C141.276 114.936 141.565 114.777 141.798 114.572L142.442 115.258C142.05 115.547 141.64 115.767 141.21 115.916C140.79 116.056 140.328 116.126 139.824 116.126ZM137.262 111.982H141.952C141.896 111.562 141.756 111.189 141.532 110.862C141.318 110.526 141.047 110.265 140.72 110.078C140.394 109.882 140.034 109.784 139.642 109.784C139.241 109.784 138.872 109.877 138.536 110.064C138.2 110.251 137.92 110.512 137.696 110.848C137.472 111.175 137.328 111.553 137.262 111.982ZM14.882 135V127.986H15.918V128.98C16.1327 128.616 16.4033 128.336 16.73 128.14C17.066 127.935 17.4487 127.832 17.878 127.832C18.1207 127.832 18.34 127.865 18.536 127.93V128.882C18.4147 128.835 18.2933 128.803 18.172 128.784C18.0507 128.765 17.9293 128.756 17.808 128.756C17.3787 128.756 17.0007 128.882 16.674 129.134C16.3567 129.377 16.1047 129.731 15.918 130.198V135H14.882ZM22.5197 135.126C21.8477 135.126 21.2363 134.967 20.6857 134.65C20.1443 134.323 19.7103 133.885 19.3837 133.334C19.0663 132.783 18.9077 132.167 18.9077 131.486C18.9077 130.814 19.0617 130.207 19.3697 129.666C19.6777 129.115 20.093 128.681 20.6157 128.364C21.1383 128.037 21.7217 127.874 22.3657 127.874C22.991 127.874 23.551 128.037 24.0457 128.364C24.5497 128.681 24.9463 129.115 25.2357 129.666C25.5343 130.207 25.6837 130.814 25.6837 131.486V131.808H19.9297C19.9857 132.265 20.1303 132.676 20.3637 133.04C20.6063 133.404 20.919 133.693 21.3017 133.908C21.6843 134.113 22.1043 134.216 22.5617 134.216C22.9257 134.216 23.2803 134.16 23.6257 134.048C23.971 133.936 24.2603 133.777 24.4937 133.572L25.1377 134.258C24.7457 134.547 24.335 134.767 23.9057 134.916C23.4857 135.056 23.0237 135.126 22.5197 135.126ZM19.9577 130.982H24.6477C24.5917 130.562 24.4517 130.189 24.2277 129.862C24.013 129.526 23.7423 129.265 23.4157 129.078C23.089 128.882 22.7297 128.784 22.3377 128.784C21.9363 128.784 21.5677 128.877 21.2317 129.064C20.8957 129.251 20.6157 129.512 20.3917 129.848C20.1677 130.175 20.023 130.553 19.9577 130.982ZM30.38 135.126C29.7173 135.126 29.1153 134.967 28.574 134.65C28.0327 134.323 27.6033 133.885 27.286 133.334C26.9687 132.783 26.81 132.167 26.81 131.486C26.81 130.805 26.9687 130.193 27.286 129.652C27.6033 129.101 28.0327 128.663 28.574 128.336C29.1153 128.009 29.7173 127.846 30.38 127.846C30.8933 127.846 31.388 127.944 31.864 128.14C32.34 128.327 32.76 128.597 33.124 128.952L32.466 129.708C32.186 129.409 31.864 129.185 31.5 129.036C31.1453 128.877 30.7767 128.798 30.394 128.798C29.918 128.798 29.484 128.919 29.092 129.162C28.7093 129.395 28.4013 129.717 28.168 130.128C27.944 130.529 27.832 130.982 27.832 131.486C27.832 131.99 27.944 132.447 28.168 132.858C28.4013 133.269 28.714 133.595 29.106 133.838C29.498 134.071 29.932 134.188 30.408 134.188C30.7907 134.188 31.15 134.113 31.486 133.964C31.8313 133.815 32.1533 133.595 32.452 133.306L33.096 134.006C32.7227 134.361 32.3027 134.636 31.836 134.832C31.3693 135.028 30.884 135.126 30.38 135.126ZM37.3667 135.14C36.704 135.14 36.0973 134.981 35.5467 134.664C35.0053 134.337 34.576 133.899 34.2587 133.348C33.9413 132.797 33.7827 132.181 33.7827 131.5C33.7827 130.819 33.9413 130.203 34.2587 129.652C34.576 129.101 35.0053 128.667 35.5467 128.35C36.0973 128.023 36.704 127.86 37.3667 127.86C38.0387 127.86 38.6453 128.023 39.1867 128.35C39.728 128.667 40.1573 129.101 40.4747 129.652C40.792 130.203 40.9507 130.819 40.9507 131.5C40.9507 132.181 40.792 132.797 40.4747 133.348C40.1573 133.899 39.728 134.337 39.1867 134.664C38.6453 134.981 38.0387 135.14 37.3667 135.14ZM37.3667 134.216C37.8427 134.216 38.272 134.095 38.6547 133.852C39.0467 133.609 39.3547 133.283 39.5787 132.872C39.812 132.461 39.9287 132.004 39.9287 131.5C39.9287 130.987 39.812 130.529 39.5787 130.128C39.3547 129.717 39.0467 129.391 38.6547 129.148C38.272 128.905 37.8427 128.784 37.3667 128.784C36.8907 128.784 36.4567 128.905 36.0647 129.148C35.682 129.391 35.374 129.717 35.1407 130.128C34.9167 130.529 34.8047 130.987 34.8047 131.5C34.8047 132.004 34.9167 132.461 35.1407 132.872C35.374 133.283 35.682 133.609 36.0647 133.852C36.4567 134.095 36.8907 134.216 37.3667 134.216ZM42.3898 135V127.986H43.4258V128.756C43.9578 128.149 44.6438 127.846 45.4838 127.846C45.9785 127.846 46.4171 127.963 46.7998 128.196C47.1825 128.42 47.4811 128.728 47.6958 129.12C47.9851 128.691 48.3305 128.373 48.7318 128.168C49.1331 127.953 49.5905 127.846 50.1038 127.846C50.6171 127.846 51.0651 127.963 51.4478 128.196C51.8305 128.42 52.1291 128.737 52.3438 129.148C52.5678 129.549 52.6798 130.021 52.6798 130.562V135H51.6578V130.772C51.6578 130.147 51.4945 129.657 51.1678 129.302C50.8411 128.938 50.3978 128.756 49.8378 128.756C49.4551 128.756 49.1051 128.854 48.7878 129.05C48.4705 129.237 48.1998 129.521 47.9758 129.904C47.9945 130.007 48.0085 130.114 48.0178 130.226C48.0365 130.329 48.0458 130.441 48.0458 130.562V135H47.0238V130.772C47.0238 130.147 46.8605 129.657 46.5338 129.302C46.2071 128.938 45.7685 128.756 45.2178 128.756C44.8445 128.756 44.5038 128.845 44.1958 129.022C43.8971 129.19 43.6405 129.442 43.4258 129.778V135H42.3898ZM54.4211 135V127.986H55.4571V128.756C55.9891 128.149 56.6751 127.846 57.5151 127.846C58.0097 127.846 58.4484 127.963 58.8311 128.196C59.2137 128.42 59.5124 128.728 59.7271 129.12C60.0164 128.691 60.3617 128.373 60.7631 128.168C61.1644 127.953 61.6217 127.846 62.1351 127.846C62.6484 127.846 63.0964 127.963 63.4791 128.196C63.8617 128.42 64.1604 128.737 64.3751 129.148C64.5991 129.549 64.7111 130.021 64.7111 130.562V135H63.6891V130.772C63.6891 130.147 63.5257 129.657 63.1991 129.302C62.8724 128.938 62.4291 128.756 61.8691 128.756C61.4864 128.756 61.1364 128.854 60.8191 129.05C60.5017 129.237 60.2311 129.521 60.0071 129.904C60.0257 130.007 60.0397 130.114 60.0491 130.226C60.0677 130.329 60.0771 130.441 60.0771 130.562V135H59.0551V130.772C59.0551 130.147 58.8917 129.657 58.5651 129.302C58.2384 128.938 57.7997 128.756 57.2491 128.756C56.8757 128.756 56.5351 128.845 56.2271 129.022C55.9284 129.19 55.6717 129.442 55.4571 129.778V135H54.4211ZM69.7423 135.126C69.0703 135.126 68.459 134.967 67.9083 134.65C67.367 134.323 66.933 133.885 66.6063 133.334C66.289 132.783 66.1303 132.167 66.1303 131.486C66.1303 130.814 66.2843 130.207 66.5923 129.666C66.9003 129.115 67.3156 128.681 67.8383 128.364C68.361 128.037 68.9443 127.874 69.5883 127.874C70.2136 127.874 70.7736 128.037 71.2683 128.364C71.7723 128.681 72.169 129.115 72.4583 129.666C72.757 130.207 72.9063 130.814 72.9063 131.486V131.808H67.1523C67.2083 132.265 67.353 132.676 67.5863 133.04C67.829 133.404 68.1416 133.693 68.5243 133.908C68.907 134.113 69.327 134.216 69.7843 134.216C70.1483 134.216 70.503 134.16 70.8483 134.048C71.1936 133.936 71.483 133.777 71.7163 133.572L72.3603 134.258C71.9683 134.547 71.5576 134.767 71.1283 134.916C70.7083 135.056 70.2463 135.126 69.7423 135.126ZM67.1803 130.982H71.8703C71.8143 130.562 71.6743 130.189 71.4503 129.862C71.2356 129.526 70.965 129.265 70.6383 129.078C70.3116 128.882 69.9523 128.784 69.5603 128.784C69.159 128.784 68.7903 128.877 68.4543 129.064C68.1183 129.251 67.8383 129.512 67.6143 129.848C67.3903 130.175 67.2456 130.553 67.1803 130.982ZM74.3547 135V127.986H75.3907V128.812C75.9413 128.168 76.6787 127.846 77.6027 127.846C78.1347 127.846 78.6013 127.963 79.0027 128.196C79.4133 128.42 79.7307 128.737 79.9547 129.148C80.188 129.549 80.3047 130.021 80.3047 130.562V135H79.2827V130.772C79.2827 130.147 79.1053 129.657 78.7507 129.302C78.4053 128.938 77.9293 128.756 77.3227 128.756C76.9027 128.756 76.5293 128.849 76.2027 129.036C75.876 129.223 75.6053 129.489 75.3907 129.834V135H74.3547ZM85.2443 135.112C84.5909 135.112 83.9936 134.953 83.4523 134.636C82.9203 134.309 82.4956 133.875 82.1783 133.334C81.8703 132.783 81.7163 132.167 81.7163 131.486C81.7163 130.805 81.8703 130.193 82.1783 129.652C82.4956 129.111 82.9203 128.681 83.4523 128.364C83.9936 128.037 84.5956 127.874 85.2583 127.874C85.6689 127.874 86.0656 127.944 86.4483 128.084C86.8309 128.215 87.1809 128.411 87.4983 128.672V125.2L88.5343 124.962V135H87.5123V134.258C86.8963 134.827 86.1403 135.112 85.2443 135.112ZM85.3423 134.202C85.7809 134.202 86.1869 134.118 86.5603 133.95C86.9429 133.773 87.2556 133.53 87.4983 133.222V129.75C87.2556 129.451 86.9429 129.218 86.5603 129.05C86.1869 128.873 85.7809 128.784 85.3423 128.784C84.8569 128.784 84.4136 128.901 84.0123 129.134C83.6203 129.367 83.3076 129.689 83.0743 130.1C82.8503 130.501 82.7383 130.959 82.7383 131.472C82.7383 131.985 82.8503 132.447 83.0743 132.858C83.3076 133.269 83.6203 133.595 84.0123 133.838C84.4136 134.081 84.8569 134.202 85.3423 134.202Z" fill="black"/>
<path d="M14.4974 185L18.5574 175.2H19.8594L23.8914 185H22.7154L21.4834 181.92H16.8634L15.6174 185H14.4974ZM17.2414 180.996H21.1054L19.1734 176.194L17.2414 180.996ZM24.8254 185V177.986H25.8614V178.812C26.412 178.168 27.1494 177.846 28.0734 177.846C28.6054 177.846 29.072 177.963 29.4734 178.196C29.884 178.42 30.2014 178.737 30.4254 179.148C30.6587 179.549 30.7754 180.021 30.7754 180.562V185H29.7534V180.772C29.7534 180.147 29.576 179.657 29.2214 179.302C28.876 178.938 28.4 178.756 27.7934 178.756C27.3734 178.756 27 178.849 26.6734 179.036C26.3467 179.223 26.076 179.489 25.8614 179.834V185H24.8254ZM34.721 185.126C34.2076 185.126 33.755 185.037 33.363 184.86C32.9803 184.683 32.677 184.435 32.453 184.118C32.2383 183.801 32.131 183.432 32.131 183.012C32.131 182.349 32.383 181.827 32.887 181.444C33.391 181.061 34.0723 180.87 34.931 180.87C35.687 180.87 36.373 181.029 36.989 181.346V180.422C36.989 179.862 36.8303 179.442 36.513 179.162C36.1956 178.873 35.7336 178.728 35.127 178.728C34.7816 178.728 34.4316 178.779 34.077 178.882C33.7316 178.975 33.349 179.129 32.929 179.344L32.537 178.546C33.041 178.303 33.5076 178.126 33.937 178.014C34.3663 177.902 34.7956 177.846 35.225 177.846C36.1116 177.846 36.793 178.056 37.269 178.476C37.7543 178.896 37.997 179.498 37.997 180.282V185H36.989V184.314C36.6716 184.585 36.3216 184.79 35.939 184.93C35.5656 185.061 35.1596 185.126 34.721 185.126ZM33.125 182.984C33.125 183.376 33.2883 183.698 33.615 183.95C33.951 184.193 34.3803 184.314 34.903 184.314C35.323 184.314 35.7056 184.249 36.051 184.118C36.3963 183.987 36.709 183.782 36.989 183.502V182.186C36.6996 181.99 36.3916 181.85 36.065 181.766C35.7383 181.673 35.3696 181.626 34.959 181.626C34.399 181.626 33.951 181.752 33.615 182.004C33.2883 182.247 33.125 182.573 33.125 182.984ZM41.9677 185.14C41.389 185.14 40.843 185.047 40.3297 184.86C39.8257 184.664 39.387 184.393 39.0137 184.048L39.6437 183.376C39.9704 183.675 40.3297 183.908 40.7217 184.076C41.1137 184.235 41.515 184.314 41.9257 184.314C42.4857 184.314 42.943 184.197 43.2977 183.964C43.6524 183.731 43.8297 183.427 43.8297 183.054C43.8297 182.746 43.7224 182.508 43.5077 182.34C43.3024 182.163 42.9757 182.041 42.5277 181.976L41.3097 181.808C40.6097 181.705 40.087 181.495 39.7417 181.178C39.4057 180.861 39.2377 180.431 39.2377 179.89C39.2377 179.498 39.3497 179.148 39.5737 178.84C39.7977 178.532 40.1057 178.289 40.4977 178.112C40.899 177.935 41.3564 177.846 41.8697 177.846C42.383 177.846 42.8637 177.921 43.3117 178.07C43.7597 178.219 44.1984 178.453 44.6277 178.77L44.0817 179.47C43.6897 179.199 43.307 179.003 42.9337 178.882C42.5697 178.751 42.1964 178.686 41.8137 178.686C41.3284 178.686 40.9364 178.793 40.6377 179.008C40.339 179.223 40.1897 179.503 40.1897 179.848C40.1897 180.165 40.2924 180.408 40.4977 180.576C40.703 180.735 41.0344 180.847 41.4917 180.912L42.7097 181.08C43.4097 181.173 43.9324 181.379 44.2777 181.696C44.6324 182.013 44.8097 182.447 44.8097 182.998C44.8097 183.399 44.6837 183.763 44.4317 184.09C44.1797 184.417 43.839 184.673 43.4097 184.86C42.9897 185.047 42.509 185.14 41.9677 185.14ZM48.597 185.14C47.9904 185.14 47.5237 184.995 47.197 184.706C46.8704 184.417 46.707 183.997 46.707 183.446V178.868H45.195V177.986H46.707V176.208L47.729 175.942V177.986H49.843V178.868H47.729V183.18C47.729 183.553 47.813 183.824 47.981 183.992C48.149 184.151 48.4244 184.23 48.807 184.23C49.003 184.23 49.1757 184.216 49.325 184.188C49.4837 184.16 49.6517 184.113 49.829 184.048V184.958C49.6517 185.023 49.451 185.07 49.227 185.098C49.0124 185.126 48.8024 185.14 48.597 185.14ZM53.1643 185.126C52.651 185.126 52.1983 185.037 51.8063 184.86C51.4236 184.683 51.1203 184.435 50.8963 184.118C50.6816 183.801 50.5743 183.432 50.5743 183.012C50.5743 182.349 50.8263 181.827 51.3303 181.444C51.8343 181.061 52.5156 180.87 53.3743 180.87C54.1303 180.87 54.8163 181.029 55.4323 181.346V180.422C55.4323 179.862 55.2736 179.442 54.9563 179.162C54.639 178.873 54.177 178.728 53.5703 178.728C53.225 178.728 52.875 178.779 52.5203 178.882C52.175 178.975 51.7923 179.129 51.3723 179.344L50.9803 178.546C51.4843 178.303 51.951 178.126 52.3803 178.014C52.8096 177.902 53.239 177.846 53.6683 177.846C54.555 177.846 55.2363 178.056 55.7123 178.476C56.1976 178.896 56.4403 179.498 56.4403 180.282V185H55.4323V184.314C55.115 184.585 54.765 184.79 54.3823 184.93C54.009 185.061 53.603 185.126 53.1643 185.126ZM51.5683 182.984C51.5683 183.376 51.7316 183.698 52.0583 183.95C52.3943 184.193 52.8236 184.314 53.3463 184.314C53.7663 184.314 54.149 184.249 54.4943 184.118C54.8396 183.987 55.1523 183.782 55.4323 183.502V182.186C55.143 181.99 54.835 181.85 54.5083 181.766C54.1816 181.673 53.813 181.626 53.4023 181.626C52.8423 181.626 52.3943 181.752 52.0583 182.004C51.7316 182.247 51.5683 182.573 51.5683 182.984ZM60.4111 185.14C59.8324 185.14 59.2864 185.047 58.7731 184.86C58.2691 184.664 57.8304 184.393 57.4571 184.048L58.0871 183.376C58.4137 183.675 58.7731 183.908 59.1651 184.076C59.5571 184.235 59.9584 184.314 60.3691 184.314C60.9291 184.314 61.3864 184.197 61.7411 183.964C62.0957 183.731 62.2731 183.427 62.2731 183.054C62.2731 182.746 62.1657 182.508 61.9511 182.34C61.7457 182.163 61.4191 182.041 60.9711 181.976L59.7531 181.808C59.0531 181.705 58.5304 181.495 58.1851 181.178C57.8491 180.861 57.6811 180.431 57.6811 179.89C57.6811 179.498 57.7931 179.148 58.0171 178.84C58.2411 178.532 58.5491 178.289 58.9411 178.112C59.3424 177.935 59.7997 177.846 60.3131 177.846C60.8264 177.846 61.3071 177.921 61.7551 178.07C62.2031 178.219 62.6417 178.453 63.0711 178.77L62.5251 179.47C62.1331 179.199 61.7504 179.003 61.3771 178.882C61.0131 178.751 60.6397 178.686 60.2571 178.686C59.7717 178.686 59.3797 178.793 59.0811 179.008C58.7824 179.223 58.6331 179.503 58.6331 179.848C58.6331 180.165 58.7357 180.408 58.9411 180.576C59.1464 180.735 59.4777 180.847 59.9351 180.912L61.1531 181.08C61.8531 181.173 62.3757 181.379 62.7211 181.696C63.0757 182.013 63.2531 182.447 63.2531 182.998C63.2531 183.399 63.1271 183.763 62.8751 184.09C62.6231 184.417 62.2824 184.673 61.8531 184.86C61.4331 185.047 60.9524 185.14 60.4111 185.14ZM64.4191 185V177.986H65.4551V185H64.4191ZM64.9371 176.642C64.7504 176.642 64.5871 176.572 64.4471 176.432C64.3071 176.292 64.2371 176.129 64.2371 175.942C64.2371 175.746 64.3071 175.583 64.4471 175.452C64.5871 175.312 64.7504 175.242 64.9371 175.242C65.1331 175.242 65.2964 175.312 65.4271 175.452C65.5671 175.583 65.6371 175.746 65.6371 175.942C65.6371 176.129 65.5671 176.292 65.4271 176.432C65.2964 176.572 65.1331 176.642 64.9371 176.642ZM69.4338 185.126C68.9205 185.126 68.4678 185.037 68.0758 184.86C67.6932 184.683 67.3898 184.435 67.1658 184.118C66.9512 183.801 66.8438 183.432 66.8438 183.012C66.8438 182.349 67.0958 181.827 67.5998 181.444C68.1038 181.061 68.7852 180.87 69.6438 180.87C70.3998 180.87 71.0858 181.029 71.7018 181.346V180.422C71.7018 179.862 71.5432 179.442 71.2258 179.162C70.9085 178.873 70.4465 178.728 69.8398 178.728C69.4945 178.728 69.1445 178.779 68.7898 178.882C68.4445 178.975 68.0618 179.129 67.6418 179.344L67.2498 178.546C67.7538 178.303 68.2205 178.126 68.6498 178.014C69.0792 177.902 69.5085 177.846 69.9378 177.846C70.8245 177.846 71.5058 178.056 71.9818 178.476C72.4672 178.896 72.7098 179.498 72.7098 180.282V185H71.7018V184.314C71.3845 184.585 71.0345 184.79 70.6518 184.93C70.2785 185.061 69.8725 185.126 69.4338 185.126ZM67.8378 182.984C67.8378 183.376 68.0012 183.698 68.3278 183.95C68.6638 184.193 69.0932 184.314 69.6158 184.314C70.0358 184.314 70.4185 184.249 70.7638 184.118C71.1092 183.987 71.4218 183.782 71.7018 183.502V182.186C71.4125 181.99 71.1045 181.85 70.7778 181.766C70.4512 181.673 70.0825 181.626 69.6718 181.626C69.1118 181.626 68.6638 181.752 68.3278 182.004C68.0012 182.247 67.8378 182.573 67.8378 182.984Z" fill="#525263"/>
<path d="M214.171 28V27.258L218.091 22.974C218.399 22.638 218.637 22.344 218.805 22.092C218.983 21.8307 219.104 21.588 219.169 21.364C219.244 21.14 219.281 20.902 219.281 20.65C219.281 20.1553 219.085 19.7493 218.693 19.432C218.311 19.1053 217.821 18.942 217.223 18.942C216.766 18.942 216.341 19.0307 215.949 19.208C215.557 19.3853 215.119 19.6933 214.633 20.132L214.045 19.432C214.559 18.9653 215.077 18.62 215.599 18.396C216.122 18.1627 216.668 18.046 217.237 18.046C217.825 18.046 218.348 18.158 218.805 18.382C219.263 18.5967 219.622 18.8953 219.883 19.278C220.145 19.6607 220.275 20.0993 220.275 20.594C220.275 20.9207 220.233 21.224 220.149 21.504C220.065 21.7747 219.916 22.0687 219.701 22.386C219.487 22.694 219.179 23.0673 218.777 23.506L215.431 27.132L220.485 27.118V28H214.171ZM223.117 28V19.278L221.465 20.006V19.068L223.481 18.2H224.139V28H223.117ZM229.01 28V18.2L230.046 17.962V21.812C230.597 21.168 231.334 20.846 232.258 20.846C232.79 20.846 233.257 20.9627 233.658 21.196C234.069 21.42 234.386 21.7373 234.61 22.148C234.843 22.5493 234.96 23.0207 234.96 23.562V28H233.938V23.772C233.938 23.1467 233.761 22.6567 233.406 22.302C233.061 21.938 232.585 21.756 231.978 21.756C231.558 21.756 231.185 21.8493 230.858 22.036C230.531 22.2227 230.261 22.4887 230.046 22.834V28H229.01ZM239.956 28.14C239.293 28.14 238.686 27.9813 238.136 27.664C237.594 27.3373 237.165 26.8987 236.848 26.348C236.53 25.7973 236.372 25.1813 236.372 24.5C236.372 23.8187 236.53 23.2027 236.848 22.652C237.165 22.1013 237.594 21.6673 238.136 21.35C238.686 21.0233 239.293 20.86 239.956 20.86C240.628 20.86 241.234 21.0233 241.776 21.35C242.317 21.6673 242.746 22.1013 243.064 22.652C243.381 23.2027 243.54 23.8187 243.54 24.5C243.54 25.1813 243.381 25.7973 243.064 26.348C242.746 26.8987 242.317 27.3373 241.776 27.664C241.234 27.9813 240.628 28.14 239.956 28.14ZM239.956 27.216C240.432 27.216 240.861 27.0947 241.244 26.852C241.636 26.6093 241.944 26.2827 242.168 25.872C242.401 25.4613 242.518 25.004 242.518 24.5C242.518 23.9867 242.401 23.5293 242.168 23.128C241.944 22.7173 241.636 22.3907 241.244 22.148C240.861 21.9053 240.432 21.784 239.956 21.784C239.48 21.784 239.046 21.9053 238.654 22.148C238.271 22.3907 237.963 22.7173 237.73 23.128C237.506 23.5293 237.394 23.9867 237.394 24.5C237.394 25.004 237.506 25.4613 237.73 25.872C237.963 26.2827 238.271 26.6093 238.654 26.852C239.046 27.0947 239.48 27.216 239.956 27.216ZM247.667 28.14C247.135 28.14 246.663 28.028 246.253 27.804C245.842 27.5707 245.52 27.2533 245.287 26.852C245.063 26.4413 244.951 25.9653 244.951 25.424V20.986H245.973V25.214C245.973 25.8393 246.15 26.334 246.505 26.698C246.859 27.0527 247.335 27.23 247.933 27.23C248.353 27.23 248.726 27.1367 249.053 26.95C249.389 26.754 249.659 26.4833 249.865 26.138V20.986H250.901V28H249.865V27.188C249.314 27.8227 248.581 28.14 247.667 28.14ZM252.662 28V20.986H253.698V21.98C253.913 21.616 254.184 21.336 254.51 21.14C254.846 20.9347 255.229 20.832 255.658 20.832C255.901 20.832 256.12 20.8647 256.316 20.93V21.882C256.195 21.8353 256.074 21.8027 255.952 21.784C255.831 21.7653 255.71 21.756 255.588 21.756C255.159 21.756 254.781 21.882 254.454 22.134C254.137 22.3767 253.885 22.7313 253.698 23.198V28H252.662ZM259.674 28.14C259.095 28.14 258.549 28.0467 258.036 27.86C257.532 27.664 257.093 27.3933 256.72 27.048L257.35 26.376C257.676 26.6747 258.036 26.908 258.428 27.076C258.82 27.2347 259.221 27.314 259.632 27.314C260.192 27.314 260.649 27.1973 261.004 26.964C261.358 26.7307 261.536 26.4273 261.536 26.054C261.536 25.746 261.428 25.508 261.214 25.34C261.008 25.1627 260.682 25.0413 260.234 24.976L259.016 24.808C258.316 24.7053 257.793 24.4953 257.448 24.178C257.112 23.8607 256.944 23.4313 256.944 22.89C256.944 22.498 257.056 22.148 257.28 21.84C257.504 21.532 257.812 21.2893 258.204 21.112C258.605 20.9347 259.062 20.846 259.576 20.846C260.089 20.846 260.57 20.9207 261.018 21.07C261.466 21.2193 261.904 21.4527 262.334 21.77L261.788 22.47C261.396 22.1993 261.013 22.0033 260.64 21.882C260.276 21.7513 259.902 21.686 259.52 21.686C259.034 21.686 258.642 21.7933 258.344 22.008C258.045 22.2227 257.896 22.5027 257.896 22.848C257.896 23.1653 257.998 23.408 258.204 23.576C258.409 23.7347 258.74 23.8467 259.198 23.912L260.416 24.08C261.116 24.1733 261.638 24.3787 261.984 24.696C262.338 25.0133 262.516 25.4473 262.516 25.998C262.516 26.3993 262.39 26.7633 262.138 27.09C261.886 27.4167 261.545 27.6733 261.116 27.86C260.696 28.0467 260.215 28.14 259.674 28.14ZM268.902 28.126C268.388 28.126 267.936 28.0373 267.544 27.86C267.161 27.6827 266.858 27.4353 266.634 27.118C266.419 26.8007 266.312 26.432 266.312 26.012C266.312 25.3493 266.564 24.8267 267.068 24.444C267.572 24.0613 268.253 23.87 269.112 23.87C269.868 23.87 270.554 24.0287 271.17 24.346V23.422C271.17 22.862 271.011 22.442 270.694 22.162C270.376 21.8727 269.914 21.728 269.308 21.728C268.962 21.728 268.612 21.7793 268.258 21.882C267.912 21.9753 267.53 22.1293 267.11 22.344L266.718 21.546C267.222 21.3033 267.688 21.126 268.118 21.014C268.547 20.902 268.976 20.846 269.406 20.846C270.292 20.846 270.974 21.056 271.45 21.476C271.935 21.896 272.178 22.498 272.178 23.282V28H271.17V27.314C270.852 27.5847 270.502 27.79 270.12 27.93C269.746 28.0607 269.34 28.126 268.902 28.126ZM267.306 25.984C267.306 26.376 267.469 26.698 267.796 26.95C268.132 27.1927 268.561 27.314 269.084 27.314C269.504 27.314 269.886 27.2487 270.232 27.118C270.577 26.9873 270.89 26.782 271.17 26.502V25.186C270.88 24.99 270.572 24.85 270.246 24.766C269.919 24.6727 269.55 24.626 269.14 24.626C268.58 24.626 268.132 24.752 267.796 25.004C267.469 25.2467 267.306 25.5733 267.306 25.984ZM277.324 30.996C276.839 30.996 276.358 30.9307 275.882 30.8C275.406 30.6787 274.972 30.5013 274.58 30.268L275.028 29.456C275.448 29.68 275.836 29.8433 276.19 29.946C276.554 30.0487 276.918 30.1 277.282 30.1C277.945 30.1 278.449 29.9413 278.794 29.624C279.14 29.3067 279.312 28.84 279.312 28.224V27.244C278.668 27.7853 277.926 28.056 277.086 28.056C276.442 28.056 275.854 27.8973 275.322 27.58C274.79 27.2627 274.366 26.8333 274.048 26.292C273.74 25.7413 273.586 25.13 273.586 24.458C273.586 23.786 273.74 23.1793 274.048 22.638C274.366 22.0873 274.79 21.6533 275.322 21.336C275.854 21.0187 276.452 20.86 277.114 20.86C277.516 20.86 277.903 20.93 278.276 21.07C278.659 21.21 279.009 21.4153 279.326 21.686V20.986H280.348V28.21C280.348 29.106 280.087 29.792 279.564 30.268C279.042 30.7533 278.295 30.996 277.324 30.996ZM277.17 27.146C277.618 27.146 278.029 27.062 278.402 26.894C278.776 26.726 279.079 26.488 279.312 26.18V22.736C279.079 22.4373 278.771 22.204 278.388 22.036C278.015 21.868 277.609 21.784 277.17 21.784C276.685 21.784 276.246 21.9007 275.854 22.134C275.472 22.3673 275.168 22.6893 274.944 23.1C274.72 23.5013 274.608 23.954 274.608 24.458C274.608 24.962 274.72 25.4193 274.944 25.83C275.178 26.2313 275.486 26.5533 275.868 26.796C276.26 27.0293 276.694 27.146 277.17 27.146ZM285.373 28.14C284.711 28.14 284.104 27.9813 283.553 27.664C283.012 27.3373 282.583 26.8987 282.265 26.348C281.948 25.7973 281.789 25.1813 281.789 24.5C281.789 23.8187 281.948 23.2027 282.265 22.652C282.583 22.1013 283.012 21.6673 283.553 21.35C284.104 21.0233 284.711 20.86 285.373 20.86C286.045 20.86 286.652 21.0233 287.193 21.35C287.735 21.6673 288.164 22.1013 288.481 22.652C288.799 23.2027 288.957 23.8187 288.957 24.5C288.957 25.1813 288.799 25.7973 288.481 26.348C288.164 26.8987 287.735 27.3373 287.193 27.664C286.652 27.9813 286.045 28.14 285.373 28.14ZM285.373 27.216C285.849 27.216 286.279 27.0947 286.661 26.852C287.053 26.6093 287.361 26.2827 287.585 25.872C287.819 25.4613 287.935 25.004 287.935 24.5C287.935 23.9867 287.819 23.5293 287.585 23.128C287.361 22.7173 287.053 22.3907 286.661 22.148C286.279 21.9053 285.849 21.784 285.373 21.784C284.897 21.784 284.463 21.9053 284.071 22.148C283.689 22.3907 283.381 22.7173 283.147 23.128C282.923 23.5293 282.811 23.9867 282.811 24.5C282.811 25.004 282.923 25.4613 283.147 25.872C283.381 26.2827 283.689 26.6093 284.071 26.852C284.463 27.0947 284.897 27.216 285.373 27.216Z" fill="#525263"/>
</svg>
