<svg width="304" height="204" viewBox="0 0 304 204" fill="none" xmlns="http://www.w3.org/2000/svg">
<rect width="304" height="204" fill="white"/>
<path d="M17.5951 73V64.992H14.2911V63.2H22.9151V64.992H19.6251V73H17.5951ZM23.9279 73V63.2L25.8459 62.78V66.308C26.3965 65.8133 27.0779 65.566 27.8899 65.566C28.4592 65.566 28.9585 65.692 29.3879 65.944C29.8265 66.1867 30.1672 66.5273 30.4099 66.966C30.6525 67.3953 30.7739 67.8993 30.7739 68.478V73H28.8559V68.758C28.8559 68.282 28.7205 67.9087 28.4499 67.638C28.1792 67.358 27.8105 67.218 27.3439 67.218C27.0172 67.218 26.7279 67.2833 26.4759 67.414C26.2239 67.5353 26.0139 67.7127 25.8459 67.946V73H23.9279ZM34.5507 73.126C34.028 73.126 33.566 73.0327 33.1647 72.846C32.7634 72.65 32.4507 72.384 32.2267 72.048C32.0027 71.712 31.8907 71.3247 31.8907 70.886C31.8907 70.186 32.152 69.6447 32.6747 69.262C33.2067 68.87 33.9347 68.674 34.8587 68.674C35.4934 68.674 36.0907 68.772 36.6507 68.968V68.436C36.6507 68.016 36.52 67.6987 36.2587 67.484C35.9974 67.2693 35.6147 67.162 35.1107 67.162C34.8027 67.162 34.4714 67.2133 34.1167 67.316C33.762 67.4093 33.3514 67.5587 32.8847 67.764L32.1847 66.35C32.7634 66.0887 33.314 65.8927 33.8367 65.762C34.3687 65.6313 34.9007 65.566 35.4327 65.566C36.4127 65.566 37.1734 65.804 37.7147 66.28C38.2654 66.7467 38.5407 67.4093 38.5407 68.268V73H36.6507V72.482C36.352 72.706 36.03 72.8693 35.6847 72.972C35.3394 73.0747 34.9614 73.126 34.5507 73.126ZM33.7107 70.844C33.7107 71.124 33.832 71.348 34.0747 71.516C34.3174 71.6747 34.6394 71.754 35.0407 71.754C35.358 71.754 35.652 71.7167 35.9227 71.642C36.1934 71.558 36.436 71.4367 36.6507 71.278V70.214C36.4174 70.1207 36.1747 70.0507 35.9227 70.004C35.6707 69.9573 35.4 69.934 35.1107 69.934C34.672 69.934 34.3267 70.018 34.0747 70.186C33.832 70.3447 33.7107 70.564 33.7107 70.844ZM39.9923 73V65.706H41.9103V66.308C42.461 65.8133 43.1423 65.566 43.9543 65.566C44.5237 65.566 45.023 65.692 45.4523 65.944C45.891 66.1867 46.2317 66.5273 46.4743 66.966C46.717 67.3953 46.8383 67.8993 46.8383 68.478V73H44.9203V68.758C44.9203 68.282 44.785 67.9087 44.5143 67.638C44.2437 67.358 43.875 67.218 43.4083 67.218C43.0817 67.218 42.7923 67.2833 42.5403 67.414C42.2883 67.5353 42.0783 67.7127 41.9103 67.946V73H39.9923ZM48.2912 73V63.2L50.2092 62.878V68.772L53.3592 65.706H55.5292L52.0852 69.052L55.7392 73H53.2892L50.2092 69.668V73H48.2912ZM59.7786 76.01C59.6106 76.01 59.4473 76.0007 59.2886 75.982C59.1393 75.9727 59.0133 75.9587 58.9106 75.94V74.288C59.0973 74.3253 59.3213 74.344 59.5826 74.344C60.2826 74.344 60.7679 74.0127 61.0386 73.35L61.1506 73.07L58.3086 65.706H60.4226L62.2426 70.676L64.3006 65.706H66.3726L63.0126 73.588C62.7606 74.176 62.4853 74.6473 62.1866 75.002C61.8879 75.3567 61.5426 75.6133 61.1506 75.772C60.7679 75.9307 60.3106 76.01 59.7786 76.01ZM70.4956 73.14C69.7676 73.14 69.1096 72.972 68.5216 72.636C67.9336 72.3 67.4669 71.8473 67.1216 71.278C66.7763 70.7087 66.6036 70.0693 66.6036 69.36C66.6036 68.6507 66.7716 68.0113 67.1076 67.442C67.4529 66.8633 67.9196 66.406 68.5076 66.07C69.1049 65.734 69.7676 65.566 70.4956 65.566C71.2236 65.566 71.8816 65.734 72.4696 66.07C73.0669 66.406 73.5336 66.8633 73.8696 67.442C74.2149 68.0113 74.3876 68.6507 74.3876 69.36C74.3876 70.0693 74.2149 70.7087 73.8696 71.278C73.5336 71.8473 73.0716 72.3 72.4836 72.636C71.8956 72.972 71.2329 73.14 70.4956 73.14ZM70.4956 71.474C70.8783 71.474 71.2189 71.3807 71.5176 71.194C71.8256 71.0073 72.0683 70.7553 72.2456 70.438C72.4323 70.1113 72.5256 69.752 72.5256 69.36C72.5256 68.9587 72.4323 68.5993 72.2456 68.282C72.0683 67.9647 71.8256 67.7127 71.5176 67.526C71.2189 67.33 70.8783 67.232 70.4956 67.232C70.1223 67.232 69.7816 67.33 69.4736 67.526C69.1656 67.7127 68.9229 67.9647 68.7456 68.282C68.5683 68.5993 68.4796 68.9587 68.4796 69.36C68.4796 69.752 68.5683 70.1113 68.7456 70.438C68.9229 70.7553 69.1656 71.0073 69.4736 71.194C69.7816 71.3807 70.1223 71.474 70.4956 71.474ZM78.3945 73.14C77.8345 73.14 77.3352 73.0187 76.8965 72.776C76.4672 72.524 76.1265 72.1787 75.8745 71.74C75.6319 71.3013 75.5105 70.7973 75.5105 70.228V65.706H77.4285V69.948C77.4285 70.4147 77.5639 70.788 77.8345 71.068C78.1145 71.348 78.4879 71.488 78.9545 71.488C79.2719 71.488 79.5565 71.4273 79.8085 71.306C80.0699 71.1753 80.2845 70.9933 80.4525 70.76V65.706H82.3705V73H80.4525V72.412C79.8925 72.8973 79.2065 73.14 78.3945 73.14ZM84.0614 70.06L83.8234 63.13H85.7694L85.5314 70.06H84.0614ZM84.7894 73.14C84.4814 73.14 84.2154 73.028 83.9914 72.804C83.7674 72.58 83.6554 72.314 83.6554 72.006C83.6554 71.6887 83.7674 71.418 83.9914 71.194C84.2154 70.97 84.4814 70.858 84.7894 70.858C85.1067 70.858 85.3774 70.97 85.6014 71.194C85.8254 71.418 85.9374 71.6887 85.9374 72.006C85.9374 72.314 85.8254 72.58 85.6014 72.804C85.3774 73.028 85.1067 73.14 84.7894 73.14ZM87.4383 70.06L87.2003 63.13H89.1463L88.9083 70.06H87.4383ZM88.1663 73.14C87.8583 73.14 87.5923 73.028 87.3683 72.804C87.1443 72.58 87.0323 72.314 87.0323 72.006C87.0323 71.6887 87.1443 71.418 87.3683 71.194C87.5923 70.97 87.8583 70.858 88.1663 70.858C88.4837 70.858 88.7543 70.97 88.9783 71.194C89.2023 71.418 89.3143 71.6887 89.3143 72.006C89.3143 72.314 89.2023 72.58 88.9783 72.804C88.7543 73.028 88.4837 73.14 88.1663 73.14ZM90.8153 70.06L90.5773 63.13H92.5233L92.2853 70.06H90.8153ZM91.5433 73.14C91.2353 73.14 90.9693 73.028 90.7453 72.804C90.5213 72.58 90.4093 72.314 90.4093 72.006C90.4093 71.6887 90.5213 71.418 90.7453 71.194C90.9693 70.97 91.2353 70.858 91.5433 70.858C91.8606 70.858 92.1313 70.97 92.3553 71.194C92.5793 71.418 92.6913 71.6887 92.6913 72.006C92.6913 72.314 92.5793 72.58 92.3553 72.804C92.1313 73.028 91.8606 73.14 91.5433 73.14ZM101.741 73.154C101.013 73.154 100.336 73.028 99.7106 72.776C99.0853 72.5147 98.5346 72.1553 98.0586 71.698C97.592 71.2313 97.2233 70.6947 96.9526 70.088C96.6913 69.472 96.5606 68.8093 96.5606 68.1C96.5606 67.3907 96.6913 66.7327 96.9526 66.126C97.2233 65.51 97.592 64.9733 98.0586 64.516C98.5346 64.0493 99.0853 63.69 99.7106 63.438C100.336 63.1767 101.013 63.046 101.741 63.046C102.469 63.046 103.145 63.1767 103.771 63.438C104.405 63.69 104.956 64.0493 105.423 64.516C105.899 64.9733 106.267 65.51 106.529 66.126C106.79 66.7327 106.921 67.3907 106.921 68.1C106.921 68.8093 106.79 69.472 106.529 70.088C106.267 70.6947 105.899 71.2313 105.423 71.698C104.956 72.1553 104.405 72.5147 103.771 72.776C103.145 73.028 102.469 73.154 101.741 73.154ZM101.741 71.292C102.189 71.292 102.599 71.2127 102.973 71.054C103.346 70.886 103.673 70.662 103.953 70.382C104.233 70.0927 104.452 69.752 104.611 69.36C104.769 68.968 104.849 68.548 104.849 68.1C104.849 67.6427 104.769 67.2227 104.611 66.84C104.452 66.448 104.233 66.112 103.953 65.832C103.673 65.5427 103.346 65.3187 102.973 65.16C102.599 64.992 102.189 64.908 101.741 64.908C101.302 64.908 100.896 64.992 100.523 65.16C100.149 65.3187 99.8226 65.5427 99.5426 65.832C99.2626 66.112 99.0433 66.448 98.8846 66.84C98.726 67.2227 98.6466 67.638 98.6466 68.086C98.6466 68.5433 98.726 68.968 98.8846 69.36C99.0433 69.752 99.2626 70.0927 99.5426 70.382C99.8226 70.662 100.149 70.886 100.523 71.054C100.896 71.2127 101.302 71.292 101.741 71.292ZM108.201 73V63.2L110.119 62.78V66.308C110.67 65.8133 111.351 65.566 112.163 65.566C112.733 65.566 113.232 65.692 113.661 65.944C114.1 66.1867 114.441 66.5273 114.683 66.966C114.926 67.3953 115.047 67.8993 115.047 68.478V73H113.129V68.758C113.129 68.282 112.994 67.9087 112.723 67.638C112.453 67.358 112.084 67.218 111.617 67.218C111.291 67.218 111.001 67.2833 110.749 67.414C110.497 67.5353 110.287 67.7127 110.119 67.946V73H108.201ZM120.031 76.01C119.863 76.01 119.699 76.0007 119.541 75.982C119.391 75.9727 119.265 75.9587 119.163 75.94V74.288C119.349 74.3253 119.573 74.344 119.835 74.344C120.535 74.344 121.02 74.0127 121.291 73.35L121.403 73.07L118.561 65.706H120.675L122.495 70.676L124.553 65.706H126.625L123.265 73.588C123.013 74.176 122.737 74.6473 122.439 75.002C122.14 75.3567 121.795 75.6133 121.403 75.772C121.02 75.9307 120.563 76.01 120.031 76.01ZM130.762 73.14C130.034 73.14 129.371 72.972 128.774 72.636C128.186 72.3 127.719 71.8473 127.374 71.278C127.028 70.7087 126.856 70.0693 126.856 69.36C126.856 68.6507 127.019 68.0113 127.346 67.442C127.682 66.8727 128.134 66.42 128.704 66.084C129.273 65.748 129.908 65.58 130.608 65.58C131.308 65.58 131.928 65.7527 132.47 66.098C133.011 66.4433 133.436 66.91 133.744 67.498C134.061 68.086 134.22 68.7533 134.22 69.5V70.004H128.816C128.9 70.2933 129.035 70.5547 129.222 70.788C129.418 71.0213 129.656 71.2033 129.936 71.334C130.225 71.4647 130.533 71.53 130.86 71.53C131.186 71.53 131.485 71.4787 131.756 71.376C132.036 71.2733 132.274 71.1287 132.47 70.942L133.73 72.09C133.282 72.454 132.82 72.72 132.344 72.888C131.877 73.056 131.35 73.14 130.762 73.14ZM128.788 68.632H132.33C132.264 68.3427 132.143 68.0907 131.966 67.876C131.798 67.652 131.592 67.4793 131.35 67.358C131.116 67.2273 130.855 67.162 130.566 67.162C130.267 67.162 129.996 67.2227 129.754 67.344C129.511 67.4653 129.306 67.638 129.138 67.862C128.979 68.0767 128.862 68.3333 128.788 68.632ZM138.193 73.14C137.521 73.14 136.9 73.056 136.331 72.888C135.762 72.7107 135.267 72.4587 134.847 72.132L135.799 70.858C136.219 71.138 136.62 71.348 137.003 71.488C137.395 71.628 137.782 71.698 138.165 71.698C138.594 71.698 138.935 71.628 139.187 71.488C139.448 71.3387 139.579 71.1473 139.579 70.914C139.579 70.7273 139.504 70.578 139.355 70.466C139.215 70.354 138.986 70.2747 138.669 70.228L137.269 70.018C136.541 69.906 135.99 69.6727 135.617 69.318C135.244 68.954 135.057 68.478 135.057 67.89C135.057 67.414 135.178 67.008 135.421 66.672C135.673 66.3267 136.023 66.0607 136.471 65.874C136.928 65.678 137.47 65.58 138.095 65.58C138.627 65.58 139.145 65.6547 139.649 65.804C140.162 65.9533 140.643 66.182 141.091 66.49L140.167 67.736C139.766 67.484 139.383 67.302 139.019 67.19C138.655 67.078 138.286 67.022 137.913 67.022C137.568 67.022 137.288 67.0873 137.073 67.218C136.868 67.3487 136.765 67.5213 136.765 67.736C136.765 67.932 136.84 68.086 136.989 68.198C137.138 68.31 137.395 68.3893 137.759 68.436L139.145 68.646C139.873 68.7487 140.428 68.982 140.811 69.346C141.194 69.7007 141.385 70.1627 141.385 70.732C141.385 71.1987 141.245 71.614 140.965 71.978C140.685 72.3327 140.307 72.6173 139.831 72.832C139.355 73.0373 138.809 73.14 138.193 73.14ZM142.536 70.06L142.298 63.13H144.244L144.006 70.06H142.536ZM143.264 73.14C142.956 73.14 142.69 73.028 142.466 72.804C142.242 72.58 142.13 72.314 142.13 72.006C142.13 71.6887 142.242 71.418 142.466 71.194C142.69 70.97 142.956 70.858 143.264 70.858C143.581 70.858 143.852 70.97 144.076 71.194C144.3 71.418 144.412 71.6887 144.412 72.006C144.412 72.314 144.3 72.58 144.076 72.804C143.852 73.028 143.581 73.14 143.264 73.14Z" fill="black"/>
<rect x="14" y="14" width="21" height="21" fill="#228B78"/>
<path d="M24 17L26.1607 22.8393L32 25L26.1607 27.1607L24 33L21.8393 27.1607L16 25L21.8393 22.8393L24 17Z" fill="#FFFCFC"/>
<rect x="39" y="14" width="21" height="21" fill="#228B78"/>
<path d="M49 17L51.1607 22.8393L57 25L51.1607 27.1607L49 33L46.8393 27.1607L41 25L46.8393 22.8393L49 17Z" fill="#FFFCFC"/>
<rect x="64" y="14" width="21" height="21" fill="#228B78"/>
<path d="M74 17L76.1607 22.8393L82 25L76.1607 27.1607L74 33L71.8393 27.1607L66 25L71.8393 22.8393L74 17Z" fill="#FFFCFC"/>
<rect x="89" y="14" width="21" height="21" fill="#228B78"/>
<path d="M99 17L101.161 22.8393L107 25L101.161 27.1607L99 33L96.8393 27.1607L91 25L96.8393 22.8393L99 17Z" fill="#FFFCFC"/>
<rect x="114" y="14" width="21" height="21" fill="#228B78"/>
<path d="M124 17L126.161 22.8393L132 25L126.161 27.1607L124 33L121.839 27.1607L116 25L121.839 22.8393L124 17Z" fill="#FFFCFC"/>
<path d="M17.78 116V107.166H14.238V106.2H22.4V107.166H18.858V116H17.78ZM23.5226 116V106.2L24.5586 105.962V109.812C25.1093 109.168 25.8466 108.846 26.7706 108.846C27.3026 108.846 27.7693 108.963 28.1706 109.196C28.5813 109.42 28.8986 109.737 29.1226 110.148C29.356 110.549 29.4726 111.021 29.4726 111.562V116H28.4506V111.772C28.4506 111.147 28.2733 110.657 27.9186 110.302C27.5733 109.938 27.0973 109.756 26.4906 109.756C26.0706 109.756 25.6973 109.849 25.3706 110.036C25.044 110.223 24.7733 110.489 24.5586 110.834V116H23.5226ZM33.4182 116.126C32.9049 116.126 32.4522 116.037 32.0602 115.86C31.6776 115.683 31.3742 115.435 31.1502 115.118C30.9356 114.801 30.8282 114.432 30.8282 114.012C30.8282 113.349 31.0802 112.827 31.5842 112.444C32.0882 112.061 32.7696 111.87 33.6282 111.87C34.3842 111.87 35.0702 112.029 35.6862 112.346V111.422C35.6862 110.862 35.5276 110.442 35.2102 110.162C34.8929 109.873 34.4309 109.728 33.8242 109.728C33.4789 109.728 33.1289 109.779 32.7742 109.882C32.4289 109.975 32.0462 110.129 31.6262 110.344L31.2342 109.546C31.7382 109.303 32.2049 109.126 32.6342 109.014C33.0636 108.902 33.4929 108.846 33.9222 108.846C34.8089 108.846 35.4902 109.056 35.9662 109.476C36.4516 109.896 36.6942 110.498 36.6942 111.282V116H35.6862V115.314C35.3689 115.585 35.0189 115.79 34.6362 115.93C34.2629 116.061 33.8569 116.126 33.4182 116.126ZM31.8222 113.984C31.8222 114.376 31.9856 114.698 32.3122 114.95C32.6482 115.193 33.0776 115.314 33.6002 115.314C34.0202 115.314 34.4029 115.249 34.7482 115.118C35.0936 114.987 35.4062 114.782 35.6862 114.502V113.186C35.3969 112.99 35.0889 112.85 34.7622 112.766C34.4356 112.673 34.0669 112.626 33.6562 112.626C33.0962 112.626 32.6482 112.752 32.3122 113.004C31.9856 113.247 31.8222 113.573 31.8222 113.984ZM38.425 116V108.986H39.461V109.812C40.0116 109.168 40.749 108.846 41.673 108.846C42.205 108.846 42.6716 108.963 43.073 109.196C43.4836 109.42 43.801 109.737 44.025 110.148C44.2583 110.549 44.375 111.021 44.375 111.562V116H43.353V111.772C43.353 111.147 43.1756 110.657 42.821 110.302C42.4756 109.938 41.9996 109.756 41.393 109.756C40.973 109.756 40.5996 109.849 40.273 110.036C39.9463 110.223 39.6756 110.489 39.461 110.834V116H38.425ZM46.1086 116V106.2L47.1446 105.962V112.15L50.8126 108.986H52.0726L48.2226 112.318L52.2546 116H50.8406L47.1446 112.64V116H46.1086ZM55.1298 116.14C54.5511 116.14 54.0051 116.047 53.4918 115.86C52.9878 115.664 52.5491 115.393 52.1758 115.048L52.8058 114.376C53.1325 114.675 53.4918 114.908 53.8838 115.076C54.2758 115.235 54.6771 115.314 55.0878 115.314C55.6478 115.314 56.1051 115.197 56.4598 114.964C56.8145 114.731 56.9918 114.427 56.9918 114.054C56.9918 113.746 56.8845 113.508 56.6698 113.34C56.4645 113.163 56.1378 113.041 55.6898 112.976L54.4718 112.808C53.7718 112.705 53.2491 112.495 52.9038 112.178C52.5678 111.861 52.3998 111.431 52.3998 110.89C52.3998 110.498 52.5118 110.148 52.7358 109.84C52.9598 109.532 53.2678 109.289 53.6598 109.112C54.0611 108.935 54.5185 108.846 55.0318 108.846C55.5451 108.846 56.0258 108.921 56.4738 109.07C56.9218 109.219 57.3605 109.453 57.7898 109.77L57.2438 110.47C56.8518 110.199 56.4691 110.003 56.0958 109.882C55.7318 109.751 55.3585 109.686 54.9758 109.686C54.4905 109.686 54.0985 109.793 53.7998 110.008C53.5011 110.223 53.3518 110.503 53.3518 110.848C53.3518 111.165 53.4545 111.408 53.6598 111.576C53.8651 111.735 54.1965 111.847 54.6538 111.912L55.8718 112.08C56.5718 112.173 57.0945 112.379 57.4398 112.696C57.7945 113.013 57.9718 113.447 57.9718 113.998C57.9718 114.399 57.8458 114.763 57.5938 115.09C57.3418 115.417 57.0011 115.673 56.5718 115.86C56.1518 116.047 55.6711 116.14 55.1298 116.14ZM64.3577 116.126C63.8443 116.126 63.3917 116.037 62.9997 115.86C62.617 115.683 62.3137 115.435 62.0897 115.118C61.875 114.801 61.7677 114.432 61.7677 114.012C61.7677 113.349 62.0197 112.827 62.5237 112.444C63.0277 112.061 63.709 111.87 64.5677 111.87C65.3237 111.87 66.0097 112.029 66.6257 112.346V111.422C66.6257 110.862 66.467 110.442 66.1497 110.162C65.8323 109.873 65.3703 109.728 64.7637 109.728C64.4183 109.728 64.0683 109.779 63.7137 109.882C63.3683 109.975 62.9857 110.129 62.5657 110.344L62.1737 109.546C62.6777 109.303 63.1443 109.126 63.5737 109.014C64.003 108.902 64.4323 108.846 64.8617 108.846C65.7483 108.846 66.4297 109.056 66.9057 109.476C67.391 109.896 67.6337 110.498 67.6337 111.282V116H66.6257V115.314C66.3083 115.585 65.9583 115.79 65.5757 115.93C65.2023 116.061 64.7963 116.126 64.3577 116.126ZM62.7617 113.984C62.7617 114.376 62.925 114.698 63.2517 114.95C63.5877 115.193 64.017 115.314 64.5397 115.314C64.9597 115.314 65.3423 115.249 65.6877 115.118C66.033 114.987 66.3457 114.782 66.6257 114.502V113.186C66.3363 112.99 66.0283 112.85 65.7017 112.766C65.375 112.673 65.0063 112.626 64.5957 112.626C64.0357 112.626 63.5877 112.752 63.2517 113.004C62.925 113.247 62.7617 113.573 62.7617 113.984ZM72.3722 116V106.2L73.4082 105.962V116H72.3722ZM78.437 116.14C77.7743 116.14 77.1676 115.981 76.617 115.664C76.0756 115.337 75.6463 114.899 75.329 114.348C75.0116 113.797 74.853 113.181 74.853 112.5C74.853 111.819 75.0116 111.203 75.329 110.652C75.6463 110.101 76.0756 109.667 76.617 109.35C77.1676 109.023 77.7743 108.86 78.437 108.86C79.109 108.86 79.7156 109.023 80.257 109.35C80.7983 109.667 81.2276 110.101 81.545 110.652C81.8623 111.203 82.021 111.819 82.021 112.5C82.021 113.181 81.8623 113.797 81.545 114.348C81.2276 114.899 80.7983 115.337 80.257 115.664C79.7156 115.981 79.109 116.14 78.437 116.14ZM78.437 115.216C78.913 115.216 79.3423 115.095 79.725 114.852C80.117 114.609 80.425 114.283 80.649 113.872C80.8823 113.461 80.999 113.004 80.999 112.5C80.999 111.987 80.8823 111.529 80.649 111.128C80.425 110.717 80.117 110.391 79.725 110.148C79.3423 109.905 78.913 109.784 78.437 109.784C77.961 109.784 77.527 109.905 77.135 110.148C76.7523 110.391 76.4443 110.717 76.211 111.128C75.987 111.529 75.875 111.987 75.875 112.5C75.875 113.004 75.987 113.461 76.211 113.872C76.4443 114.283 76.7523 114.609 77.135 114.852C77.527 115.095 77.961 115.216 78.437 115.216ZM85.7259 116.14C85.1193 116.14 84.6526 115.995 84.3259 115.706C83.9993 115.417 83.8359 114.997 83.8359 114.446V109.868H82.3239V108.986H83.8359V107.208L84.8579 106.942V108.986H86.9719V109.868H84.8579V114.18C84.8579 114.553 84.9419 114.824 85.1099 114.992C85.2779 115.151 85.5533 115.23 85.9359 115.23C86.1319 115.23 86.3046 115.216 86.4539 115.188C86.6126 115.16 86.7806 115.113 86.9579 115.048V115.958C86.7806 116.023 86.5799 116.07 86.3559 116.098C86.1413 116.126 85.9313 116.14 85.7259 116.14ZM93.847 116.14C93.2404 116.14 92.7737 115.995 92.447 115.706C92.1204 115.417 91.957 114.997 91.957 114.446V109.868H90.445V108.986H91.957V107.208L92.979 106.942V108.986H95.093V109.868H92.979V114.18C92.979 114.553 93.063 114.824 93.231 114.992C93.399 115.151 93.6744 115.23 94.057 115.23C94.253 115.23 94.4257 115.216 94.575 115.188C94.7337 115.16 94.9017 115.113 95.079 115.048V115.958C94.9017 116.023 94.701 116.07 94.477 116.098C94.2624 116.126 94.0524 116.14 93.847 116.14ZM99.3276 116.14C98.6649 116.14 98.0583 115.981 97.5076 115.664C96.9663 115.337 96.5369 114.899 96.2196 114.348C95.9023 113.797 95.7436 113.181 95.7436 112.5C95.7436 111.819 95.9023 111.203 96.2196 110.652C96.5369 110.101 96.9663 109.667 97.5076 109.35C98.0583 109.023 98.6649 108.86 99.3276 108.86C99.9996 108.86 100.606 109.023 101.148 109.35C101.689 109.667 102.118 110.101 102.436 110.652C102.753 111.203 102.912 111.819 102.912 112.5C102.912 113.181 102.753 113.797 102.436 114.348C102.118 114.899 101.689 115.337 101.148 115.664C100.606 115.981 99.9996 116.14 99.3276 116.14ZM99.3276 115.216C99.8036 115.216 100.233 115.095 100.616 114.852C101.008 114.609 101.316 114.283 101.54 113.872C101.773 113.461 101.89 113.004 101.89 112.5C101.89 111.987 101.773 111.529 101.54 111.128C101.316 110.717 101.008 110.391 100.616 110.148C100.233 109.905 99.8036 109.784 99.3276 109.784C98.8516 109.784 98.4176 109.905 98.0256 110.148C97.6429 110.391 97.3349 110.717 97.1016 111.128C96.8776 111.529 96.7656 111.987 96.7656 112.5C96.7656 113.004 96.8776 113.461 97.1016 113.872C97.3349 114.283 97.6429 114.609 98.0256 114.852C98.4176 115.095 98.8516 115.216 99.3276 115.216ZM110.117 116.14C109.51 116.14 109.043 115.995 108.717 115.706C108.39 115.417 108.227 114.997 108.227 114.446V109.868H106.715V108.986H108.227V107.208L109.249 106.942V108.986H111.363V109.868H109.249V114.18C109.249 114.553 109.333 114.824 109.501 114.992C109.669 115.151 109.944 115.23 110.327 115.23C110.523 115.23 110.695 115.216 110.845 115.188C111.003 115.16 111.171 115.113 111.349 115.048V115.958C111.171 116.023 110.971 116.07 110.747 116.098C110.532 116.126 110.322 116.14 110.117 116.14ZM112.472 116V106.2L113.508 105.962V109.812C114.059 109.168 114.796 108.846 115.72 108.846C116.252 108.846 116.719 108.963 117.12 109.196C117.531 109.42 117.848 109.737 118.072 110.148C118.305 110.549 118.422 111.021 118.422 111.562V116H117.4V111.772C117.4 111.147 117.223 110.657 116.868 110.302C116.523 109.938 116.047 109.756 115.44 109.756C115.02 109.756 114.647 109.849 114.32 110.036C113.993 110.223 113.723 110.489 113.508 110.834V116H112.472ZM123.445 116.126C122.773 116.126 122.162 115.967 121.611 115.65C121.07 115.323 120.636 114.885 120.309 114.334C119.992 113.783 119.833 113.167 119.833 112.486C119.833 111.814 119.987 111.207 120.295 110.666C120.603 110.115 121.019 109.681 121.541 109.364C122.064 109.037 122.647 108.874 123.291 108.874C123.917 108.874 124.477 109.037 124.971 109.364C125.475 109.681 125.872 110.115 126.161 110.666C126.46 111.207 126.609 111.814 126.609 112.486V112.808H120.855C120.911 113.265 121.056 113.676 121.289 114.04C121.532 114.404 121.845 114.693 122.227 114.908C122.61 115.113 123.03 115.216 123.487 115.216C123.851 115.216 124.206 115.16 124.551 115.048C124.897 114.936 125.186 114.777 125.419 114.572L126.063 115.258C125.671 115.547 125.261 115.767 124.831 115.916C124.411 116.056 123.949 116.126 123.445 116.126ZM120.883 111.982H125.573C125.517 111.562 125.377 111.189 125.153 110.862C124.939 110.526 124.668 110.265 124.341 110.078C124.015 109.882 123.655 109.784 123.263 109.784C122.862 109.784 122.493 109.877 122.157 110.064C121.821 110.251 121.541 110.512 121.317 110.848C121.093 111.175 120.949 111.553 120.883 111.982ZM133.824 116.14C133.217 116.14 132.75 115.995 132.424 115.706C132.097 115.417 131.934 114.997 131.934 114.446V109.868H130.422V108.986H131.934V107.208L132.956 106.942V108.986H135.07V109.868H132.956V114.18C132.956 114.553 133.04 114.824 133.208 114.992C133.376 115.151 133.651 115.23 134.034 115.23C134.23 115.23 134.402 115.216 134.552 115.188C134.71 115.16 134.878 115.113 135.056 115.048V115.958C134.878 116.023 134.678 116.07 134.454 116.098C134.239 116.126 134.029 116.14 133.824 116.14ZM139.332 116.126C138.66 116.126 138.049 115.967 137.498 115.65C136.957 115.323 136.523 114.885 136.196 114.334C135.879 113.783 135.72 113.167 135.72 112.486C135.72 111.814 135.874 111.207 136.182 110.666C136.49 110.115 136.905 109.681 137.428 109.364C137.951 109.037 138.534 108.874 139.178 108.874C139.803 108.874 140.363 109.037 140.858 109.364C141.362 109.681 141.759 110.115 142.048 110.666C142.347 111.207 142.496 111.814 142.496 112.486V112.808H136.742C136.798 113.265 136.943 113.676 137.176 114.04C137.419 114.404 137.731 114.693 138.114 114.908C138.497 115.113 138.917 115.216 139.374 115.216C139.738 115.216 140.093 115.16 140.438 115.048C140.783 114.936 141.073 114.777 141.306 114.572L141.95 115.258C141.558 115.547 141.147 115.767 140.718 115.916C140.298 116.056 139.836 116.126 139.332 116.126ZM136.77 111.982H141.46C141.404 111.562 141.264 111.189 141.04 110.862C140.825 110.526 140.555 110.265 140.228 110.078C139.901 109.882 139.542 109.784 139.15 109.784C138.749 109.784 138.38 109.877 138.044 110.064C137.708 110.251 137.428 110.512 137.204 110.848C136.98 111.175 136.835 111.553 136.77 111.982ZM146.02 116.126C145.506 116.126 145.054 116.037 144.662 115.86C144.279 115.683 143.976 115.435 143.752 115.118C143.537 114.801 143.43 114.432 143.43 114.012C143.43 113.349 143.682 112.827 144.186 112.444C144.69 112.061 145.371 111.87 146.23 111.87C146.986 111.87 147.672 112.029 148.288 112.346V111.422C148.288 110.862 148.129 110.442 147.812 110.162C147.494 109.873 147.032 109.728 146.426 109.728C146.08 109.728 145.73 109.779 145.376 109.882C145.03 109.975 144.648 110.129 144.228 110.344L143.836 109.546C144.34 109.303 144.806 109.126 145.236 109.014C145.665 108.902 146.094 108.846 146.524 108.846C147.41 108.846 148.092 109.056 148.568 109.476C149.053 109.896 149.296 110.498 149.296 111.282V116H148.288V115.314C147.97 115.585 147.62 115.79 147.238 115.93C146.864 116.061 146.458 116.126 146.02 116.126ZM144.424 113.984C144.424 114.376 144.587 114.698 144.914 114.95C145.25 115.193 145.679 115.314 146.202 115.314C146.622 115.314 147.004 115.249 147.35 115.118C147.695 114.987 148.008 114.782 148.288 114.502V113.186C147.998 112.99 147.69 112.85 147.364 112.766C147.037 112.673 146.668 112.626 146.258 112.626C145.698 112.626 145.25 112.752 144.914 113.004C144.587 113.247 144.424 113.573 144.424 113.984ZM151.027 116V108.986H152.063V109.756C152.595 109.149 153.281 108.846 154.121 108.846C154.615 108.846 155.054 108.963 155.437 109.196C155.819 109.42 156.118 109.728 156.333 110.12C156.622 109.691 156.967 109.373 157.369 109.168C157.77 108.953 158.227 108.846 158.741 108.846C159.254 108.846 159.702 108.963 160.085 109.196C160.467 109.42 160.766 109.737 160.981 110.148C161.205 110.549 161.317 111.021 161.317 111.562V116H160.295V111.772C160.295 111.147 160.131 110.657 159.805 110.302C159.478 109.938 159.035 109.756 158.475 109.756C158.092 109.756 157.742 109.854 157.425 110.05C157.107 110.237 156.837 110.521 156.613 110.904C156.631 111.007 156.645 111.114 156.655 111.226C156.673 111.329 156.683 111.441 156.683 111.562V116H155.661V111.772C155.661 111.147 155.497 110.657 155.171 110.302C154.844 109.938 154.405 109.756 153.855 109.756C153.481 109.756 153.141 109.845 152.833 110.022C152.534 110.19 152.277 110.442 152.063 110.778V116H151.027ZM167.074 116V109.868H165.422V108.986H167.074V107.656C167.074 106.965 167.26 106.438 167.634 106.074C168.007 105.71 168.544 105.528 169.244 105.528C169.43 105.528 169.598 105.537 169.748 105.556C169.897 105.575 170.042 105.607 170.182 105.654V106.578C170.023 106.531 169.878 106.499 169.748 106.48C169.617 106.452 169.472 106.438 169.314 106.438C168.903 106.438 168.595 106.541 168.39 106.746C168.194 106.942 168.096 107.255 168.096 107.684V108.986H170.182V109.868H168.096V116H167.074ZM174.208 116.14C173.546 116.14 172.939 115.981 172.388 115.664C171.847 115.337 171.418 114.899 171.1 114.348C170.783 113.797 170.624 113.181 170.624 112.5C170.624 111.819 170.783 111.203 171.1 110.652C171.418 110.101 171.847 109.667 172.388 109.35C172.939 109.023 173.546 108.86 174.208 108.86C174.88 108.86 175.487 109.023 176.028 109.35C176.57 109.667 176.999 110.101 177.316 110.652C177.634 111.203 177.792 111.819 177.792 112.5C177.792 113.181 177.634 113.797 177.316 114.348C176.999 114.899 176.57 115.337 176.028 115.664C175.487 115.981 174.88 116.14 174.208 116.14ZM174.208 115.216C174.684 115.216 175.114 115.095 175.496 114.852C175.888 114.609 176.196 114.283 176.42 113.872C176.654 113.461 176.77 113.004 176.77 112.5C176.77 111.987 176.654 111.529 176.42 111.128C176.196 110.717 175.888 110.391 175.496 110.148C175.114 109.905 174.684 109.784 174.208 109.784C173.732 109.784 173.298 109.905 172.906 110.148C172.524 110.391 172.216 110.717 171.982 111.128C171.758 111.529 171.646 111.987 171.646 112.5C171.646 113.004 171.758 113.461 171.982 113.872C172.216 114.283 172.524 114.609 172.906 114.852C173.298 115.095 173.732 115.216 174.208 115.216ZM179.232 116V108.986H180.268V109.98C180.482 109.616 180.753 109.336 181.08 109.14C181.416 108.935 181.798 108.832 182.228 108.832C182.47 108.832 182.69 108.865 182.886 108.93V109.882C182.764 109.835 182.643 109.803 182.522 109.784C182.4 109.765 182.279 109.756 182.158 109.756C181.728 109.756 181.35 109.882 181.024 110.134C180.706 110.377 180.454 110.731 180.268 111.198V116H179.232ZM189.319 116.14C188.741 116.14 188.195 116.047 187.681 115.86C187.177 115.664 186.739 115.393 186.365 115.048L186.995 114.376C187.322 114.675 187.681 114.908 188.073 115.076C188.465 115.235 188.867 115.314 189.277 115.314C189.837 115.314 190.295 115.197 190.649 114.964C191.004 114.731 191.181 114.427 191.181 114.054C191.181 113.746 191.074 113.508 190.859 113.34C190.654 113.163 190.327 113.041 189.879 112.976L188.661 112.808C187.961 112.705 187.439 112.495 187.093 112.178C186.757 111.861 186.589 111.431 186.589 110.89C186.589 110.498 186.701 110.148 186.925 109.84C187.149 109.532 187.457 109.289 187.849 109.112C188.251 108.935 188.708 108.846 189.221 108.846C189.735 108.846 190.215 108.921 190.663 109.07C191.111 109.219 191.55 109.453 191.979 109.77L191.433 110.47C191.041 110.199 190.659 110.003 190.285 109.882C189.921 109.751 189.548 109.686 189.165 109.686C188.68 109.686 188.288 109.793 187.989 110.008C187.691 110.223 187.541 110.503 187.541 110.848C187.541 111.165 187.644 111.408 187.849 111.576C188.055 111.735 188.386 111.847 188.843 111.912L190.061 112.08C190.761 112.173 191.284 112.379 191.629 112.696C191.984 113.013 192.161 113.447 192.161 113.998C192.161 114.399 192.035 114.763 191.783 115.09C191.531 115.417 191.191 115.673 190.761 115.86C190.341 116.047 189.861 116.14 189.319 116.14ZM196.015 116.14C195.483 116.14 195.012 116.028 194.601 115.804C194.191 115.571 193.869 115.253 193.635 114.852C193.411 114.441 193.299 113.965 193.299 113.424V108.986H194.321V113.214C194.321 113.839 194.499 114.334 194.853 114.698C195.208 115.053 195.684 115.23 196.281 115.23C196.701 115.23 197.075 115.137 197.401 114.95C197.737 114.754 198.008 114.483 198.213 114.138V108.986H199.249V116H198.213V115.188C197.663 115.823 196.93 116.14 196.015 116.14ZM204.259 116.126C203.596 116.126 202.994 115.967 202.453 115.65C201.912 115.323 201.482 114.885 201.165 114.334C200.848 113.783 200.689 113.167 200.689 112.486C200.689 111.805 200.848 111.193 201.165 110.652C201.482 110.101 201.912 109.663 202.453 109.336C202.994 109.009 203.596 108.846 204.259 108.846C204.772 108.846 205.267 108.944 205.743 109.14C206.219 109.327 206.639 109.597 207.003 109.952L206.345 110.708C206.065 110.409 205.743 110.185 205.379 110.036C205.024 109.877 204.656 109.798 204.273 109.798C203.797 109.798 203.363 109.919 202.971 110.162C202.588 110.395 202.28 110.717 202.047 111.128C201.823 111.529 201.711 111.982 201.711 112.486C201.711 112.99 201.823 113.447 202.047 113.858C202.28 114.269 202.593 114.595 202.985 114.838C203.377 115.071 203.811 115.188 204.287 115.188C204.67 115.188 205.029 115.113 205.365 114.964C205.71 114.815 206.032 114.595 206.331 114.306L206.975 115.006C206.602 115.361 206.182 115.636 205.715 115.832C205.248 116.028 204.763 116.126 204.259 116.126ZM208.189 116V106.2L209.225 105.962V109.812C209.775 109.168 210.513 108.846 211.437 108.846C211.969 108.846 212.435 108.963 212.837 109.196C213.247 109.42 213.565 109.737 213.789 110.148C214.022 110.549 214.139 111.021 214.139 111.562V116H213.117V111.772C213.117 111.147 212.939 110.657 212.585 110.302C212.239 109.938 211.763 109.756 211.157 109.756C210.737 109.756 210.363 109.849 210.037 110.036C209.71 110.223 209.439 110.489 209.225 110.834V116H208.189ZM18.144 135.14C17.4813 135.14 16.8747 134.981 16.324 134.664C15.7827 134.337 15.3533 133.899 15.036 133.348C14.7187 132.797 14.56 132.181 14.56 131.5C14.56 130.819 14.7187 130.203 15.036 129.652C15.3533 129.101 15.7827 128.667 16.324 128.35C16.8747 128.023 17.4813 127.86 18.144 127.86C18.816 127.86 19.4227 128.023 19.964 128.35C20.5053 128.667 20.9347 129.101 21.252 129.652C21.5693 130.203 21.728 130.819 21.728 131.5C21.728 132.181 21.5693 132.797 21.252 133.348C20.9347 133.899 20.5053 134.337 19.964 134.664C19.4227 134.981 18.816 135.14 18.144 135.14ZM18.144 134.216C18.62 134.216 19.0493 134.095 19.432 133.852C19.824 133.609 20.132 133.283 20.356 132.872C20.5893 132.461 20.706 132.004 20.706 131.5C20.706 130.987 20.5893 130.529 20.356 130.128C20.132 129.717 19.824 129.391 19.432 129.148C19.0493 128.905 18.62 128.784 18.144 128.784C17.668 128.784 17.234 128.905 16.842 129.148C16.4593 129.391 16.1513 129.717 15.918 130.128C15.694 130.529 15.582 130.987 15.582 131.5C15.582 132.004 15.694 132.461 15.918 132.872C16.1513 133.283 16.4593 133.609 16.842 133.852C17.234 134.095 17.668 134.216 18.144 134.216ZM23.1672 137.856V127.986H24.1892V128.742C24.7958 128.163 25.5518 127.874 26.4572 127.874C27.1198 127.874 27.7172 128.037 28.2492 128.364C28.7812 128.681 29.2012 129.111 29.5092 129.652C29.8265 130.193 29.9852 130.805 29.9852 131.486C29.9852 132.167 29.8265 132.783 29.5092 133.334C29.2012 133.875 28.7812 134.309 28.2492 134.636C27.7172 134.953 27.1152 135.112 26.4432 135.112C26.0325 135.112 25.6358 135.042 25.2532 134.902C24.8705 134.762 24.5205 134.561 24.2032 134.3V137.856H23.1672ZM26.3592 134.202C26.8538 134.202 27.2972 134.085 27.6892 133.852C28.0812 133.609 28.3892 133.287 28.6132 132.886C28.8465 132.475 28.9632 132.013 28.9632 131.5C28.9632 130.987 28.8465 130.525 28.6132 130.114C28.3892 129.703 28.0812 129.381 27.6892 129.148C27.2972 128.905 26.8538 128.784 26.3592 128.784C25.9205 128.784 25.5098 128.873 25.1272 129.05C24.7538 129.218 24.4458 129.456 24.2032 129.764V133.236C24.4458 133.535 24.7585 133.773 25.1412 133.95C25.5238 134.118 25.9298 134.202 26.3592 134.202ZM31.425 137.856V127.986H32.447V128.742C33.0536 128.163 33.8096 127.874 34.715 127.874C35.3776 127.874 35.975 128.037 36.507 128.364C37.039 128.681 37.459 129.111 37.767 129.652C38.0843 130.193 38.243 130.805 38.243 131.486C38.243 132.167 38.0843 132.783 37.767 133.334C37.459 133.875 37.039 134.309 36.507 134.636C35.975 134.953 35.373 135.112 34.701 135.112C34.2903 135.112 33.8936 135.042 33.511 134.902C33.1283 134.762 32.7783 134.561 32.461 134.3V137.856H31.425ZM34.617 134.202C35.1116 134.202 35.555 134.085 35.947 133.852C36.339 133.609 36.647 133.287 36.871 132.886C37.1043 132.475 37.221 132.013 37.221 131.5C37.221 130.987 37.1043 130.525 36.871 130.114C36.647 129.703 36.339 129.381 35.947 129.148C35.555 128.905 35.1116 128.784 34.617 128.784C34.1783 128.784 33.7676 128.873 33.385 129.05C33.0116 129.218 32.7036 129.456 32.461 129.764V133.236C32.7036 133.535 33.0163 133.773 33.399 133.95C33.7816 134.118 34.1876 134.202 34.617 134.202ZM42.9448 135.14C42.2821 135.14 41.6754 134.981 41.1248 134.664C40.5834 134.337 40.1541 133.899 39.8368 133.348C39.5194 132.797 39.3608 132.181 39.3608 131.5C39.3608 130.819 39.5194 130.203 39.8368 129.652C40.1541 129.101 40.5834 128.667 41.1248 128.35C41.6754 128.023 42.2821 127.86 42.9448 127.86C43.6168 127.86 44.2234 128.023 44.7648 128.35C45.3061 128.667 45.7354 129.101 46.0528 129.652C46.3701 130.203 46.5288 130.819 46.5288 131.5C46.5288 132.181 46.3701 132.797 46.0528 133.348C45.7354 133.899 45.3061 134.337 44.7648 134.664C44.2234 134.981 43.6168 135.14 42.9448 135.14ZM42.9448 134.216C43.4208 134.216 43.8501 134.095 44.2328 133.852C44.6248 133.609 44.9328 133.283 45.1568 132.872C45.3901 132.461 45.5068 132.004 45.5068 131.5C45.5068 130.987 45.3901 130.529 45.1568 130.128C44.9328 129.717 44.6248 129.391 44.2328 129.148C43.8501 128.905 43.4208 128.784 42.9448 128.784C42.4688 128.784 42.0348 128.905 41.6428 129.148C41.2601 129.391 40.9521 129.717 40.7188 130.128C40.4948 130.529 40.3828 130.987 40.3828 131.5C40.3828 132.004 40.4948 132.461 40.7188 132.872C40.9521 133.283 41.2601 133.609 41.6428 133.852C42.0348 134.095 42.4688 134.216 42.9448 134.216ZM47.9679 135V127.986H49.0039V128.98C49.2186 128.616 49.4893 128.336 49.8159 128.14C50.1519 127.935 50.5346 127.832 50.9639 127.832C51.2066 127.832 51.4259 127.865 51.6219 127.93V128.882C51.5006 128.835 51.3793 128.803 51.2579 128.784C51.1366 128.765 51.0153 128.756 50.8939 128.756C50.4646 128.756 50.0866 128.882 49.7599 129.134C49.4426 129.377 49.1906 129.731 49.0039 130.198V135H47.9679ZM55.5658 135.14C54.9591 135.14 54.4924 134.995 54.1658 134.706C53.8391 134.417 53.6758 133.997 53.6758 133.446V128.868H52.1638V127.986H53.6758V126.208L54.6978 125.942V127.986H56.8118V128.868H54.6978V133.18C54.6978 133.553 54.7818 133.824 54.9498 133.992C55.1178 134.151 55.3931 134.23 55.7758 134.23C55.9718 134.23 56.1444 134.216 56.2938 134.188C56.4524 134.16 56.6204 134.113 56.7978 134.048V134.958C56.6204 135.023 56.4198 135.07 56.1958 135.098C55.9811 135.126 55.7711 135.14 55.5658 135.14ZM60.6091 135.14C60.0771 135.14 59.6057 135.028 59.1951 134.804C58.7844 134.571 58.4624 134.253 58.2291 133.852C58.0051 133.441 57.8931 132.965 57.8931 132.424V127.986H58.9151V132.214C58.9151 132.839 59.0924 133.334 59.4471 133.698C59.8017 134.053 60.2777 134.23 60.8751 134.23C61.2951 134.23 61.6684 134.137 61.9951 133.95C62.3311 133.754 62.6017 133.483 62.8071 133.138V127.986H63.8431V135H62.8071V134.188C62.2564 134.823 61.5237 135.14 60.6091 135.14ZM65.6047 135V127.986H66.6407V128.812C67.1913 128.168 67.9287 127.846 68.8527 127.846C69.3847 127.846 69.8513 127.963 70.2527 128.196C70.6633 128.42 70.9807 128.737 71.2047 129.148C71.438 129.549 71.5547 130.021 71.5547 130.562V135H70.5327V130.772C70.5327 130.147 70.3553 129.657 70.0007 129.302C69.6553 128.938 69.1793 128.756 68.5727 128.756C68.1527 128.756 67.7793 128.849 67.4527 129.036C67.126 129.223 66.8553 129.489 66.6407 129.834V135H65.6047ZM73.2883 135V127.986H74.3243V135H73.2883ZM73.8063 126.642C73.6196 126.642 73.4563 126.572 73.3163 126.432C73.1763 126.292 73.1063 126.129 73.1063 125.942C73.1063 125.746 73.1763 125.583 73.3163 125.452C73.4563 125.312 73.6196 125.242 73.8063 125.242C74.0023 125.242 74.1656 125.312 74.2963 125.452C74.4363 125.583 74.5063 125.746 74.5063 125.942C74.5063 126.129 74.4363 126.292 74.2963 126.432C74.1656 126.572 74.0023 126.642 73.8063 126.642ZM78.849 135.14C78.2423 135.14 77.7757 134.995 77.449 134.706C77.1223 134.417 76.959 133.997 76.959 133.446V128.868H75.447V127.986H76.959V126.208L77.981 125.942V127.986H80.095V128.868H77.981V133.18C77.981 133.553 78.065 133.824 78.233 133.992C78.401 134.151 78.6763 134.23 79.059 134.23C79.255 134.23 79.4277 134.216 79.577 134.188C79.7357 134.16 79.9037 134.113 80.081 134.048V134.958C79.9037 135.023 79.703 135.07 79.479 135.098C79.2643 135.126 79.0543 135.14 78.849 135.14ZM81.2043 135V127.986H82.2403V135H81.2043ZM81.7223 126.642C81.5356 126.642 81.3723 126.572 81.2323 126.432C81.0923 126.292 81.0223 126.129 81.0223 125.942C81.0223 125.746 81.0923 125.583 81.2323 125.452C81.3723 125.312 81.5356 125.242 81.7223 125.242C81.9183 125.242 82.0816 125.312 82.2123 125.452C82.3523 125.583 82.4223 125.746 82.4223 125.942C82.4223 126.129 82.3523 126.292 82.2123 126.432C82.0816 126.572 81.9183 126.642 81.7223 126.642ZM87.297 135.126C86.625 135.126 86.0137 134.967 85.463 134.65C84.9217 134.323 84.4877 133.885 84.161 133.334C83.8437 132.783 83.685 132.167 83.685 131.486C83.685 130.814 83.839 130.207 84.147 129.666C84.455 129.115 84.8703 128.681 85.393 128.364C85.9157 128.037 86.499 127.874 87.143 127.874C87.7683 127.874 88.3283 128.037 88.823 128.364C89.327 128.681 89.7237 129.115 90.013 129.666C90.3117 130.207 90.461 130.814 90.461 131.486V131.808H84.707C84.763 132.265 84.9077 132.676 85.141 133.04C85.3837 133.404 85.6963 133.693 86.079 133.908C86.4617 134.113 86.8817 134.216 87.339 134.216C87.703 134.216 88.0577 134.16 88.403 134.048C88.7483 133.936 89.0377 133.777 89.271 133.572L89.915 134.258C89.523 134.547 89.1123 134.767 88.683 134.916C88.263 135.056 87.801 135.126 87.297 135.126ZM84.735 130.982H89.425C89.369 130.562 89.229 130.189 89.005 129.862C88.7903 129.526 88.5197 129.265 88.193 129.078C87.8663 128.882 87.507 128.784 87.115 128.784C86.7137 128.784 86.345 128.877 86.009 129.064C85.673 129.251 85.393 129.512 85.169 129.848C84.945 130.175 84.8003 130.553 84.735 130.982ZM94.2177 135.14C93.639 135.14 93.093 135.047 92.5797 134.86C92.0757 134.664 91.637 134.393 91.2637 134.048L91.8937 133.376C92.2204 133.675 92.5797 133.908 92.9717 134.076C93.3637 134.235 93.765 134.314 94.1757 134.314C94.7357 134.314 95.193 134.197 95.5477 133.964C95.9024 133.731 96.0797 133.427 96.0797 133.054C96.0797 132.746 95.9724 132.508 95.7577 132.34C95.5524 132.163 95.2257 132.041 94.7777 131.976L93.5597 131.808C92.8597 131.705 92.337 131.495 91.9917 131.178C91.6557 130.861 91.4877 130.431 91.4877 129.89C91.4877 129.498 91.5997 129.148 91.8237 128.84C92.0477 128.532 92.3557 128.289 92.7477 128.112C93.149 127.935 93.6064 127.846 94.1197 127.846C94.633 127.846 95.1137 127.921 95.5617 128.07C96.0097 128.219 96.4484 128.453 96.8777 128.77L96.3317 129.47C95.9397 129.199 95.557 129.003 95.1837 128.882C94.8197 128.751 94.4464 128.686 94.0637 128.686C93.5784 128.686 93.1864 128.793 92.8877 129.008C92.589 129.223 92.4397 129.503 92.4397 129.848C92.4397 130.165 92.5424 130.408 92.7477 130.576C92.953 130.735 93.2844 130.847 93.7417 130.912L94.9597 131.08C95.6597 131.173 96.1824 131.379 96.5277 131.696C96.8824 132.013 97.0597 132.447 97.0597 132.998C97.0597 133.399 96.9337 133.763 96.6817 134.09C96.4297 134.417 96.089 134.673 95.6597 134.86C95.2397 135.047 94.759 135.14 94.2177 135.14ZM98.3098 132.284L98.1838 125.13H99.2618L99.1358 132.284H98.3098ZM98.7298 135.084C98.5338 135.084 98.3658 135.014 98.2258 134.874C98.0858 134.734 98.0158 134.566 98.0158 134.37C98.0158 134.174 98.0858 134.006 98.2258 133.866C98.3658 133.726 98.5338 133.656 98.7298 133.656C98.9258 133.656 99.0938 133.726 99.2338 133.866C99.3738 134.006 99.4438 134.174 99.4438 134.37C99.4438 134.566 99.3738 134.734 99.2338 134.874C99.0938 135.014 98.9258 135.084 98.7298 135.084Z" fill="black"/>
<path d="M19.686 185.154C18.9766 185.154 18.314 185.023 17.698 184.762C17.0913 184.501 16.5546 184.141 16.088 183.684C15.6306 183.217 15.2713 182.681 15.01 182.074C14.7486 181.458 14.618 180.8 14.618 180.1C14.618 179.4 14.744 178.747 14.996 178.14C15.2573 177.524 15.6166 176.987 16.074 176.53C16.5406 176.063 17.0773 175.699 17.684 175.438C18.3 175.177 18.9626 175.046 19.672 175.046C20.428 175.046 21.142 175.186 21.814 175.466C22.486 175.746 23.06 176.143 23.536 176.656L22.808 177.398C22.4346 176.969 21.968 176.637 21.408 176.404C20.8573 176.161 20.2786 176.04 19.672 176.04C19.112 176.04 18.5893 176.143 18.104 176.348C17.628 176.553 17.208 176.843 16.844 177.216C16.4893 177.58 16.2093 178.009 16.004 178.504C15.808 178.989 15.71 179.521 15.71 180.1C15.71 180.669 15.808 181.201 16.004 181.696C16.2093 182.191 16.4893 182.625 16.844 182.998C17.208 183.362 17.628 183.647 18.104 183.852C18.5893 184.057 19.112 184.16 19.672 184.16C20.3346 184.16 20.932 184.015 21.464 183.726C22.0053 183.437 22.4393 183.04 22.766 182.536C23.102 182.032 23.298 181.463 23.354 180.828H19.84V179.876H24.446V180.31C24.446 180.991 24.3246 181.626 24.082 182.214C23.8393 182.802 23.5033 183.315 23.074 183.754C22.6446 184.193 22.1406 184.538 21.562 184.79C20.9833 185.033 20.358 185.154 19.686 185.154ZM25.9172 185V175.2L26.9532 174.962V185H25.9172ZM32.0099 185.126C31.3379 185.126 30.7266 184.967 30.1759 184.65C29.6346 184.323 29.2006 183.885 28.8739 183.334C28.5566 182.783 28.3979 182.167 28.3979 181.486C28.3979 180.814 28.5519 180.207 28.8599 179.666C29.1679 179.115 29.5832 178.681 30.1059 178.364C30.6286 178.037 31.2119 177.874 31.8559 177.874C32.4812 177.874 33.0412 178.037 33.5359 178.364C34.0399 178.681 34.4366 179.115 34.7259 179.666C35.0246 180.207 35.1739 180.814 35.1739 181.486V181.808H29.4199C29.4759 182.265 29.6206 182.676 29.8539 183.04C30.0966 183.404 30.4092 183.693 30.7919 183.908C31.1746 184.113 31.5946 184.216 32.0519 184.216C32.4159 184.216 32.7706 184.16 33.1159 184.048C33.4612 183.936 33.7506 183.777 33.9839 183.572L34.6279 184.258C34.2359 184.547 33.8252 184.767 33.3959 184.916C32.9759 185.056 32.5139 185.126 32.0099 185.126ZM29.4479 180.982H34.1379C34.0819 180.562 33.9419 180.189 33.7179 179.862C33.5032 179.526 33.2326 179.265 32.9059 179.078C32.5792 178.882 32.2199 178.784 31.8279 178.784C31.4266 178.784 31.0579 178.877 30.7219 179.064C30.3859 179.251 30.1059 179.512 29.8819 179.848C29.6579 180.175 29.5132 180.553 29.4479 180.982ZM36.6222 185V175.2L37.6582 174.962V178.728C38.2556 178.159 39.0069 177.874 39.9122 177.874C40.5749 177.874 41.1722 178.037 41.7042 178.364C42.2362 178.681 42.6562 179.111 42.9642 179.652C43.2816 180.193 43.4402 180.805 43.4402 181.486C43.4402 182.167 43.2816 182.783 42.9642 183.334C42.6562 183.875 42.2362 184.309 41.7042 184.636C41.1722 184.953 40.5702 185.112 39.8982 185.112C39.4876 185.112 39.0862 185.042 38.6942 184.902C38.3116 184.762 37.9616 184.561 37.6442 184.3V185H36.6222ZM39.8142 184.202C40.3089 184.202 40.7522 184.085 41.1442 183.852C41.5362 183.609 41.8442 183.287 42.0682 182.886C42.3016 182.475 42.4182 182.013 42.4182 181.5C42.4182 180.987 42.3016 180.525 42.0682 180.114C41.8442 179.703 41.5362 179.381 41.1442 179.148C40.7522 178.905 40.3089 178.784 39.8142 178.784C39.3756 178.784 38.9649 178.873 38.5822 179.05C38.2089 179.218 37.9009 179.456 37.6582 179.764V183.236C37.9009 183.535 38.2136 183.773 38.5962 183.95C38.9789 184.118 39.3849 184.202 39.8142 184.202Z" fill="#525263"/>
<path d="M214.489 28V19.278L212.837 20.006V19.068L214.853 18.2H215.511V28H214.489ZM222.442 28V25.382H216.87V24.57L222.372 18.2H223.464V24.5H224.64V25.382H223.464V28H222.442ZM218.13 24.5H222.442V19.502L218.13 24.5ZM229.05 28V18.2L230.086 17.962V21.812C230.637 21.168 231.374 20.846 232.298 20.846C232.83 20.846 233.297 20.9627 233.698 21.196C234.109 21.42 234.426 21.7373 234.65 22.148C234.883 22.5493 235 23.0207 235 23.562V28H233.978V23.772C233.978 23.1467 233.801 22.6567 233.446 22.302C233.101 21.938 232.625 21.756 232.018 21.756C231.598 21.756 231.225 21.8493 230.898 22.036C230.571 22.2227 230.301 22.4887 230.086 22.834V28H229.05ZM239.996 28.14C239.333 28.14 238.726 27.9813 238.176 27.664C237.634 27.3373 237.205 26.8987 236.888 26.348C236.57 25.7973 236.412 25.1813 236.412 24.5C236.412 23.8187 236.57 23.2027 236.888 22.652C237.205 22.1013 237.634 21.6673 238.176 21.35C238.726 21.0233 239.333 20.86 239.996 20.86C240.668 20.86 241.274 21.0233 241.816 21.35C242.357 21.6673 242.786 22.1013 243.104 22.652C243.421 23.2027 243.58 23.8187 243.58 24.5C243.58 25.1813 243.421 25.7973 243.104 26.348C242.786 26.8987 242.357 27.3373 241.816 27.664C241.274 27.9813 240.668 28.14 239.996 28.14ZM239.996 27.216C240.472 27.216 240.901 27.0947 241.284 26.852C241.676 26.6093 241.984 26.2827 242.208 25.872C242.441 25.4613 242.558 25.004 242.558 24.5C242.558 23.9867 242.441 23.5293 242.208 23.128C241.984 22.7173 241.676 22.3907 241.284 22.148C240.901 21.9053 240.472 21.784 239.996 21.784C239.52 21.784 239.086 21.9053 238.694 22.148C238.311 22.3907 238.003 22.7173 237.77 23.128C237.546 23.5293 237.434 23.9867 237.434 24.5C237.434 25.004 237.546 25.4613 237.77 25.872C238.003 26.2827 238.311 26.6093 238.694 26.852C239.086 27.0947 239.52 27.216 239.996 27.216ZM247.707 28.14C247.175 28.14 246.703 28.028 246.293 27.804C245.882 27.5707 245.56 27.2533 245.327 26.852C245.103 26.4413 244.991 25.9653 244.991 25.424V20.986H246.013V25.214C246.013 25.8393 246.19 26.334 246.545 26.698C246.899 27.0527 247.375 27.23 247.973 27.23C248.393 27.23 248.766 27.1367 249.093 26.95C249.429 26.754 249.699 26.4833 249.905 26.138V20.986H250.941V28H249.905V27.188C249.354 27.8227 248.621 28.14 247.707 28.14ZM252.702 28V20.986H253.738V21.98C253.953 21.616 254.224 21.336 254.55 21.14C254.886 20.9347 255.269 20.832 255.698 20.832C255.941 20.832 256.16 20.8647 256.356 20.93V21.882C256.235 21.8353 256.114 21.8027 255.992 21.784C255.871 21.7653 255.75 21.756 255.628 21.756C255.199 21.756 254.821 21.882 254.494 22.134C254.177 22.3767 253.925 22.7313 253.738 23.198V28H252.702ZM259.714 28.14C259.135 28.14 258.589 28.0467 258.076 27.86C257.572 27.664 257.133 27.3933 256.76 27.048L257.39 26.376C257.716 26.6747 258.076 26.908 258.468 27.076C258.86 27.2347 259.261 27.314 259.672 27.314C260.232 27.314 260.689 27.1973 261.044 26.964C261.398 26.7307 261.576 26.4273 261.576 26.054C261.576 25.746 261.468 25.508 261.254 25.34C261.048 25.1627 260.722 25.0413 260.274 24.976L259.056 24.808C258.356 24.7053 257.833 24.4953 257.488 24.178C257.152 23.8607 256.984 23.4313 256.984 22.89C256.984 22.498 257.096 22.148 257.32 21.84C257.544 21.532 257.852 21.2893 258.244 21.112C258.645 20.9347 259.102 20.846 259.616 20.846C260.129 20.846 260.61 20.9207 261.058 21.07C261.506 21.2193 261.944 21.4527 262.374 21.77L261.828 22.47C261.436 22.1993 261.053 22.0033 260.68 21.882C260.316 21.7513 259.942 21.686 259.56 21.686C259.074 21.686 258.682 21.7933 258.384 22.008C258.085 22.2227 257.936 22.5027 257.936 22.848C257.936 23.1653 258.038 23.408 258.244 23.576C258.449 23.7347 258.78 23.8467 259.238 23.912L260.456 24.08C261.156 24.1733 261.678 24.3787 262.024 24.696C262.378 25.0133 262.556 25.4473 262.556 25.998C262.556 26.3993 262.43 26.7633 262.178 27.09C261.926 27.4167 261.585 27.6733 261.156 27.86C260.736 28.0467 260.255 28.14 259.714 28.14ZM268.942 28.126C268.428 28.126 267.976 28.0373 267.584 27.86C267.201 27.6827 266.898 27.4353 266.674 27.118C266.459 26.8007 266.352 26.432 266.352 26.012C266.352 25.3493 266.604 24.8267 267.108 24.444C267.612 24.0613 268.293 23.87 269.152 23.87C269.908 23.87 270.594 24.0287 271.21 24.346V23.422C271.21 22.862 271.051 22.442 270.734 22.162C270.416 21.8727 269.954 21.728 269.348 21.728C269.002 21.728 268.652 21.7793 268.298 21.882C267.952 21.9753 267.57 22.1293 267.15 22.344L266.758 21.546C267.262 21.3033 267.728 21.126 268.158 21.014C268.587 20.902 269.016 20.846 269.446 20.846C270.332 20.846 271.014 21.056 271.49 21.476C271.975 21.896 272.218 22.498 272.218 23.282V28H271.21V27.314C270.892 27.5847 270.542 27.79 270.16 27.93C269.786 28.0607 269.38 28.126 268.942 28.126ZM267.346 25.984C267.346 26.376 267.509 26.698 267.836 26.95C268.172 27.1927 268.601 27.314 269.124 27.314C269.544 27.314 269.926 27.2487 270.272 27.118C270.617 26.9873 270.93 26.782 271.21 26.502V25.186C270.92 24.99 270.612 24.85 270.286 24.766C269.959 24.6727 269.59 24.626 269.18 24.626C268.62 24.626 268.172 24.752 267.836 25.004C267.509 25.2467 267.346 25.5733 267.346 25.984ZM277.364 30.996C276.879 30.996 276.398 30.9307 275.922 30.8C275.446 30.6787 275.012 30.5013 274.62 30.268L275.068 29.456C275.488 29.68 275.876 29.8433 276.23 29.946C276.594 30.0487 276.958 30.1 277.322 30.1C277.985 30.1 278.489 29.9413 278.834 29.624C279.18 29.3067 279.352 28.84 279.352 28.224V27.244C278.708 27.7853 277.966 28.056 277.126 28.056C276.482 28.056 275.894 27.8973 275.362 27.58C274.83 27.2627 274.406 26.8333 274.088 26.292C273.78 25.7413 273.626 25.13 273.626 24.458C273.626 23.786 273.78 23.1793 274.088 22.638C274.406 22.0873 274.83 21.6533 275.362 21.336C275.894 21.0187 276.492 20.86 277.154 20.86C277.556 20.86 277.943 20.93 278.316 21.07C278.699 21.21 279.049 21.4153 279.366 21.686V20.986H280.388V28.21C280.388 29.106 280.127 29.792 279.604 30.268C279.082 30.7533 278.335 30.996 277.364 30.996ZM277.21 27.146C277.658 27.146 278.069 27.062 278.442 26.894C278.816 26.726 279.119 26.488 279.352 26.18V22.736C279.119 22.4373 278.811 22.204 278.428 22.036C278.055 21.868 277.649 21.784 277.21 21.784C276.725 21.784 276.286 21.9007 275.894 22.134C275.512 22.3673 275.208 22.6893 274.984 23.1C274.76 23.5013 274.648 23.954 274.648 24.458C274.648 24.962 274.76 25.4193 274.984 25.83C275.218 26.2313 275.526 26.5533 275.908 26.796C276.3 27.0293 276.734 27.146 277.21 27.146ZM285.414 28.14C284.751 28.14 284.144 27.9813 283.594 27.664C283.052 27.3373 282.623 26.8987 282.306 26.348C281.988 25.7973 281.83 25.1813 281.83 24.5C281.83 23.8187 281.988 23.2027 282.306 22.652C282.623 22.1013 283.052 21.6673 283.594 21.35C284.144 21.0233 284.751 20.86 285.414 20.86C286.086 20.86 286.692 21.0233 287.234 21.35C287.775 21.6673 288.204 22.1013 288.522 22.652C288.839 23.2027 288.998 23.8187 288.998 24.5C288.998 25.1813 288.839 25.7973 288.522 26.348C288.204 26.8987 287.775 27.3373 287.234 27.664C286.692 27.9813 286.086 28.14 285.414 28.14ZM285.414 27.216C285.89 27.216 286.319 27.0947 286.702 26.852C287.094 26.6093 287.402 26.2827 287.626 25.872C287.859 25.4613 287.976 25.004 287.976 24.5C287.976 23.9867 287.859 23.5293 287.626 23.128C287.402 22.7173 287.094 22.3907 286.702 22.148C286.319 21.9053 285.89 21.784 285.414 21.784C284.938 21.784 284.504 21.9053 284.112 22.148C283.729 22.3907 283.421 22.7173 283.188 23.128C282.964 23.5293 282.852 23.9867 282.852 24.5C282.852 25.004 282.964 25.4613 283.188 25.872C283.421 26.2827 283.729 26.6093 284.112 26.852C284.504 27.0947 284.938 27.216 285.414 27.216Z" fill="#525263"/>
</svg>
