<svg width="316" height="224" viewBox="0 0 316 224" fill="none" xmlns="http://www.w3.org/2000/svg">
<path opacity="0.18" d="M191.909 8.25471C205.098 14.784 216.043 24.6615 226.289 35.0781C240.17 49.1997 257.861 59.0848 274.018 70.5187C292.353 83.4862 309.925 100.128 314.054 121.569C315.812 130.68 314.969 140.132 312.845 149.182C310.419 159.829 306.049 169.986 299.934 179.186C287.366 197.772 267.184 211.135 245.046 217.763C222.908 224.391 199.02 224.596 176.286 220.283C164.409 218.044 152.676 214.589 140.569 214.293C131.397 214.065 122.273 215.66 113.212 216.814C85.3071 220.367 55.5803 219.501 30.8887 206.594C15.4724 198.456 2.00504 184.562 0.21522 167.798C-1.8371 148.59 11.1371 132.039 24.2783 118.95C35.0058 108.313 44.3535 96.4823 52.1199 83.714C55.5564 78.1185 59.0883 73.6847 61.1963 67.3299C63.2168 61.2562 64.4657 54.9622 66.8442 48.9871C69.5655 42.1899 73.7433 36.0096 79.1104 30.8416C87.8129 22.4902 99.1723 17.1756 110.293 12.0356C116.816 8.99875 123.355 6.00741 130.228 3.85121C146.103 -1.08455 163.178 -1.28055 179.173 3.28938C183.57 4.56435 187.834 6.22661 191.909 8.25471Z" fill="#96F4CE"/>
<path d="M186.609 175.188C187.835 175.478 188.976 176.034 189.942 176.812C192.456 179.09 191.231 183.448 188.446 185.429C185.662 187.411 181.987 187.707 178.527 188.003C167.033 188.943 155.601 190.479 144.282 192.604C133.264 194.677 122.088 197.304 110.776 196.909C106.799 196.772 97.0145 196.59 94.1428 193.508C90.4518 189.544 98.335 184.951 101.62 182.78C115.143 173.813 131.005 175.848 146.636 173.593C159.881 171.68 173.714 171.217 186.609 175.188Z" fill="url(#paint0_linear_246_5)"/>
<path d="M242.531 153.595C240.693 154.142 238.824 155.023 237.829 156.594C237.345 157.524 236.961 158.498 236.684 159.502C236.029 161.254 234.976 162.847 233.601 164.166C232.225 165.485 230.562 166.498 228.729 167.132C227.679 167.489 226.502 167.77 225.85 168.651C225.538 169.124 225.379 169.675 225.394 170.234C225.408 170.793 225.594 171.335 225.929 171.794C226.618 172.696 227.553 173.4 228.634 173.829C232.508 175.56 237.018 175.56 241.218 174.77C245.418 173.98 249.42 172.492 253.5 171.224C258.777 169.636 264.2 168.53 269.696 167.922C274.047 167.443 278.446 167.269 282.647 165.993C286.847 164.718 290.808 162.129 292.415 158.242C287.213 153.147 278.892 152.532 271.486 153.079C262.012 153.762 251.814 150.847 242.531 153.595Z" fill="url(#paint1_linear_246_5)"/>
<path d="M58.1397 146.291C56.3022 146.846 54.4328 147.719 53.4385 149.29C52.9514 150.22 52.5649 151.194 52.285 152.198C51.6336 153.953 50.5821 155.547 49.2065 156.867C47.8308 158.186 46.1653 159.198 44.3303 159.828C43.2882 160.185 42.1109 160.466 41.4507 161.347C41.143 161.822 40.9868 162.372 41.0009 162.93C41.015 163.488 41.1989 164.03 41.5302 164.49C42.2153 165.399 43.1557 166.104 44.2428 166.525C48.1167 168.256 52.6271 168.256 56.8272 167.466C61.0273 166.677 65.0285 165.189 69.1093 163.921C74.386 162.332 79.8091 161.226 85.3052 160.618C89.6485 160.14 94.0554 159.965 98.2555 158.697C102.456 157.429 106.417 154.825 108.024 150.938C102.822 145.843 94.5009 145.229 87.095 145.775C77.6129 146.436 67.415 143.49 58.1397 146.291Z" fill="url(#paint2_linear_246_5)"/>
<path d="M134.99 136.088C130.138 136.923 125.158 137.834 120.974 140.324C119.534 141.174 118.134 142.366 117.928 143.953C117.697 145.722 119.097 147.377 120.791 148.121C122.545 148.747 124.42 149.006 126.288 148.88L148.132 149.01L164.304 149.101C166.261 149.101 168.512 148.827 170.437 149.101C173.961 149.662 177.015 151.302 180.778 151.469C185.622 151.69 190.451 150.832 195.184 149.951C198.143 149.404 201.174 148.827 203.759 147.332C204.801 146.732 205.843 145.813 205.764 144.644C205.654 143.943 205.291 143.302 204.738 142.829C201.055 139.2 195.017 139.496 189.854 138.38C184.366 137.188 179.41 134.167 173.849 133.286C171.297 132.967 168.719 132.876 166.149 133.013C161.559 133.119 156.922 132.534 152.395 133.21C146.573 134.144 140.79 135.161 134.99 136.088Z" fill="url(#paint3_linear_246_5)"/>
<path d="M164.622 128.875C160.549 127.994 161.345 133.514 160.271 135.556C159.601 136.603 158.751 137.534 157.757 138.312C156.757 139.098 156.104 140.215 155.927 141.44C155.902 141.669 155.952 141.9 156.071 142.101C156.268 142.344 156.55 142.511 156.866 142.571C159.191 143.217 161.688 142.981 163.834 141.911C164.837 141.453 165.67 140.714 166.221 139.793C166.666 138.803 166.875 137.733 166.833 136.657C166.953 134.357 168.019 129.589 164.622 128.875Z" fill="#FDB9A9"/>
<path d="M160.987 140.218C160.987 140.218 149.397 140.688 154.305 144.166C159.213 147.643 166.555 143.323 167.287 142.495C168.019 141.668 167.422 140.347 167.422 140.347L160.987 140.218Z" fill="#68E1FD"/>
<path d="M166.786 141.736C165.752 142.936 160.303 144.553 157.9 144.386C155.498 144.219 153.326 143.148 153.557 141.66C153.788 140.172 158.051 136.718 158.855 136.725C159.658 136.733 160.287 138.502 161.901 138.866C162.619 138.981 163.356 138.919 164.041 138.685C164.726 138.451 165.337 138.054 165.815 137.53C165.962 137.338 166.173 137.201 166.414 137.141C166.655 137.081 166.91 137.104 167.136 137.204C167.465 137.93 167.606 138.722 167.545 139.511C167.484 140.3 167.223 141.064 166.786 141.736Z" fill="white"/>
<path d="M178.59 131.054C174.518 130.15 175.313 135.662 174.239 137.705C173.571 138.755 172.721 139.689 171.726 140.468C170.731 141.259 170.079 142.373 169.896 143.596C169.871 143.825 169.921 144.056 170.039 144.257C170.236 144.5 170.519 144.667 170.835 144.727C173.16 145.369 175.655 145.133 177.803 144.067C178.802 143.604 179.633 142.866 180.189 141.949C180.634 140.96 180.843 139.889 180.802 138.813C180.921 136.49 181.987 131.745 178.59 131.054Z" fill="#FDB9A9"/>
<path d="M174.987 142.351C174.987 142.351 163.397 142.814 168.305 146.299C173.213 149.784 180.547 145.449 181.255 144.659C181.963 143.87 181.39 142.503 181.39 142.503L174.987 142.351Z" fill="#68E1FD"/>
<path d="M180.754 143.854C179.72 145.062 174.279 146.671 171.869 146.512C169.458 146.352 167.295 145.274 167.525 143.786C167.756 142.298 172.02 138.836 172.823 138.851C173.627 138.866 174.263 140.628 175.87 140.985C176.589 141.1 177.326 141.037 178.013 140.803C178.699 140.569 179.312 140.172 179.792 139.648C179.937 139.457 180.147 139.32 180.386 139.26C180.626 139.201 180.88 139.222 181.104 139.322C181.434 140.048 181.574 140.84 181.513 141.629C181.452 142.419 181.192 143.182 180.754 143.854Z" fill="white"/>
<path d="M168.09 80.8843L173.539 135.548L181.383 134.622C184.485 121.283 183.721 81.355 183.721 81.355L168.09 80.8843Z" fill="#473F47"/>
<path d="M173.539 79.4038L168.09 134.068L160.191 133.165C155.705 98.5591 159.396 76.9819 159.396 76.9819L173.539 79.4038Z" fill="#473F47"/>
<path d="M160.127 59.626C160.032 58.6239 159.754 57.6293 159.642 56.5891C159.387 54.5234 159.428 52.4342 159.762 50.3787C160.131 48.194 160.822 46.07 161.814 44.0695C162.721 42.3309 164.351 41.5945 166.197 40.7289C167.734 39.9329 169.402 39.3912 171.129 39.127C172.352 39.0215 173.585 39.088 174.788 39.3244C178.487 39.9925 183.363 41.8146 185.925 44.6389C187.826 46.7268 188.049 49.7258 188.104 52.4969C188.184 56.3133 188.102 60.1296 187.858 63.946C187.858 64.5002 187.794 65.0545 187.746 65.6087C187.404 69.792 187.046 74.1348 185.797 78.1815C185.408 79.4494 185.002 80.7249 183.761 81.4082C180.865 83.0101 176.435 82.1674 173.308 81.7119C169.164 81.15 164.9 80.5654 161.225 78.675C160.458 78.3569 159.837 77.7854 159.475 77.0654C159.157 76.2075 159.547 75.2736 159.825 74.4005C161.066 70.4905 160.104 66.3831 160.104 62.3972C160.104 61.6759 160.199 60.9395 160.199 60.2182C160.191 59.9905 160.127 59.8082 160.127 59.626Z" fill="white"/>
<path opacity="0.1" d="M170.198 44.1834C170.61 43.437 171.101 42.7324 171.662 42.0804C171.733 41.9918 171.826 41.9214 171.932 41.8754C172.029 41.8526 172.13 41.8526 172.227 41.8754L175.774 42.4144C175.94 42.4219 176.1 42.4746 176.236 42.5663C176.348 42.6592 176.431 42.7801 176.475 42.9155C176.693 43.7314 176.573 44.5961 176.14 45.3299C175.107 47.2267 173.884 49.0243 172.489 50.6976C171.692 51.7212 171.012 52.8233 170.461 53.985C170.198 54.5696 170.111 55.2302 169.856 55.8148C169.602 56.3994 169.061 56.0957 168.607 55.997L163.134 54.8961L160.398 54.3494C160 54.2735 159.69 54.2735 159.897 53.8256C159.97 53.6938 160.069 53.5769 160.189 53.4818C160.309 53.3867 160.448 53.3152 160.597 53.2714C161.027 53.1675 161.466 53.1014 161.909 53.074C162.817 52.8601 163.668 52.467 164.407 51.9199C164.992 51.56 165.547 51.159 166.07 50.7204C168.042 48.9969 168.941 46.4459 170.198 44.1834Z" fill="#020202"/>
<path d="M164.24 40.8504C164.611 40.3717 165.108 39.9946 165.68 39.7571C166.977 39.3319 168.265 40.3721 169.602 40.6682C170.604 40.8807 171.853 40.7593 172.449 41.564C172.626 41.9065 172.718 42.2831 172.718 42.6649C172.718 43.0467 172.626 43.4233 172.449 43.7658C171.327 47.1976 169.944 50.547 168.313 53.7875C167.661 55.0858 166.809 56.2474 166.117 57.4926C165.322 58.8668 165.155 60.3169 164.033 61.5468C162.912 62.7768 160.851 63.6423 159.189 63.0121C158.357 62.6628 157.651 62.0871 157.16 61.357C155.084 58.4947 156.532 55.4427 157.677 52.5728C158.505 50.5532 163.826 41.2907 164.24 40.8504Z" fill="white"/>
<path opacity="0.1" d="M182.13 81.8637C180.738 82.1067 179.084 83.0633 177.644 82.8052C176.046 82.0755 174.319 81.6353 172.553 81.5069C170.166 81.2411 167.677 80.2086 165.394 79.5101C164.43 79.2997 163.536 78.864 162.792 78.2422C161.4 76.8604 161.814 74.6435 162.1 72.7454C162.513 69.9705 162.451 67.15 161.917 64.394C161.709 63.0959 161.354 61.8231 160.859 60.5978C160.422 59.6412 159.738 59.0187 159.905 57.8798C160.048 56.8776 160.772 55.7008 161.949 55.6022C162.573 55.623 163.179 55.8012 163.707 56.1184C165.202 56.8848 166.812 57.4252 168.48 57.7204C170.509 57.9596 172.568 57.6443 174.417 56.811C176.266 55.9777 177.829 54.6608 178.925 53.0132C180.014 51.3733 181.096 43.8038 184.143 44.8515C185.127 45.2521 186.008 45.853 186.724 46.6123C187.44 47.3716 187.973 48.2709 188.287 49.2474C188.883 51.2191 189.131 53.2719 189.019 55.3212C188.956 60.6358 187.85 66.0643 187.142 71.3409C186.863 73.3376 186.537 80.7552 183.769 81.4082C183.204 81.5145 182.671 81.7574 182.13 81.8637Z" fill="#020202"/>
<path d="M162.379 52.2843C161.87 51.9817 161.29 51.8046 160.692 51.7688C160.093 51.7331 159.495 51.8397 158.95 52.0793C158.414 52.3364 157.962 52.7282 157.643 53.2126C157.323 53.6969 157.148 54.2554 157.136 54.8277C157.189 55.6073 157.464 56.3582 157.932 56.9991C158.185 57.4202 158.53 57.7852 158.942 58.0696C159.595 58.4417 160.36 58.5941 161.114 58.5023C161.796 58.4788 162.463 58.3047 163.063 57.9936C163.954 57.5153 165.107 56.1487 164.813 55.0782C164.308 53.9381 163.461 52.9659 162.379 52.2843Z" fill="#FDB9A9"/>
<path d="M186.919 45.7171C190.276 51.0316 191.445 57.28 192.551 63.3842C192.744 64.1292 192.779 64.9037 192.654 65.6619C192.446 66.3341 192.056 66.9423 191.524 67.4259C190.993 67.9095 190.337 68.2515 189.624 68.4178C188.196 68.7375 186.72 68.812 185.264 68.638C182.138 68.4482 178.431 68.1901 175.782 66.4591C174.868 65.8669 174.064 65.1304 173.133 64.561C172.225 64.0528 171.282 63.6038 170.31 63.2172C168.456 62.396 166.687 61.4097 165.028 60.2714C164.457 59.9367 163.981 59.4724 163.643 58.92C163.103 57.8874 163.524 56.6423 163.946 55.5794C164.024 55.3025 164.197 55.0589 164.439 54.8885C164.77 54.7594 165.142 54.7594 165.473 54.8885C169.947 56.1593 174.508 57.1334 179.123 57.8039C180.388 57.9937 179.831 56.6651 179.664 55.9742C179.386 55.007 179.163 54.0262 178.996 53.036C178.832 51.6105 179.037 50.1685 179.591 48.8358C180.146 47.5031 181.034 46.3203 182.178 45.3906C182.767 44.8674 183.512 44.5329 184.31 44.434C184.815 44.4587 185.309 44.586 185.759 44.8072C186.209 45.0285 186.605 45.3386 186.919 45.7171Z" fill="white"/>
<path d="M169.944 33.2809C169.823 32.7526 169.738 32.2175 169.689 31.6789C169.419 29.4012 169.188 27.0325 170.357 25.0737C170.841 24.2503 171.546 23.5649 172.4 23.0878C173.253 22.6107 174.224 22.3593 175.214 22.3593C176.203 22.3593 177.174 22.6107 178.028 23.0878C178.881 23.5649 179.586 24.2503 180.07 25.0737C180.753 26.3008 181.048 27.6906 180.921 29.0748C180.792 30.4522 180.525 31.8148 180.126 33.1442C179.744 34.5564 178.773 35.4219 178.217 36.7202C178.027 37.2788 177.938 37.8641 177.954 38.4512C178.034 39.3277 178.034 40.2092 177.954 41.0857C177.047 41.6544 176.011 42.006 174.931 42.1106C174.425 42.1027 173.924 42.0208 173.444 41.8677C173.173 41.8164 172.933 41.6667 172.776 41.4501C172.704 41.2604 172.688 41.0558 172.728 40.8579C172.728 40.6681 172.776 40.4859 172.776 40.2961C172.887 39.349 172.871 38.3922 172.728 37.449C172.405 36.7121 171.873 36.0758 171.193 35.6117C170.533 34.9773 170.096 34.1627 169.944 33.2809Z" fill="#FDB9A9"/>
<path opacity="0.1" d="M170.532 34.3135C171.608 34.1846 172.671 33.9791 173.714 33.6985C174.072 33.5998 174.51 33.5163 174.78 33.7592C174.902 33.8934 174.984 34.0558 175.019 34.2299C175.148 34.5702 175.208 34.9311 175.194 35.2929C175.131 35.595 175.043 35.892 174.931 36.1811C174.88 36.3256 174.862 36.4786 174.877 36.6304C174.892 36.7821 174.94 36.9291 175.019 37.0618C175.273 37.3959 175.814 37.5022 175.934 37.9046C176.053 38.307 175.743 38.4664 175.647 38.7473C175.544 39.0847 175.472 39.4303 175.432 39.7799C175.424 40.1835 175.36 40.5843 175.242 40.9718C175.155 41.171 175.022 41.3485 174.853 41.4907C174.683 41.6329 174.481 41.7359 174.263 41.7918C174.043 41.8432 173.814 41.8466 173.592 41.8019C173.37 41.7573 173.162 41.6656 172.982 41.5337C172.521 41.0613 172.241 40.4539 172.187 39.8102L171.757 37.7679C171.631 37.0572 171.44 36.3586 171.185 35.6801C170.927 35.2092 170.629 34.7597 170.294 34.3362L170.532 34.3135Z" fill="#020202"/>
<path d="M102.814 73.4894C102.814 73.4894 103.307 75.395 98.5737 76.8224C93.8406 78.2497 92.0906 73.4894 92.0906 73.4894C92.0906 73.4894 101.064 70.1564 102.814 73.4894Z" fill="#2F3554"/>
<path d="M78.472 121.647L79.0209 119.635L80.4527 114.45C80.4944 114.203 80.6105 113.974 80.7868 113.789C81.0016 113.614 81.6698 115.581 81.9562 115.558C83.5183 115.473 85.0853 115.583 86.6176 115.885C87.0313 115.96 85.3528 138.251 85.2097 140.438C84.8676 145.449 85.146 155.357 85.9176 155.296C84.3824 155.417 81.2402 155.584 80.58 154.924C79.3868 153.785 81.4312 146.443 79.2038 137.826C78.656 135.708 78.3519 133.539 78.297 131.358C78.2095 128.192 77.6526 124.729 78.472 121.647Z" fill="#EFAC88"/>
<path d="M89.4496 146.443C89.6236 146.143 89.7674 145.828 89.8792 145.502C90.2451 144.386 89.9667 143.224 90.0462 142.101C90.0939 141.507 90.0939 140.91 90.0462 140.316C89.9189 138.798 89.7121 137.279 89.5132 135.761C89.1712 133.202 88.5428 130.538 88.5428 127.949C88.5428 125.952 90.2292 119.681 90.2292 119.681L88.5428 111.504H97.1021C97.1021 111.504 98.1998 118.337 97.8975 119.096C97.274 120.647 96.9064 122.281 96.8077 123.94C96.8077 126.878 96.3941 129.854 96.1555 132.785C95.885 135.989 95.6198 139.193 95.36 142.397C95.2645 143.551 95.1611 144.674 95.0657 145.851C94.9927 147.547 95.3217 149.236 96.0282 150.794C96.2986 151.5 96.6009 152.373 96.0839 152.95C95.5668 153.527 94.4372 153.329 93.6974 152.95C92.6461 152.276 91.5332 151.694 90.3724 151.211C89.9113 151.111 89.4707 150.939 89.0678 150.703C88.2723 150.126 88.2723 148.971 88.6382 148.083C88.8763 147.522 89.1472 146.975 89.4496 146.443Z" fill="#EFAC88"/>
<path d="M94.9622 50.7887C94.9622 50.7887 93.9917 48.344 96.1951 50.7887C98.3986 53.2334 101.938 67.689 101.938 67.689C101.938 67.689 96.9827 72.0318 95.5747 71.1738C94.1667 70.3159 94.9622 50.7887 94.9622 50.7887Z" fill="#2F3554"/>
<path d="M92.8383 27.731C95.6145 28.8243 96.2907 32.7495 96.0918 35.2321C95.8452 38.3374 93.1167 41.4426 94.0554 44.563C94.6676 46.1617 94.9539 47.8574 94.8986 49.5587C94.7236 51.2518 93.6258 52.9828 91.8997 53.3548C91.4871 53.4057 91.0833 53.5078 90.6985 53.6585C90.2057 53.9973 89.8248 54.4636 89.6007 55.0023C87.9932 58.1074 85.1612 60.4773 81.7255 61.5924C78.297 62.587 74.2401 61.8202 71.8139 59.3147C69.3877 56.8093 69.0059 52.55 71.3128 49.9383C71.973 49.1791 72.864 48.4882 72.9037 47.5164C72.8802 47.0676 72.8082 46.6224 72.6889 46.1877C72.5614 45.346 72.7138 44.4872 73.1249 43.7326C73.5359 42.978 74.1847 42.3655 74.9799 41.9816C76.2686 41.3894 77.9073 41.4198 78.9016 40.4632C80.0153 39.3623 79.7448 37.6085 79.6971 36.0825C79.1959 28.103 85.504 24.8535 92.8383 27.731Z" fill="#8B2F0C"/>
<path d="M74.7492 94.4061C74.081 100.632 75.2424 107.002 76.4118 113.212C76.6822 114.67 77.0163 116.249 78.1538 117.251C79.0479 117.935 80.1103 118.39 81.2403 118.572C88.66 120.213 96.4415 119.438 103.347 116.37L101.589 100.882C101.127 96.7597 100.626 92.5308 99.0748 88.6436C98.7885 87.9223 94.302 80.7552 95.3679 80.1403C93.252 81.3854 90.7939 81.2032 88.3677 81.7422C85.4967 82.3854 82.7337 83.4076 80.1584 84.7791C78.8389 85.3345 77.6945 86.2097 76.8391 87.3178C75.9837 88.426 75.4469 89.7284 75.2822 91.0959C75.0413 92.1892 74.8634 93.2942 74.7492 94.4061Z" fill="#4FC1AD"/>
<path d="M92.6951 44.1834C92.6951 44.1834 90.5393 46.7952 90.5314 48.3971C90.5086 49.4581 90.3565 50.5129 90.078 51.5403C90.078 51.5403 89.7359 53.4536 88.6222 52.7095C87.5086 51.9655 83.5948 46.9546 83.5948 46.9546L87.8665 41.5186L92.6951 44.1834Z" fill="#EFAC88"/>
<path d="M99.3294 90.3215C99.3294 90.3215 98.4544 81.021 96.8316 77.2932C96.3811 75.9423 96.272 74.5087 96.5134 73.1099C96.8395 69.8148 97.8896 66.6565 98.4544 63.3994C98.6263 61.9421 98.513 60.4669 98.1203 59.049C97.5263 56.2247 96.8316 53.4207 96.0361 50.6368C95.9661 50.2786 95.8049 49.9423 95.5668 49.6574C95.2954 49.422 94.9718 49.2481 94.6202 49.1488L90.3644 47.6303C90.8098 48.9362 91.2314 50.3939 90.6189 51.639C90.4691 52.0024 90.1865 52.3017 89.8235 52.4818C89.028 52.793 88.2325 52.292 87.5961 51.7225C86.6328 50.8284 85.8885 49.7421 85.4165 48.5414C85.1778 47.9149 85.0098 47.2659 84.9154 46.6054C84.8517 46.1346 84.9949 45.4513 84.621 45.1249C84.0165 46.1422 82.7676 46.6433 81.821 47.3494C80.8744 48.0555 79.6573 48.8678 78.5118 49.6271C77.5568 50.1223 76.7784 50.8784 76.2765 51.7985C76.0301 52.5757 76.0301 53.4052 76.2765 54.1824C76.4754 55.0479 76.7856 55.8907 76.9527 56.7638C77.1119 57.874 77.2075 58.9918 77.239 60.112C77.4298 61.7779 77.7408 63.4294 78.1697 65.0545C78.3312 66.0476 78.4295 67.049 78.4641 68.0534C78.4641 68.0534 80.055 73.7021 79.7368 75.0839C79.4186 76.4657 76.4436 81.803 76.2765 84.1414C76.1095 86.4798 77.2311 91.392 77.2311 91.392C77.2311 91.392 79.9834 91.5666 83.0381 91.6805C86.6336 91.8096 93.1565 90.3595 93.6417 89.8963C94.2781 89.2889 94.6281 84.9538 94.5724 82.0611C96.0202 86.5557 97.1577 90.3215 97.1577 90.3215H99.3294Z" fill="#2F3554"/>
<path d="M78.1539 96.0081C78.7505 96.1751 78.9493 96.6838 79.3948 97.3215C79.9913 98.2083 80.5408 99.1231 81.0414 100.062C81.1099 100.128 81.1484 100.217 81.1484 100.309C81.1484 100.402 81.1099 100.49 81.0414 100.556C80.9826 100.608 80.9069 100.64 80.8266 100.647C80.3173 100.822 79.7687 100.867 79.2357 100.776C79.0311 101.992 79.2256 103.238 79.7925 104.344C79.9278 104.61 80.0709 104.967 79.8482 105.179C79.7449 105.255 79.6203 105.3 79.4903 105.309C78.3525 105.379 77.2196 105.114 76.2447 104.549C75.6788 104.312 75.1616 103.98 74.7174 103.57C74.1139 102.886 73.6716 102.086 73.4208 101.224C73.4208 100.676 73.4767 100.129 73.5878 99.5916C73.5878 99.3411 73.8583 96.0688 73.9378 96.0688L77.6288 95.9321C77.8068 95.9329 77.9836 95.9585 78.1539 96.0081Z" fill="#FDC099"/>
<path d="M78.1777 94.7097L78.472 96.1295L73.3412 96.9798V95.3475L78.1777 94.7097Z" fill="white"/>
<path d="M78.1777 76.0404C78.1777 76.0404 82.2585 66.6716 81.7017 63.369C81.1449 60.0664 78.7982 52.3602 77.0641 52.4286C75.3299 52.4969 74.7811 54.7062 74.7811 56.7561C74.7811 58.806 71.2969 77.2931 71.0742 79.0014C70.8514 80.7097 73.039 96.4636 73.039 96.4636L78.8459 95.2412L78.1777 76.0404Z" fill="#2F3554"/>
<path d="M93.7928 30.3352C93.8861 30.3873 93.9673 30.4571 94.0314 30.5402C94.4449 31.2229 94.715 31.9759 94.8269 32.7571C95.9485 36.5532 97.4758 40.1671 95.2883 43.9329C95.1309 44.2431 94.9058 44.5175 94.628 44.7377C94.3424 44.9257 94.0162 45.0502 93.6735 45.1021C92.0625 45.4191 90.3856 45.1654 88.9563 44.3884C88.1375 44.0154 87.3408 43.5998 86.5699 43.1433C86.2365 42.9191 85.9638 42.6225 85.7744 42.2778C85.5994 41.921 85.313 41.5717 85.4324 41.1541C85.5199 40.8656 85.6949 40.6151 85.7585 40.319C85.8234 39.8567 85.7343 39.3866 85.5039 38.9752C85.4494 38.8867 85.4143 38.7886 85.4006 38.6869C85.387 38.5851 85.395 38.4817 85.4244 38.383C85.5676 38.0565 86.0449 38.0793 86.4108 37.9958C86.7093 37.888 86.9803 37.7204 87.2053 37.5043C87.4303 37.2882 87.6042 37.0287 87.7154 36.7431C88.0673 36.0642 88.3343 35.3481 88.5108 34.6096C88.6214 33.972 88.8137 33.3499 89.0836 32.7571C89.6152 31.9429 90.3836 31.294 91.295 30.8894C91.9234 30.5402 93.1007 29.9252 93.7928 30.3352Z" fill="#FDC099"/>
<path d="M95.5668 35.8547L95.9247 35.5586C95.9247 35.5586 96.0281 35.7712 96.1554 35.7484C96.2684 35.7192 96.3777 35.6785 96.4816 35.6269C96.4816 35.6269 96.2827 35.9002 96.1475 35.923C95.96 35.9458 95.7702 35.9458 95.5827 35.923L95.5668 35.8547Z" fill="#8A3C1F"/>
<path d="M95.877 35.5814L96.0281 35.3233C96.0281 35.3233 96.1474 35.4295 96.227 35.384C96.288 35.3419 96.344 35.2935 96.394 35.2397C96.394 35.2397 96.3463 35.4523 96.2667 35.4979C96.146 35.5447 96.0208 35.5803 95.8929 35.6042L95.877 35.5814Z" fill="#8A3C1F"/>
<path d="M113.354 60.165H98.4702L85.7108 75.5621L99.7509 75.0231L113.354 60.165Z" fill="#0D8872"/>
<path d="M104.508 72.7606C104.526 72.612 104.555 72.4649 104.595 72.3202C104.783 71.3666 104.756 70.3856 104.516 69.4428C104.275 68.4914 103.663 67.6634 102.806 67.1271C102.741 67.0892 102.671 67.0586 102.599 67.036C102.485 67.0359 102.375 67.0775 102.292 67.1524C102.209 67.2273 102.159 67.3296 102.153 67.4384C102.151 67.6568 102.203 67.8727 102.304 68.0686C102.567 68.6936 102.751 69.3459 102.853 70.0122L102.106 69.1998C101.9 68.9333 101.626 68.7215 101.31 68.5848C101.146 68.5241 100.964 68.5267 100.802 68.5918C100.641 68.657 100.512 68.7798 100.443 68.9341C100.405 69.1221 100.433 69.3169 100.523 69.4883L101.223 71.4243C100.898 70.8045 100.377 70.2974 99.735 69.9742C99.607 70.1418 99.538 70.3438 99.538 70.5512C99.538 70.7586 99.607 70.9607 99.735 71.1282C99.9881 71.4762 100.204 71.8476 100.379 72.2367C100.212 72.0482 100.061 71.8476 99.9259 71.6369C99.7589 71.4471 99.4407 71.3256 99.2498 71.4927C99.0588 71.6597 99.1225 71.895 99.1782 72.1C99.6571 73.5517 99.846 75.0764 99.735 76.5946L100.626 76.4048C101.331 76.1812 101.998 75.8616 102.607 75.4558C103.113 75.1688 103.546 74.7782 103.875 74.3121C104.203 73.846 104.42 73.3161 104.508 72.7606Z" fill="#EFAC88"/>
<path d="M197.356 71.4927C197.626 71.2725 198.048 71.1055 198.318 71.3257C198.401 71.4148 198.463 71.5198 198.501 71.6337C198.538 71.7477 198.549 71.8679 198.533 71.9862V73.3452C200.959 72.6391 202.789 70.779 204.571 69.0632C204.944 68.6988 205.493 68.304 205.955 68.5621C206.121 68.6797 206.246 68.843 206.313 69.0302C206.38 69.2174 206.385 69.4196 206.329 69.6098C206.192 69.9759 206.099 70.3553 206.05 70.7411C206.05 71.3637 206.52 71.9027 206.583 72.5177C206.655 73.2769 206.114 73.9602 206.042 74.7194V75.4786C205.922 75.9416 205.684 76.3692 205.35 76.7238C204.55 77.8769 203.486 78.8424 202.24 79.5481C201.387 79.9025 200.483 80.1353 199.559 80.239L196.672 80.7097C196.39 80.7781 196.094 80.7781 195.812 80.7097C194.945 80.4288 194.675 79.0774 194.707 78.3333C194.834 77.639 195.104 76.9757 195.502 76.3821C196.099 74.8029 195.916 72.6467 197.356 71.4927Z" fill="#A67C52"/>
<path d="M111.906 63.126C111.715 62.8375 111.365 62.5642 111.039 62.6933C110.932 62.7552 110.84 62.8378 110.768 62.9359C110.697 63.034 110.648 63.1454 110.625 63.2627L110.188 64.5534C108.087 63.1944 106.918 60.9015 105.757 58.7529C105.51 58.2974 105.112 57.7735 104.587 57.8874C104.398 57.9561 104.235 58.079 104.121 58.2393C104.007 58.3996 103.948 58.5896 103.951 58.7833C103.962 59.1698 103.932 59.5563 103.864 59.9373C103.673 60.5295 103.068 60.9167 102.798 61.4557C102.495 62.1542 102.798 62.9742 102.631 63.7334C102.575 63.9764 102.463 64.2117 102.424 64.4926C102.392 64.9683 102.488 65.4439 102.702 65.8744C103.103 67.2045 103.815 68.43 104.786 69.458C105.491 70.0354 106.278 70.5135 107.125 70.8777L109.742 72.1456C109.985 72.2828 110.257 72.3659 110.538 72.3886C111.452 72.3886 112.128 71.1586 112.335 70.4374C112.431 69.7429 112.39 69.0375 112.216 68.3571C112.073 66.6488 112.908 64.6673 111.906 63.126Z" fill="#A67C52"/>
<path d="M136.756 186.652C136.768 186.713 136.789 186.772 136.82 186.826C137.178 187.707 138.316 188.003 139.302 188.11C140.22 188.213 141.145 188.256 142.07 188.239C142.51 188.249 142.948 188.19 143.367 188.064C143.759 187.903 144.125 187.691 144.457 187.434L147.113 185.551C147.864 185.064 148.545 184.487 149.142 183.835C149.741 183.176 150.054 182.323 150.017 181.451C149.992 181.018 149.825 180.603 149.539 180.265C149.254 179.927 148.864 179.684 148.426 179.568C147.869 179.515 147.308 179.53 146.755 179.614C145.618 179.667 144.027 179.219 143.574 178.095C143.454 177.617 143.175 177.188 142.778 176.873C142.392 176.708 141.961 176.66 141.545 176.736C140.619 176.772 139.704 176.944 138.833 177.245C138.396 177.395 138.001 177.636 137.676 177.952C137.351 178.267 137.105 178.648 136.955 179.067C136.852 179.456 136.812 179.858 136.836 180.259C136.884 181.081 136.884 181.905 136.836 182.727C136.707 183.76 136.646 184.799 136.653 185.839C136.659 186.113 136.694 186.385 136.756 186.652Z" fill="#262836"/>
<path d="M162.578 186.971C160.788 187.753 158.946 188.422 157.065 188.975C156.31 189.286 155.465 189.332 154.678 189.104C154.365 188.955 154.09 188.741 153.873 188.479C153.655 188.216 153.501 187.911 153.422 187.586C153.254 186.943 153.184 186.281 153.215 185.619C153.215 184.518 153.692 183.668 153.875 182.62C154.042 181.709 154.177 180.791 154.313 179.88C154.503 178.574 154.678 177.268 154.853 175.954L159.626 176.934C160.127 177.032 160.605 178.877 160.899 179.265C161.127 179.55 161.417 179.784 161.75 179.951C162.082 180.117 162.449 180.212 162.824 180.229C163.62 180.267 164.471 179.91 165.29 180.039C165.818 180.163 166.288 180.448 166.63 180.851C166.972 181.254 167.166 181.753 167.183 182.271C167.176 182.789 167.058 183.3 166.837 183.772C166.615 184.245 166.295 184.669 165.895 185.019C165.087 185.711 164.165 186.271 163.166 186.675L162.578 186.971Z" fill="#262836"/>
<path d="M162.617 181.876C161.363 182.558 160.061 183.154 158.719 183.66L158.584 183.714C156.373 184.534 153.899 181.223 153.899 181.223C153.899 181.223 150.773 162.789 150.916 155.152C151.011 149.905 149.715 142.427 147.734 128.86C147.241 142.716 144.783 148.804 145.411 153.77C146.366 161.324 145.228 180.085 145.228 180.085C145.228 180.085 143.136 183.736 140.837 183.243H140.702C139.321 182.941 137.965 182.543 136.645 182.051C136.645 182.051 133.972 156.237 133.972 149.404C133.972 142.571 134.267 136.497 134.267 136.497L132.875 114.913L138.833 106.66L139.318 106.463L139.779 106.03L146.382 101.406C146.382 101.406 146.382 102.484 146.262 104.329L151.385 106.956L151.886 107.313L152.388 107.434L160.987 108.869C160.987 108.869 163.246 141.956 163.97 148.729C164.693 155.501 162.617 181.876 162.617 181.876Z" fill="#0D8872"/>
<path d="M162.617 181.876C161.363 182.558 160.061 183.154 158.719 183.66L158.584 183.714C156.373 184.534 153.899 181.223 153.899 181.223C153.899 181.223 150.773 162.789 150.916 155.152C151.011 149.905 149.715 142.427 147.734 128.86C147.241 142.716 144.783 148.804 145.411 153.77C146.366 161.324 145.228 180.085 145.228 180.085C145.228 180.085 143.136 183.736 140.837 183.243H140.702C139.321 182.941 137.965 182.543 136.645 182.051C136.645 182.051 133.972 156.237 133.972 149.404C133.972 142.571 134.267 136.497 134.267 136.497L132.875 114.913L138.833 106.66L139.318 106.463L139.779 106.03L146.382 101.406C146.382 101.406 146.382 102.484 146.262 104.329L151.385 106.956L151.886 107.313L152.388 107.434L160.987 108.869C160.987 108.869 163.246 141.956 163.97 148.729C164.693 155.501 162.617 181.876 162.617 181.876Z" fill="url(#paint4_linear_246_5)"/>
<path d="M155.49 51.2898C156.031 51.8061 156.842 52.3375 156.619 53.0208C156.5 53.3852 156.094 53.5978 155.824 53.856C155.435 54.2305 155.129 54.6752 154.923 55.164C154.717 55.6529 154.615 56.1761 154.623 56.7031C154.656 57.7327 154.503 58.7601 154.169 59.74C153.983 60.2316 153.625 60.647 153.156 60.9166C152.687 61.1862 152.134 61.2934 151.592 61.2204C150.964 61.0534 150.335 60.5371 149.731 60.7801C149.269 60.9699 149.126 61.5393 148.887 61.9189C148.544 62.4083 148.064 62.7959 147.502 63.0375C146.939 63.2791 146.317 63.365 145.706 63.2855C144.488 63.1173 143.315 62.7336 142.245 62.1543C141.787 61.9864 141.392 61.6933 141.108 61.3116C140.923 60.9454 140.878 60.5292 140.98 60.1348C141.203 58.9276 142.078 57.933 142.786 56.8929C144.099 54.9703 144.886 52.7649 145.077 50.4774C145.204 48.8831 145.077 47.1292 146.151 45.9221C147.607 44.2442 151.123 44.2594 152.928 45.4893C155.005 46.7572 153.827 49.6423 155.49 51.2898Z" fill="#A67C52"/>
<path d="M153.334 44.0695C153.121 44.4651 152.799 44.7983 152.403 45.0337C151.608 45.4817 150.924 46.0055 150.152 46.499C149.423 46.9668 148.91 47.6845 148.72 48.5034C148.394 50.0218 149.253 51.6086 148.72 53.0587C148.537 53.3472 148.028 53.1726 147.822 52.8841C147.615 52.5956 147.511 52.2312 147.201 52.0566C146.676 51.768 146.032 52.254 145.809 52.8158C145.576 53.4429 145.605 54.1317 145.891 54.7386C146.177 55.3455 146.698 55.8235 147.344 56.0728C147.273 56.536 146.636 56.7258 146.143 56.6575C145.654 56.5289 145.147 56.4675 144.64 56.4752C143.502 56.6802 143.049 58.229 141.935 58.3885C141.543 58.3616 141.162 58.2499 140.822 58.0618C140.481 57.8737 140.19 57.6141 139.97 57.3028L138.586 55.7843C138.366 55.5136 138.124 55.2598 137.862 55.0251C137.552 54.7898 137.067 54.7746 136.78 54.4937C136.494 54.2127 136.78 53.5674 136.502 53.2182C136.364 53.0973 136.201 53.0044 136.025 52.9448C135.626 52.7534 135.309 52.4367 135.126 52.0481C134.944 51.6595 134.907 51.2228 135.022 50.8114C135.054 50.7073 135.054 50.5967 135.022 50.4926C134.975 50.3559 134.8 50.2876 134.656 50.2192C134.233 49.966 133.92 49.5756 133.773 49.1195C133.627 48.6635 133.658 48.1725 133.861 47.7366C134.084 47.2291 134.411 46.7695 134.823 46.3851C134.976 46.1759 135.186 46.0108 135.43 45.9077C135.674 45.8046 135.943 45.7675 136.208 45.8005L136.422 43.9025C136.441 43.5162 136.538 43.1372 136.709 42.7864C137.162 42.0272 138.204 41.8298 139.095 41.7311L138.713 40.1519C138.668 40.0551 138.645 39.9503 138.645 39.8444C138.645 39.7385 138.668 39.6338 138.713 39.5369C138.834 39.3968 139.003 39.3025 139.191 39.2712C139.727 39.1355 140.276 39.0491 140.829 39.0131C140.622 38.5749 140.465 38.1168 140.36 37.6465C140.336 37.5568 140.336 37.4628 140.36 37.3732C140.407 37.2881 140.481 37.2186 140.57 37.1739C140.659 37.1292 140.761 37.1113 140.861 37.1226C141.063 37.1605 141.271 37.1605 141.474 37.1226C141.474 37.1226 141.171 35.8016 141.155 35.6801C141.107 35.4731 141.103 35.2591 141.143 35.0505C141.182 34.8419 141.265 34.643 141.386 34.4653C141.548 34.2816 141.757 34.1409 141.992 34.0571C142.228 33.9733 142.482 33.9491 142.73 33.987C143.225 34.0721 143.701 34.2364 144.138 34.4729C144.091 33.9642 144.775 33.7137 145.324 33.6681C146.346 33.6119 147.367 33.8039 148.29 34.2261C149.214 34.6483 150.011 35.2869 150.606 36.0825C150.699 36.2246 150.812 36.3548 150.94 36.4697C151.184 36.6222 151.453 36.7351 151.735 36.8037C152.165 36.9861 152.547 37.257 152.853 37.597C153.16 37.937 153.384 38.3377 153.509 38.7701C153.741 39.6325 153.834 40.5232 153.788 41.4122C153.813 42.0933 153.746 42.7746 153.589 43.4394C153.528 43.6577 153.443 43.869 153.334 44.0695Z" fill="#2F3554"/>
<path d="M145.785 60.4991C147.049 61.0072 148.276 61.593 149.46 62.2529C149.825 62.4376 150.143 62.6968 150.391 63.0122C150.52 63.1872 150.599 63.3909 150.621 63.6036C150.644 63.8164 150.608 64.0311 150.518 64.2269C150.184 64.7736 149.436 64.5686 148.856 64.3788C146.175 63.3614 143.287 63.2703 140.535 63.2779C140.345 63.3045 140.152 63.2811 139.975 63.2102C139.798 63.1392 139.645 63.0235 139.533 62.8755C139.466 62.6993 139.441 62.511 139.46 62.3244C139.479 62.1378 139.542 61.9577 139.644 61.7974C141.1 59.0414 143.438 59.4818 145.785 60.4991Z" fill="white"/>
<path d="M197.777 81.8712C197.23 83.1759 196.419 84.3652 195.391 85.3713C194.412 86.4266 193.394 87.444 192.336 88.4082C189.845 90.7163 187.213 92.8814 184.453 94.8919C182.488 96.3421 180.388 97.7694 177.938 98.2249C176.963 98.4454 175.942 98.3847 175.003 98.0503C174.226 97.6705 173.53 97.1555 172.95 96.5319C172.243 95.8638 164.129 86.9505 163.993 86.9505C163.535 87.1855 163.182 87.5713 162.999 88.0362C161.823 90.3493 161.098 92.8473 160.859 95.4082C160.764 96.5554 160.764 97.7079 160.859 98.8551C161.177 102.75 162.609 106.766 161.193 110.441C160.917 111.222 160.451 111.93 159.833 112.506C159.235 113 158.547 113.386 157.805 113.645C156.498 114.161 155.135 114.533 153.74 114.753C152.951 114.89 152.154 114.974 151.353 115.004C148.386 115.11 145.427 114.556 142.46 114.7C139.93 114.822 137.433 115.459 134.903 115.361C134.437 115.395 133.969 115.332 133.532 115.174C133.095 115.017 132.699 114.769 132.373 114.45C132.087 114.03 131.91 113.551 131.856 113.053C130.87 107.892 130.361 102.658 130.337 97.4126C130.337 94.9906 129.923 86.1381 129.072 84.5058C128.969 84.3084 128.857 84.2097 128.746 84.24C125.914 84.9993 119.837 86.5177 116.957 87.0036C116.54 87.0996 116.109 87.1202 115.684 87.0643C115.247 86.9576 114.84 86.7606 114.491 86.4873C110.927 83.9895 108.923 80.2693 107.658 76.3517C107.411 75.5925 107.189 74.8332 106.982 74.074C106.874 73.8718 106.808 73.6511 106.79 73.4246C106.771 73.1982 106.799 72.9704 106.873 72.7545C106.947 72.5386 107.065 72.3388 107.22 72.1666C107.375 71.9943 107.565 71.853 107.777 71.7508C107.825 71.7235 107.876 71.7006 107.928 71.6825L113.266 68.4026L117.243 73.2465C118.039 74.1879 118.946 75.2053 120.211 75.3419C121.945 75.509 123.249 74.0057 124.315 72.7226C127.771 68.5792 132.202 65.2729 137.25 63.0729C137.99 62.7332 138.769 62.4784 139.572 62.3136L139.771 62.2681C139.886 62.2373 140.003 62.2145 140.121 62.1998C141.159 62.1096 142.204 62.1685 143.224 62.3744C149.997 63.466 156.699 64.9338 163.293 66.7703C164.083 66.8826 164.833 67.1707 165.484 67.6112C166.135 68.0518 166.668 68.6324 167.04 69.3061C168.894 71.971 170.699 74.6662 172.561 77.3311C174.152 79.6088 175.743 82.4938 178.129 84.1641C183.29 82.168 188.161 79.5475 192.623 76.3669C193.251 75.9189 194.046 75.433 194.77 75.7291C195.002 75.8376 195.21 75.987 195.383 76.1695C197.093 77.8018 198.636 79.3962 197.777 81.8712Z" fill="white"/>
<path d="M236.382 64.0219C235.674 64.5976 234.821 64.9875 233.908 65.1531C233.072 65.1852 232.239 65.0453 231.466 64.7431L219.629 60.947C218.736 61.6108 218.14 62.5724 217.96 63.6386C217.78 64.7048 218.03 65.7966 218.658 66.6944C219.661 68.023 221.387 68.6532 223.002 69.2074L231.116 71.9937C232.71 72.6221 234.389 73.0336 236.103 73.2161C238.49 73.3679 240.82 72.6391 243.087 71.9178C245.514 71.1586 248.171 70.1944 249.332 68.0154C250.493 65.8364 249.65 62.9666 249.992 60.4232C250.223 58.7681 250.987 57.1813 250.955 55.511C250.915 54.0836 249.722 51.935 247.94 52.2311C246.405 52.4893 245.378 55.0403 244.567 56.1108C242.283 59.1356 239.522 61.8044 236.382 64.0219Z" fill="white"/>
<path d="M218.149 60.332C218.018 60.0308 217.829 59.7553 217.593 59.5197C217.471 59.4044 217.317 59.3251 217.149 59.2915C216.981 59.2578 216.806 59.2711 216.646 59.3299C216.49 59.422 216.365 59.5543 216.285 59.7115C216.205 59.8687 216.173 60.0443 216.193 60.2182C216.209 60.3374 216.181 60.4585 216.113 60.5598C216.061 60.5963 216 60.6196 215.936 60.6276C215.872 60.6355 215.807 60.6279 215.747 60.6054C214.403 60.3548 213.042 60.165 211.674 60.0359C211.561 60.0208 211.446 60.0208 211.332 60.0359C211.109 60.1105 210.925 60.2639 210.817 60.4645C210.709 60.6651 210.685 60.8975 210.751 61.114C210.901 61.5436 211.124 61.9464 211.412 62.306C212.104 63.3917 212.366 64.8267 213.48 65.5327C214.159 65.9064 214.945 66.0634 215.723 65.9807C216.519 65.9427 217.274 65.806 218.054 65.8364C218.573 65.9438 219.114 65.8878 219.597 65.677C219.776 65.5477 219.918 65.3781 220.011 65.1832C220.104 64.9884 220.145 64.7745 220.13 64.5609C220.05 63.8894 219.796 63.2475 219.39 62.6932C218.961 61.9188 218.547 61.1292 218.149 60.332Z" fill="#FDB9A9"/>
<path d="M251.162 145.388C246.627 144.409 247.518 150.551 246.325 152.828C245.571 153.98 244.626 155.005 243.525 155.865C242.499 156.822 241.536 157.991 241.481 159.35C241.449 159.613 241.505 159.878 241.64 160.109C241.87 160.374 242.187 160.555 242.539 160.626C245.132 161.339 247.914 161.067 250.303 159.866C251.421 159.355 252.35 158.532 252.967 157.505C253.463 156.404 253.697 155.211 253.651 154.013C253.755 151.492 254.94 146.193 251.162 145.388Z" fill="#FDB9A9"/>
<path d="M247.152 158.021C247.152 158.021 234.25 158.545 239.715 162.417C245.18 166.289 253.333 161.468 254.129 160.588C254.924 159.707 254.28 158.196 254.28 158.196L247.152 158.021Z" fill="#68E1FD"/>
<path d="M253.572 159.722C252.418 161.058 246.357 162.858 243.676 162.676C240.995 162.493 238.585 161.294 238.848 159.639C239.11 157.984 243.851 154.134 244.742 154.142C245.633 154.149 246.333 156.123 248.131 156.533C248.934 156.656 249.757 156.582 250.521 156.316C251.285 156.05 251.966 155.602 252.498 155.015C252.66 154.802 252.895 154.65 253.162 154.583C253.428 154.517 253.711 154.541 253.962 154.651C254.582 155.524 254.725 158.386 253.572 159.722Z" fill="white"/>
<path d="M266.713 147.81C262.179 146.808 263.07 152.942 261.877 155.22C261.131 156.388 260.184 157.427 259.077 158.295C258.05 159.251 257.096 160.421 257.04 161.78C257.005 162.042 257.058 162.307 257.191 162.539C257.42 162.808 257.741 162.991 258.098 163.055C260.689 163.765 263.468 163.493 265.854 162.296C266.973 161.785 267.902 160.961 268.519 159.935C269.015 158.833 269.249 157.64 269.203 156.442C269.306 153.884 270.492 148.569 266.713 147.81Z" fill="#FDB9A9"/>
<path d="M262.704 160.39C262.704 160.39 249.801 160.907 255.266 164.779C260.731 168.651 268.893 163.845 269.68 162.956C270.468 162.068 269.831 160.557 269.831 160.557L262.704 160.39Z" fill="#68E1FD"/>
<path d="M269.123 162.061C267.97 163.412 261.908 165.204 259.228 165.022C256.547 164.839 254.137 163.647 254.399 161.985C254.662 160.322 259.403 156.473 260.294 156.48C261.185 156.488 261.885 158.462 263.682 158.864C264.486 158.987 265.308 158.912 266.073 158.647C266.837 158.381 267.517 157.933 268.049 157.346C268.212 157.133 268.446 156.98 268.713 156.914C268.98 156.847 269.263 156.871 269.513 156.981C270.134 157.885 270.277 160.717 269.123 162.061Z" fill="white"/>
<path d="M255.028 91.9614L261.089 152.844L269.839 151.811C273.292 136.961 272.448 92.5081 272.448 92.5081L255.028 91.9614Z" fill="#473F47"/>
<path d="M261.089 90.3139L255.028 151.196L246.277 150.164C241.282 111.641 245.394 87.6566 245.394 87.6566L261.089 90.3139Z" fill="#473F47"/>
<path d="M246.158 68.2963C246.055 67.1803 245.744 66.0718 245.617 64.933C245.332 62.6349 245.377 60.3104 245.752 58.024C246.164 55.5898 246.932 53.2231 248.035 50.9936C249.046 49.0652 250.867 48.2452 252.912 47.281C254.625 46.3939 256.484 45.7907 258.408 45.4968C259.77 45.3774 261.142 45.4491 262.481 45.7094C266.594 46.4686 272.027 48.4882 274.835 51.5858C276.951 53.9166 277.221 57.2496 277.269 60.3321C277.359 64.5888 277.266 68.8404 276.991 73.087C276.991 73.702 276.911 74.317 276.863 74.932C276.482 79.5936 276.068 84.4299 274.692 88.932C274.254 90.3442 273.793 91.764 272.425 92.5232C269.243 94.3149 264.271 93.328 260.795 92.8648C256.173 92.2347 251.432 91.5817 247.335 89.4483C246.484 89.0901 245.793 88.4552 245.386 87.6566C245.029 86.6999 245.466 85.6598 245.776 84.688C247.16 80.3376 246.087 75.7671 246.087 71.3256C246.087 70.5209 246.198 69.7009 246.198 68.8961C246.19 68.6987 246.158 68.4937 246.158 68.2963Z" fill="white"/>
<path opacity="0.1" d="M259.077 88.7346C259.045 88.2688 259.165 87.805 259.419 87.406C259.944 86.791 260.946 86.9201 261.749 87.1099L266.944 88.3398C268.909 88.803 271.924 90.6175 272.433 92.508C274.429 91.1718 274.946 88.9245 275.32 86.624C275.694 84.3236 275.71 79.8365 276.116 77.5133C273.576 79.2578 270.549 80.241 267.421 80.3376C264.47 80.4135 260.763 80.3376 259.689 77.3007C258.456 73.7476 258.027 70.0198 257.207 66.3755C257.209 66.2913 257.191 66.2077 257.155 66.1311C257.118 66.0545 257.063 65.9869 256.995 65.9334C256.927 65.88 256.847 65.8421 256.761 65.8227C256.675 65.8033 256.585 65.8028 256.499 65.8212L245.283 65.9351C245.108 65.9272 244.934 65.9584 244.774 66.0262C244.448 66.216 244.448 66.664 244.504 67.0208C244.921 69.44 246.192 71.6502 248.107 73.2844C249.022 74.0436 249.618 74.5447 249.793 75.676C250.008 77.0122 249.953 78.432 250.096 79.791C250.341 82.6469 250.997 85.4571 252.045 88.1424C253.651 91.9613 258.774 94.9451 259.077 88.7346Z" fill="#020202"/>
<path d="M256.014 91.8247H239.317L237.241 67.0436H253.946L256.014 91.8247Z" fill="#0D8872"/>
<path d="M255.044 39.3851C255.052 38.2152 255.129 37.0467 255.274 35.8851C255.386 34.8753 255.553 33.8579 255.759 32.8482C255.77 32.5554 255.847 32.2683 255.984 32.0063C256.121 31.7443 256.316 31.5136 256.555 31.3297C258.193 30.3648 260.087 29.8694 262.012 29.9024C263.162 29.7297 264.336 29.9998 265.277 30.6533C266.219 31.3067 266.849 32.2901 267.031 33.3872C267.07 33.6029 267.088 33.8214 267.087 34.0402C267.373 36.5987 266.681 39.1497 266.292 41.6931C265.988 43.6631 265.879 45.656 265.965 47.6455C264.957 48.2853 263.798 48.6765 262.593 48.7843C262.029 48.7837 261.47 48.6939 260.938 48.5186C260.789 48.492 260.646 48.4374 260.519 48.3579C260.392 48.2784 260.283 48.1756 260.198 48.0554C260.116 47.8443 260.097 47.6158 260.143 47.3949C260.173 47.1885 260.192 46.9807 260.198 46.7723C260.286 45.6085 260.262 44.4396 260.127 43.2799C260.13 43.2311 260.123 43.1822 260.105 43.1363C260.087 43.0905 260.059 43.0488 260.023 43.0142C259.94 42.9914 259.852 42.9914 259.769 43.0142H259.427C258.82 43.0597 258.211 43.0597 257.605 43.0142C256.879 42.9384 256.205 42.6181 255.704 42.1107C255.128 41.3155 254.892 40.3407 255.044 39.3851Z" fill="#FDB9A9"/>
<path d="M257.517 31.8839C257.095 32.051 256.62 32.051 256.197 31.8839C255.753 31.6575 255.386 31.3152 255.139 30.8969C254.642 30.1839 254.461 29.3125 254.633 28.4723C254.806 27.6321 255.319 26.8909 256.062 26.4099C256.633 26.0257 257.279 25.7539 257.962 25.6105C258.645 25.4672 259.351 25.455 260.039 25.5748C260.401 25.3546 260.808 25.2097 261.232 25.1496C262.874 24.6727 264.609 24.5713 266.299 24.8535C267.258 25.1194 268.158 25.549 268.956 26.1214C269.73 26.609 270.388 27.2451 270.889 27.9891C271.373 28.9432 271.678 29.9712 271.788 31.026C272.047 32.1538 272.188 33.3033 272.21 34.4577C272.208 34.9618 272.108 35.4611 271.915 35.9306C271.676 36.4494 271.333 36.9188 270.905 37.3124C270.278 37.9137 269.562 38.4252 268.781 38.8308C268.24 39.1193 267.612 39.4154 267.429 39.9849C267.375 40.2499 267.348 40.5195 267.349 40.7896C267.318 41.1868 267.15 41.563 266.872 41.8601C266.681 42.0575 266.355 42.5358 266.077 42.6194C265.798 42.7029 265.56 42.3688 265.48 42.0955C265.14 40.9446 265.224 39.7169 265.719 38.6182C266.069 38.0826 266.274 37.472 266.315 36.8417C266.252 36.2267 265.369 35.7332 264.947 36.0824C264.526 36.4317 264.446 37.3428 263.921 37.1681C264.518 35.3915 263.746 33.1594 261.956 32.4609C260.999 32.1855 260.004 32.0523 259.005 32.0662C258.528 31.974 258.044 31.9231 257.557 31.9143L257.517 31.8839Z" fill="#DD8049"/>
<path d="M259.443 42.9687C260.857 42.7134 262.24 42.3217 263.571 41.7994C263.69 45.9068 260.19 46.7572 260.19 46.7572C260.278 45.5934 260.254 44.4244 260.119 43.2647C260.122 43.1666 260.085 43.0711 260.015 42.999C259.932 42.9762 259.844 42.9762 259.761 42.999H259.443V42.9687Z" fill="#DE9F93"/>
<path d="M280.125 66.1857L282.113 74.4916C282.319 75.1823 282.408 75.9 282.376 76.6175C282.233 77.9613 281.27 79.0698 280.348 80.0871C279.213 81.5226 277.787 82.7257 276.155 83.6251C275.024 84.1023 273.822 84.4096 272.592 84.5362C269.342 85.0064 266.052 85.1818 262.768 85.06C262.508 85.0659 262.249 85.0166 262.012 84.9158C261.775 84.7705 261.578 84.5725 261.439 84.3388C260.29 82.6823 259.302 80.9288 258.488 79.1001C261.12 77.4084 264.01 76.1152 267.055 75.266C267.67 75.1568 268.243 74.895 268.718 74.5068C269.027 74.1371 269.232 73.698 269.314 73.2313C270.611 67.9168 267.62 61.9948 270.014 57.0371C271.375 54.2128 274.278 51.1834 276.378 54.9568C278.359 58.3961 279.218 62.4048 280.125 66.1857Z" fill="white"/>
<path d="M256.205 79.1608C255.846 78.9032 255.466 78.6746 255.067 78.4775C254.865 78.3812 254.641 78.3355 254.416 78.3448C254.19 78.3541 253.971 78.4181 253.779 78.5307C253.604 78.6522 253.468 78.8495 253.254 78.9179C253.112 78.9482 252.966 78.9482 252.824 78.9179L250.167 78.6597C249.957 78.6101 249.738 78.6076 249.527 78.6524C249.316 78.6972 249.118 78.788 248.95 78.9179C248.608 79.2899 248.815 79.8745 249.046 80.3224C249.727 81.643 250.487 82.9256 251.321 84.1641C251.472 84.4174 251.663 84.6478 251.885 84.8474C252.191 85.0676 252.545 85.2206 252.92 85.2954C254.289 85.5977 255.718 85.54 257.056 85.1283C258.385 84.7125 259.624 84.0722 260.715 83.2379C260.872 83.1278 261.009 82.9945 261.121 82.8431C261.231 82.6565 261.296 82.4491 261.312 82.2357C261.439 81.2563 261.113 79.6771 259.777 79.7454C258.551 79.9515 257.288 79.7448 256.205 79.1608Z" fill="#FDB9A9"/>
<path d="M88.5984 148.303C88.6532 148.219 88.7337 148.153 88.8291 148.114C89.0518 148.045 89.2587 148.235 89.4098 148.402C90.786 149.921 92.8462 150.68 94.819 151.363C94.9383 151.401 95.0895 151.439 95.1849 151.363C95.2804 151.287 95.2804 151.204 95.3202 151.128C95.3931 151.034 95.4978 150.966 95.6166 150.937C95.7354 150.908 95.8611 150.919 95.9725 150.968C96.1889 151.079 96.3851 151.223 96.5532 151.394C97.3486 152.092 98.4862 152.373 99.3612 152.995C99.594 153.133 99.7708 153.342 99.8623 153.588C99.8923 153.723 99.8861 153.864 99.8444 153.996C99.8027 154.129 99.7268 154.25 99.6237 154.347C99.4065 154.552 99.1291 154.69 98.8282 154.742C98.2813 154.849 97.7196 154.87 97.1657 154.802C94.4133 154.605 91.6716 154.327 88.9405 153.967C88.7273 153.953 88.5192 153.899 88.328 153.808C88.1175 153.646 87.9537 153.435 87.8521 153.196C87.7505 152.957 87.7144 152.697 87.7473 152.441C87.7779 151.763 87.8603 151.088 87.9938 150.422C87.977 149.675 88.187 148.939 88.5984 148.303Z" fill="#262836"/>
<path d="M80.8187 153.018C81.1342 153.193 81.483 153.307 81.8449 153.352C82.4696 153.5 83.1194 153.523 83.754 153.421C84.0698 153.364 84.362 153.223 84.5961 153.013C84.8301 152.803 84.9962 152.533 85.0745 152.236C85.0745 152.054 85.2177 151.796 85.3847 151.879C85.4219 151.905 85.452 151.939 85.4722 151.978C85.9116 152.791 86.1459 153.69 86.1563 154.605C86.2454 155.093 86.2016 155.595 86.029 156.063C85.8895 156.32 85.69 156.543 85.446 156.716C85.2019 156.888 84.9197 157.005 84.6211 157.057C84.0296 157.164 83.4226 157.164 82.8312 157.057C82.3221 156.981 81.821 156.89 81.3278 156.769C81.1076 156.739 80.8992 156.656 80.7232 156.526C80.5746 156.39 80.4603 156.224 80.3891 156.04C79.983 155.136 79.8322 154.147 79.9516 153.17C79.9732 152.963 80.0105 152.757 80.063 152.555C80.063 152.464 80.1266 152.062 80.2619 152.107C80.3971 152.153 80.3653 152.206 80.3653 152.297C80.3677 152.393 80.3865 152.488 80.421 152.578C80.5058 152.758 80.6441 152.911 80.8187 153.018Z" fill="#262836"/>
<path d="M168.512 23.0921C168.379 22.5243 168.478 21.9294 168.79 21.4294C169.05 21.1413 169.389 20.9282 169.769 20.8145C170.164 20.6716 170.575 20.5698 170.994 20.5108C171.202 20.4931 171.405 20.4363 171.59 20.3438C171.74 20.2222 171.869 20.0787 171.972 19.9186C172.281 19.593 172.666 19.3415 173.096 19.1845C173.526 19.0275 173.988 18.9695 174.446 19.0151C175.361 19.0151 176.26 19.2732 177.175 19.3112C178.089 19.3492 179.195 19.1897 180.022 19.6756C180.655 20.1275 181.089 20.7878 181.239 21.5281C181.56 21.4849 181.887 21.558 182.154 21.7331C182.655 22.1735 182.154 23.0694 182.592 23.5932C182.799 23.8438 183.164 23.9501 183.387 24.2158C183.53 24.4691 183.572 24.7628 183.507 25.0434C183.485 25.3524 183.44 25.6594 183.371 25.962C183.149 26.7972 182.576 27.4805 182.305 28.3232C182.17 28.7635 182.138 29.2267 182.027 29.667C181.716 30.6424 181.217 31.5539 180.555 32.3547C181.015 30.3582 181.066 28.2959 180.706 26.2809C180.714 26.188 180.691 26.0953 180.641 26.0152C180.591 25.9351 180.517 25.8715 180.428 25.8329C180.301 25.8042 180.167 25.8232 180.054 25.8861C177.936 26.6848 175.597 26.7731 173.42 26.1366C172.801 25.8738 172.121 25.7692 171.447 25.8329C171.176 25.9103 170.91 26.0041 170.652 26.1139C170.38 26.2125 170.08 26.2125 169.808 26.1139C169.752 26.2253 169.723 26.3471 169.721 26.4707C169.204 26.3568 169.236 25.6431 169.093 25.2483C168.827 24.5489 168.633 23.8269 168.512 23.0921Z" fill="#2F3554"/>
<path d="M182.25 30.3276C182.304 30.4053 182.339 30.4934 182.353 30.5857C182.463 31.1073 182.363 31.6491 182.075 32.1042C181.794 32.5648 181.376 32.935 180.874 33.1671C180.743 33.2392 180.599 33.2833 180.449 33.2964C180.299 33.3095 180.148 33.2913 180.006 33.243C179.868 33.1527 179.754 33.033 179.673 32.8933C179.591 32.7537 179.545 32.5979 179.537 32.4382C179.461 32.1147 179.461 31.7792 179.535 31.4553C179.609 31.1314 179.756 30.8269 179.967 30.563C180.147 30.3891 180.363 30.2524 180.601 30.161C180.839 30.0696 181.094 30.0255 181.351 30.0315C181.514 30.0155 181.679 30.0337 181.834 30.0849C181.99 30.136 182.131 30.2188 182.25 30.3276Z" fill="#FDB9A9"/>
<path d="M174.343 37.5402C174.382 37.8515 174.128 38.1248 174.096 38.4361C174.064 38.7474 174.096 39.1194 174.096 39.4611C174.08 39.8926 173.93 40.3098 173.667 40.6606C173.35 40.9652 172.951 41.1783 172.513 41.2756C171.617 41.5953 170.669 41.7599 169.713 41.7615C169.317 41.7401 168.924 41.6919 168.536 41.6173C167.907 41.5186 166.277 41.5717 166.149 40.7518C166.188 40.302 166.318 39.8637 166.531 39.4611C166.603 39.2409 166.666 39.0207 166.73 38.8005C166.794 38.5804 166.881 38.2539 166.945 37.9806C167.247 36.6747 167.454 35.217 168.536 34.3287C168.806 34.0934 169.26 33.9263 169.506 34.1845C169.753 34.4426 169.665 34.8146 169.952 34.883C170.052 34.8908 170.153 34.8752 170.246 34.8374C171.31 34.3759 172.476 34.1699 173.643 34.2376C173.861 34.2487 174.074 34.3123 174.26 34.4224C174.446 34.5326 174.601 34.6857 174.709 34.8678C175.019 35.627 174.001 36.3862 174.247 37.1454C174.295 37.2731 174.327 37.4056 174.343 37.5402Z" fill="#FDB9A9"/>
<path d="M171.988 66.7247C171.775 66.5201 171.54 66.3369 171.288 66.1781C171.447 68.9948 171.932 71.9406 173.738 74.1727C174.208 74.684 174.647 75.2215 175.051 75.7823C175.846 77.0578 175.91 78.7129 176.928 79.8365C177.822 80.6553 178.963 81.1863 180.189 81.355C181.259 81.7107 182.429 81.6673 183.467 81.2335C184.292 80.6428 184.901 79.8194 185.209 78.8799C185.901 77.3083 187.174 75.0383 186.124 73.3376C185.376 72.1304 183.021 71.1738 181.589 71.1738C179.623 70.6967 177.702 70.0643 175.846 69.2833C174.918 68.979 174.047 68.5329 173.269 67.9623C172.807 67.5903 172.425 67.1271 171.988 66.7247Z" fill="white"/>
<path opacity="0.1" d="M129.812 78.356C129.256 80.0752 129.016 81.8733 129.104 83.6706C129.107 83.9437 129.077 84.2162 129.016 84.483C128.913 84.2856 128.802 84.1869 128.69 84.2173C125.858 84.9765 119.781 86.4949 116.901 86.9808C116.485 87.0768 116.053 87.0974 115.629 87.0416C115.191 86.9348 114.784 86.7378 114.435 86.4646C110.872 83.9667 108.867 80.2465 107.602 76.3289C107.691 75.6505 107.849 74.9819 108.072 74.3322C109.766 75.2053 110.649 76.997 111.707 78.5383C112.726 80.0368 113.982 81.3762 115.43 82.509C115.717 82.7632 116.059 82.9549 116.432 83.0708C116.873 83.152 117.328 83.1338 117.761 83.0177C122.088 82.2357 126.67 81.2942 129.812 78.356Z" fill="#020202"/>
<path opacity="0.1" d="M192.336 88.4233C189.845 90.7315 187.213 92.8965 184.453 94.9071C182.488 96.3572 180.388 97.7846 177.938 98.2401C176.963 98.4606 175.942 98.3998 175.003 98.0655C174.226 97.6856 173.53 97.1706 172.951 96.547C172.243 95.8789 164.129 86.9656 163.993 86.9656C163.535 87.2006 163.182 87.5864 162.999 88.0513C161.823 90.3644 161.098 92.8625 160.859 95.4234C160.764 96.5705 160.764 97.7231 160.859 98.8702C161.178 102.765 162.609 106.781 161.193 110.456C160.917 111.237 160.451 111.945 159.833 112.521C159.232 113.008 158.545 113.388 157.805 113.645C156.206 114.251 154.573 114.77 152.913 115.201C152.108 115.431 151.259 115.48 150.431 115.345C149.953 115.254 148.752 114.442 148.418 114.48C149.632 114.313 150.774 113.826 151.714 113.073C152.654 112.321 153.356 111.333 153.74 110.221C154.305 108.467 154.026 106.584 154.034 104.747C154.104 102.615 154.37 100.494 154.83 98.4071L156.532 89.5166C157.105 86.4797 158.266 82.1673 161.575 80.8007C162.235 80.5274 162.959 80.9753 163.532 81.4005C167.366 84.2704 171.272 87.2086 174.024 91.0578C174.82 92.1283 175.544 93.3355 176.801 93.8214C178.057 94.3073 179.704 93.8746 181.064 93.3507C183.093 92.5691 185.068 91.6637 186.975 90.6403C188.407 89.881 190.3 88.1576 192.082 88.3626C192.168 88.3748 192.254 88.3951 192.336 88.4233Z" fill="#020202"/>
<defs>
<linearGradient id="paint0_linear_246_5" x1="142.245" y1="137.538" x2="142.245" y2="205.086" gradientUnits="userSpaceOnUse">
<stop offset="0.01"/>
<stop offset="0.08" stop-opacity="0.69"/>
<stop offset="0.21" stop-opacity="0.32"/>
<stop offset="1" stop-opacity="0"/>
</linearGradient>
<linearGradient id="paint1_linear_246_5" x1="254.876" y1="133.089" x2="261.82" y2="192.167" gradientUnits="userSpaceOnUse">
<stop offset="0.01"/>
<stop offset="0.08" stop-opacity="0.69"/>
<stop offset="0.21" stop-opacity="0.32"/>
<stop offset="1" stop-opacity="0"/>
</linearGradient>
<linearGradient id="paint2_linear_246_5" x1="70.4855" y1="125.762" x2="77.4294" y2="184.84" gradientUnits="userSpaceOnUse">
<stop offset="0.01"/>
<stop offset="0.08" stop-opacity="0.69"/>
<stop offset="0.21" stop-opacity="0.32"/>
<stop offset="1" stop-opacity="0"/>
</linearGradient>
<linearGradient id="paint3_linear_246_5" x1="166.603" y1="83.0557" x2="157.497" y2="211.875" gradientUnits="userSpaceOnUse">
<stop offset="0.01"/>
<stop offset="0.08" stop-opacity="0.69"/>
<stop offset="0.21" stop-opacity="0.32"/>
<stop offset="1" stop-opacity="0"/>
</linearGradient>
<linearGradient id="paint4_linear_246_5" x1="116.48" y1="102.249" x2="188" y2="207.164" gradientUnits="userSpaceOnUse">
<stop offset="0.01" stop-color="#28D682"/>
<stop offset="0.08" stop-opacity="0.69"/>
<stop offset="0.21" stop-opacity="0.32"/>
<stop offset="1" stop-opacity="0"/>
</linearGradient>
</defs>
</svg>
