<svg width="357" height="269" viewBox="0 0 357 269" fill="none" xmlns="http://www.w3.org/2000/svg">
<g clip-path="url(#clip0_15_111)">
<path opacity="0.18" d="M327.987 177.503C325.861 186.168 322.959 194.624 319.316 202.768C313.736 215.569 306.882 228.283 296.154 237.201C274.972 254.917 244.542 253.85 217.195 257.672C194.739 260.805 172.808 267.795 150.163 268.862C137.058 269.465 123.953 268.062 110.934 266.444C86.9275 263.448 60.8635 258.533 45.1839 240.128C34.481 227.569 30.4944 210.714 28.1523 194.392C27.2906 188.805 26.7758 183.171 26.6111 177.52C26.4388 169.557 27.3171 161.672 30.2361 154.278C35.3507 141.365 46.1655 131.509 57.5485 123.494C68.9316 115.48 81.279 108.74 91.6116 99.3913C108.591 84.0428 118.881 62.8836 131.401 43.7302C143.92 24.5768 160.676 6.00874 183.064 1.26558C192.914 -0.817622 203.16 -0.0428774 213.105 1.54965C226.159 3.63286 239.23 7.19668 250.363 14.3329C264.51 23.3544 274.679 37.6786 281.516 53.0185C285.278 61.7142 288.353 70.6915 290.712 79.8677C292.641 86.9868 293.183 94.5018 298.177 100.071C309.31 112.545 321.744 122.152 327.367 138.809C331.594 151.282 331.026 164.53 327.987 177.503Z" fill="#1E8D79" fill-opacity="0.81"/>
<path opacity="0.18" d="M327.987 177.503C325.861 186.168 322.959 194.624 319.316 202.768C313.736 215.569 306.882 228.283 296.154 237.201C274.972 254.917 244.542 253.85 217.195 257.672C194.739 260.805 172.808 267.795 150.163 268.862C137.058 269.465 123.953 268.062 110.933 266.444C86.9275 263.448 60.8635 258.533 45.1838 240.128C34.481 227.569 30.4943 210.714 28.1523 194.392C27.2905 188.805 26.7758 183.171 26.611 177.52L327.987 177.503Z" fill="#42CAB1"/>
<path d="M166.927 215.233C223.802 215.233 269.909 210.577 269.909 204.834C269.909 199.091 223.802 194.435 166.927 194.435C110.052 194.435 63.946 199.091 63.946 204.834C63.946 210.577 110.052 215.233 166.927 215.233Z" fill="url(#paint0_linear_15_111)"/>
<path d="M100.704 168.653C96.6487 178.665 96.1407 189.787 92.5243 199.97C92.4486 200.286 92.2583 200.562 91.9904 200.745C91.7305 200.831 91.4497 200.831 91.1897 200.745L87.0566 199.936C90.5869 189.124 89.0543 177.176 92.4726 166.364C92.5348 166.059 92.6878 165.779 92.9118 165.563C93.2273 165.365 93.6007 165.28 93.9709 165.322C95.935 165.279 97.8988 165.426 99.8346 165.761C101.6 166.131 101.316 167.113 100.704 168.653Z" fill="#FDB9A9"/>
<path d="M113.672 199.428C113.085 199.572 112.467 199.52 111.913 199.279C111.36 199.038 110.9 198.621 110.606 198.094C110.046 197.029 109.729 195.853 109.676 194.65L108.919 187.815C108.678 185.724 108.445 183.623 108.35 181.514C108.109 176.065 108.798 170.616 109.487 165.158C109.504 164.4 109.788 163.672 110.288 163.101C111.398 162.146 116.039 161.603 117.305 162.559C119.027 163.85 117.236 168.266 116.918 170.031C115.781 176.306 114.765 182.616 114.188 188.969C114.094 189.985 114.059 199.282 113.672 199.428Z" fill="#FDB9A9"/>
<path d="M120.043 160.622C119.906 162.18 119.699 163.712 119.467 165.21C119.429 165.777 119.229 166.321 118.89 166.777C118.566 167.085 118.178 167.317 117.753 167.457C114.743 168.663 111.597 169.495 108.385 169.936C107.53 167.466 106.882 164.929 106.447 162.352C104.795 164.234 103.743 166.566 103.425 169.049C103.425 169.496 103.27 169.928 102.986 170.272C102.76 170.425 102.503 170.525 102.233 170.566C101.964 170.606 101.688 170.585 101.428 170.504L95.2797 169.549C94.0053 169.351 92.5501 169.032 91.9216 167.896C91.5534 166.941 91.5321 165.887 91.8613 164.917L94.4444 153.072C94.4735 152.482 94.6956 151.917 95.0766 151.464C95.4577 151.012 95.9767 150.697 96.554 150.567C101.815 148.458 107.033 146.186 112.354 144.232C116.573 142.674 118.123 143.956 119.243 148.217C120.222 152.275 120.493 156.472 120.043 160.622Z" fill="#505365"/>
<path d="M116.746 115.007C117.767 116.206 118.616 117.541 119.268 118.975C119.654 120.008 119.942 121.074 120.129 122.16L120.991 126.602C121.018 126.65 121.034 126.704 121.035 126.76C121.036 126.815 121.023 126.87 120.997 126.919C120.971 126.968 120.934 127.01 120.887 127.04C120.841 127.07 120.787 127.089 120.732 127.093C120.022 127.265 119.328 127.499 118.657 127.79C118.273 127.916 117.947 128.178 117.741 128.527C117.536 128.875 117.463 129.286 117.538 129.684C117.727 130.829 117.779 131.999 117.908 133.127C118.16 135.502 118.542 137.861 119.053 140.194C119.338 141.202 119.475 142.246 119.458 143.293C119.286 145.747 117.245 147.77 114.912 148.536C114.561 148.649 114.205 148.741 113.844 148.811C111.77 149.122 109.653 148.957 107.653 148.329C106.663 147.967 105.616 147.789 104.562 147.804C103.28 148.064 102.068 148.592 101.006 149.354C99.4427 150.237 97.7565 150.881 96.0029 151.265C95.4174 151.394 94.6338 151.385 94.4272 150.826C94.3569 150.519 94.3933 150.197 94.5305 149.913C95.6585 146.59 95.3916 142.639 95.2366 139.17C95.1849 138.206 95.6499 135.606 94.8663 134.943C94.0828 134.281 91.5771 134.797 90.6644 134.943C90.6031 134.969 90.5372 134.983 90.4707 134.983C90.4041 134.983 90.3383 134.969 90.2769 134.943C90.1806 134.85 90.1223 134.724 90.1133 134.59C89.7431 131.793 89.7431 128.96 90.1133 126.163C90.241 123.995 90.6314 121.85 91.2757 119.776C92.9978 114.843 97.3633 112.992 102.202 112.14C103.664 111.882 105.065 111.357 106.335 110.591C107.627 109.807 109.031 110.418 110.288 110.832C111.812 111.34 113.413 111.563 114.696 112.622C115.441 113.319 116.111 114.092 116.694 114.929L116.746 115.007Z" fill="#228B78"/>
<path d="M106.697 128.065C107.22 128.229 107.662 128.582 107.937 129.055L113.964 136.854C114.644 137.684 115.222 138.591 115.686 139.557C116.479 141.357 116.453 143.44 117.279 145.222C118.192 143.423 118.097 141.305 117.985 139.299L117.538 131.474C117.545 131.092 117.46 130.714 117.288 130.372C116.918 129.934 116.412 129.631 115.85 129.512C112.608 128.301 109.968 125.869 108.497 122.737C108.394 122.43 108.198 122.162 107.937 121.971C107.455 121.695 106.869 122.031 106.456 122.393C104.398 124.174 100.368 130.906 102.151 133.532C103.279 132.421 104.734 127.721 106.697 128.065Z" fill="url(#paint1_linear_15_111)"/>
<path d="M120.594 128.005C121.082 129.222 121.347 130.517 121.378 131.827C121.428 132.45 121.319 133.075 121.059 133.644C120.687 134.201 120.139 134.618 119.502 134.827C118.865 135.036 118.177 135.025 117.546 134.797C116.296 134.306 115.18 133.524 114.292 132.516C113.274 131.57 112.332 130.546 111.476 129.451C110.882 128.542 110.22 127.678 109.496 126.869C108.926 126.406 108.404 125.886 107.937 125.319C107.505 124.441 107.214 123.5 107.076 122.53C106.654 121.024 105.776 119.69 105.233 118.226C105.136 118.033 105.085 117.819 105.085 117.602C105.085 117.385 105.136 117.172 105.233 116.978C105.429 116.738 105.709 116.581 106.017 116.539C106.548 116.427 107.097 116.431 107.626 116.551C108.155 116.672 108.652 116.905 109.082 117.236C109.642 117.729 110.116 118.311 110.486 118.958C110.979 119.679 111.343 120.48 111.562 121.325C111.597 122.136 111.802 122.931 112.165 123.658C112.408 123.952 112.699 124.202 113.026 124.398C114.734 125.547 116.583 126.471 118.528 127.144C119.472 127.326 120.315 127.85 120.896 128.616" fill="#FDB9A9"/>
<path d="M105.156 115.463C104.318 115.718 103.429 115.757 102.573 115.575C101.971 115.367 101.42 115.035 100.954 114.602C100.413 114.231 99.996 113.706 99.7571 113.096C99.653 112.437 99.6971 111.764 99.8862 111.124C100.11 109.749 99.9214 108.338 99.3438 107.07C99.3438 107.07 101.29 107.182 101.462 107.216C102.209 107.373 102.931 107.634 103.606 107.991C104.547 108.424 105.375 109.07 106.025 109.876C106.469 110.695 106.747 111.593 106.843 112.519C107.128 114.086 106.835 115.093 105.156 115.463Z" fill="#FDB9A9"/>
<path d="M106.697 114.12C106.843 113.753 106.87 113.35 106.775 112.967L106.353 109.85C106.352 109.789 106.337 109.729 106.31 109.674C106.284 109.619 106.245 109.571 106.198 109.532C106.121 109.514 106.042 109.514 105.965 109.532C104.639 109.635 101.35 109.162 102.444 111.253C102.693 111.718 106.447 114.602 106.697 114.12Z" fill="url(#paint2_linear_15_111)"/>
<path d="M108.833 107.517C108.86 108.264 108.703 109.006 108.376 109.678C107.515 111.305 105.208 111.615 103.408 111.159C98.586 109.919 97.0878 105.563 96.2354 101.233C95.9776 100.155 96.1408 99.0191 96.6917 98.0569C96.8859 97.7386 97.1236 97.4488 97.3978 97.1961C98.0875 96.5739 98.9179 96.1282 99.8177 95.8973C100.717 95.6664 101.66 95.6572 102.564 95.8704C107.205 97.0239 108.927 103.411 108.833 107.517Z" fill="#FDB9A9"/>
<path d="M113.956 187.325C114.037 187.351 114.11 187.395 114.171 187.454C114.412 187.738 114.292 188.547 114.283 188.883C114.226 193.411 114.326 197.942 114.584 202.475C114.597 202.53 114.597 202.587 114.585 202.642C114.573 202.697 114.549 202.749 114.515 202.794C114.473 202.833 114.422 202.863 114.368 202.882C114.313 202.902 114.255 202.91 114.197 202.906C113.448 202.965 112.695 202.95 111.95 202.863C111.882 202.86 111.817 202.839 111.76 202.803C111.707 202.766 111.665 202.716 111.64 202.656L110.331 200.186C110.117 199.817 109.942 199.427 109.806 199.024C109.687 198.543 109.606 198.053 109.564 197.56C109.28 195.503 108.342 193.54 108.221 191.465C108.211 189.921 108.431 188.383 108.876 186.903C108.885 186.838 108.919 186.78 108.97 186.74C109.026 186.722 109.086 186.722 109.143 186.74C110.316 186.975 111.504 187.133 112.699 187.213C113.12 187.211 113.541 187.249 113.956 187.325Z" fill="#FEFEFF"/>
<path d="M95.3141 190.441C93.9823 195.64 92.4956 200.805 90.8538 205.936C90.7752 206.278 90.6158 206.597 90.3889 206.866C89.7086 207.546 88.0899 206.65 87.3924 206.34C87.3243 206.314 87.2627 206.272 87.2116 206.22C87.1683 206.159 87.1415 206.088 87.1341 206.013L86.5486 202.932C86.4556 202.475 86.4066 202.011 86.4022 201.546C86.4297 200.992 86.5046 200.442 86.6261 199.901C87.005 197.603 86.6261 195.176 87.2116 192.912C87.4343 192.077 87.7461 191.269 88.1415 190.501C88.4171 189.95 89.0026 188.444 89.4934 188.143C89.9842 187.841 91.2155 188.427 91.7493 188.59L94.6683 189.451C94.8095 189.472 94.9446 189.523 95.0647 189.601C95.1849 189.678 95.2875 189.779 95.3657 189.899C95.4005 190.081 95.3826 190.269 95.3141 190.441Z" fill="#FEFEFF"/>
<path d="M110.623 201.115C110.764 201.002 110.942 200.943 111.123 200.952C111.364 200.952 111.528 201.201 111.708 201.356C112.074 201.585 112.489 201.724 112.919 201.76C113.349 201.795 113.781 201.728 114.18 201.563C114.388 201.507 114.608 201.507 114.817 201.563C114.96 201.617 115.087 201.706 115.187 201.821C115.712 202.487 116.198 203.182 116.642 203.904C117.398 204.638 118.108 205.417 118.769 206.237C118.847 206.335 118.897 206.452 118.915 206.576C118.933 206.7 118.918 206.827 118.872 206.943C118.798 207.033 118.702 207.105 118.595 207.151C118.487 207.198 118.369 207.218 118.252 207.21C116.306 207.356 114.421 206.582 112.621 205.833C112.011 205.599 111.432 205.29 110.899 204.912C110.637 204.75 110.409 204.538 110.229 204.288C110.049 204.038 109.921 203.755 109.85 203.455C109.78 203.155 109.769 202.844 109.819 202.54C109.869 202.236 109.979 201.945 110.141 201.683C110.27 201.469 110.432 201.277 110.623 201.115Z" fill="#505365"/>
<path d="M86.2644 204.834C86.3201 204.764 86.3891 204.706 86.4675 204.663C86.5458 204.62 86.632 204.594 86.7208 204.584C86.9596 204.618 87.1836 204.72 87.3666 204.877C87.7667 205.041 88.2004 205.105 88.6308 205.064C89.0611 205.024 89.4752 204.88 89.8378 204.645C90.0123 204.541 90.2119 204.488 90.4147 204.49C90.5625 204.515 90.7016 204.578 90.8194 204.67C91.456 205.235 92.0597 205.836 92.6276 206.47C93.4978 207.063 94.3343 207.703 95.1332 208.389C95.2264 208.472 95.2961 208.577 95.3354 208.695C95.3748 208.813 95.3822 208.939 95.3571 209.061C95.2796 209.284 95.0213 209.379 94.7974 209.439C92.9031 209.922 90.9141 209.5 89.0112 209.078C88.3605 208.959 87.7271 208.759 87.1255 208.484C86.8439 208.363 86.589 208.188 86.3751 207.968C86.1613 207.749 85.9928 207.489 85.8793 207.205C85.7657 206.92 85.7094 206.616 85.7134 206.31C85.7174 206.003 85.7818 205.701 85.9028 205.419C85.9944 205.208 86.1162 205.011 86.2644 204.834Z" fill="#505365"/>
<path d="M237.034 117.116C236.637 117.707 236.371 118.376 236.255 119.079C236.139 119.781 236.176 120.5 236.362 121.187C237.043 124.381 239.462 126.903 240.771 129.899C241.709 132.405 242.269 135.036 242.433 137.707L242.975 142.768C243.173 143.983 243.173 145.221 242.975 146.436C242.665 147.761 241.865 149.018 242.114 150.387C242.211 150.86 242.438 151.296 242.77 151.646C243.102 151.996 243.526 152.247 243.993 152.369C244.46 152.49 244.952 152.479 245.412 152.336C245.873 152.192 246.285 151.923 246.6 151.557C247.642 150.335 247.332 148.51 247.134 146.909C246.6 142.743 247.212 138.516 247.84 134.358C248.057 133.285 248.115 132.186 248.012 131.096C247.849 130.246 247.592 129.418 247.246 128.625L243.544 119.208C242.614 116.832 239.152 114.361 237.034 117.116Z" fill="#FDB9A9"/>
<path d="M212.83 100.631C213.099 99.9721 213.224 99.2636 213.198 98.5525C213.171 97.8414 212.993 97.1443 212.675 96.5075C211.375 93.5119 208.499 91.5233 206.648 88.8462C205.223 86.5794 204.152 84.1093 203.47 81.5205L201.92 76.6741C201.481 75.5265 201.239 74.3127 201.206 73.0844C201.206 71.7157 201.765 70.2953 201.206 69.0385C201.016 68.5961 200.706 68.2156 200.311 67.9399C199.916 67.6643 199.452 67.5045 198.971 67.4785C198.49 67.4525 198.012 67.5615 197.59 67.793C197.168 68.0246 196.818 68.3695 196.582 68.7889C195.798 70.192 196.47 71.9223 196.987 73.446C198.338 77.423 198.58 81.6841 198.795 85.8849C198.701 87.8642 199.311 89.8128 200.517 91.3856L206.028 99.882C207.414 102.025 211.297 103.756 212.83 100.631Z" fill="#FDB9A9"/>
<path d="M228.475 164.874C232.901 175.807 233.452 187.962 237.404 199.075C237.479 199.428 237.689 199.737 237.99 199.936C238.269 200.03 238.572 200.03 238.851 199.936L243.363 199.075C239.514 187.265 241.184 174.214 237.447 162.369C237.379 162.042 237.214 161.742 236.974 161.509C236.629 161.287 236.217 161.196 235.811 161.25C233.668 161.2 231.525 161.361 229.414 161.732C227.528 162.12 227.838 163.213 228.475 164.874Z" fill="#FDB9A9"/>
<path d="M206.897 198.378C207.503 198.641 208.178 198.7 208.82 198.544C209.462 198.389 210.035 198.028 210.453 197.517C211.264 196.476 211.831 195.267 212.115 193.979L214.259 186.774C214.914 184.57 215.577 182.358 216.085 180.111C217.402 174.292 217.712 168.301 218.013 162.352C218.156 161.533 217.991 160.69 217.548 159.985C216.541 158.737 211.659 157.265 210.118 158.039C208.017 159.09 209.093 164.186 209.093 166.148C209.093 173.113 208.964 180.094 208.361 187.041C208.266 188.151 206.51 198.154 206.897 198.378Z" fill="#FDB9A9"/>
<path d="M205.89 156.24C205.822 156.613 205.889 156.997 206.079 157.325C206.406 157.636 206.842 157.806 207.293 157.798C212.21 158.453 216.197 162.507 221.122 163.015L222.594 155.75L223.541 160.217C223.601 160.691 223.776 161.143 224.049 161.534C224.49 161.967 225.057 162.248 225.668 162.335C229.02 163.185 232.44 163.741 235.889 163.996C236.698 164.057 237.688 163.996 238.05 163.273C238.196 162.91 238.232 162.512 238.153 162.128C237.583 156.753 236.286 151.479 234.296 146.453C234.21 146.194 234.079 145.952 233.908 145.738C233.472 145.38 232.931 145.174 232.367 145.153C226.193 144.292 220.752 140.788 215.146 138.085C210.393 135.804 209.317 138.447 208.258 142.562C207.052 147.039 206.26 151.618 205.89 156.24Z" fill="#505365"/>
<path d="M245.248 120.989C245.214 121.341 245.059 121.669 244.809 121.919C243.43 123.581 241.537 124.735 239.428 125.199L238.997 125.259C237.628 125.414 236.767 123.942 235.699 125.19C234.244 126.912 234.632 130.631 234.511 132.723C234.279 136.932 234.304 141.176 233.443 145.316C233.407 145.637 233.272 145.938 233.056 146.177C232.866 146.308 232.65 146.396 232.422 146.436C232.195 146.476 231.962 146.467 231.739 146.41C230.533 146.263 229.328 146.074 228.131 145.842C221.346 144.561 214.88 141.958 209.102 138.18C211.495 131.603 210.918 124.536 210.505 117.684C210.385 115.618 210.505 113.5 210.505 111.426C210.505 110.444 210.505 109.472 210.445 108.525C210.281 105.899 207.001 103.601 205.124 102.094C205.018 102.033 204.926 101.95 204.855 101.85C204.783 101.751 204.734 101.638 204.71 101.518C204.713 101.394 204.741 101.272 204.795 101.161C204.848 101.05 204.925 100.951 205.02 100.872C207.081 98.519 209.211 96.2235 211.409 93.9853C211.497 93.849 211.618 93.7379 211.761 93.6629C211.905 93.5879 212.065 93.5517 212.227 93.5578C212.389 93.5639 212.546 93.6121 212.684 93.6976C212.821 93.7832 212.934 93.9031 213.011 94.0456C214.262 95.2565 215.496 96.4817 216.713 97.7213C217.643 98.6682 218.513 100.123 219.865 100.235C220.782 100.413 221.646 100.802 222.388 101.371C224.575 102.685 227.096 103.337 229.646 103.248C231.696 103.162 232.677 105.83 233.857 107.199C235.648 109.291 237.947 110.642 239.953 112.467C240.582 113.081 241.135 113.769 241.598 114.516C242.82 116.35 243.957 118.243 244.99 120.189C245.151 120.426 245.24 120.704 245.248 120.989Z" fill="#228B78"/>
<path d="M223.636 106.786C224.569 107.069 225.558 107.114 226.512 106.915C227.15 106.671 227.735 106.306 228.234 105.839C228.824 105.431 229.277 104.855 229.534 104.186C229.648 103.467 229.601 102.732 229.397 102.034C229.156 100.533 229.363 98.994 229.991 97.6094C229.991 97.6094 227.864 97.7299 227.674 97.7643C226.858 97.9426 226.07 98.2323 225.332 98.6252C224.307 99.0988 223.406 99.8029 222.698 100.683C222.215 101.577 221.922 102.562 221.837 103.575C221.492 105.288 221.802 106.381 223.636 106.786Z" fill="#FDB9A9"/>
<path d="M221.845 102.611C221.76 102.808 221.716 103.02 221.716 103.235C221.716 103.449 221.76 103.662 221.845 103.859C221.967 104.039 222.141 104.178 222.345 104.256C222.548 104.335 222.77 104.349 222.982 104.298C223.403 104.184 223.788 103.964 224.101 103.661C224.763 103.112 225.342 102.471 225.823 101.759C226.237 101.241 226.46 100.596 226.452 99.9336C225.234 99.884 224.015 99.9735 222.818 100.2C222.293 100.381 222.474 100.364 222.396 100.941C222.252 101.51 222.067 102.068 221.845 102.611Z" fill="url(#paint3_linear_15_111)"/>
<path d="M219.417 95.991C219.192 96.7722 219.159 97.5963 219.322 98.3927C219.839 100.364 222.155 101.302 224.187 101.294C225.959 101.265 227.691 100.763 229.205 99.8418C230.718 98.9203 231.959 97.6118 232.798 96.0513C233.195 95.3558 233.408 94.5708 233.418 93.7701C233.346 92.9053 233.049 92.0744 232.557 91.3598C231.093 88.9925 227.631 85.4717 224.592 87.3397C221.94 88.9581 220.063 93.1417 219.417 95.991Z" fill="#FDB9A9"/>
<path d="M224.712 84.0858C224.528 84.0429 224.337 84.0429 224.153 84.0858C224.022 84.1339 223.902 84.2085 223.802 84.3047C223.701 84.401 223.621 84.5169 223.567 84.6453C223.042 85.7902 223.963 87.0557 224.893 87.8993C225.754 88.6756 226.685 89.3701 227.674 89.9739C227.845 90.0576 227.993 90.1817 228.105 90.3354C228.227 90.5817 228.292 90.8525 228.294 91.1274C228.345 91.4457 228.468 91.7481 228.655 92.0109C228.842 92.2738 229.087 92.4899 229.371 92.6424C229.646 92.7802 229.973 92.8748 230.12 93.1417C230.208 93.3325 230.238 93.5451 230.206 93.7529C230.143 94.6913 229.9 95.6088 229.491 96.4559L230.714 96.4042C230.771 96.4515 230.818 96.5096 230.852 96.5751C230.886 96.6406 230.907 96.7122 230.913 96.7859C230.92 96.8595 230.912 96.9337 230.889 97.0041C230.867 97.0745 230.831 97.1398 230.783 97.1962C230.762 97.2213 230.739 97.2443 230.714 97.2651C230.455 97.4691 230.164 97.629 229.853 97.7385C229.095 98.1259 228.622 99.245 229.259 99.7959C230.791 99.7529 232.126 98.7715 233.271 97.7471C234.213 96.9955 234.957 96.0265 235.441 94.9236C235.67 94.3668 235.729 93.7546 235.609 93.1645C235.489 92.5744 235.197 92.0332 234.769 91.6094C234.399 91.2995 233.908 91.0843 233.728 90.6453C233.639 90.3437 233.601 90.0296 233.616 89.7156C233.546 89.0895 233.333 88.4879 232.992 87.9578C232.652 87.4277 232.193 86.9834 231.652 86.6597C230.552 86.031 229.37 85.5587 228.139 85.2565C227.025 84.7881 225.88 84.397 224.712 84.0858Z" fill="#505365"/>
<path d="M208.955 185.328C208.863 185.334 208.774 185.364 208.697 185.414C208.387 185.672 208.352 186.567 208.292 186.929C207.489 191.807 206.507 196.659 205.347 201.485C205.304 201.599 205.304 201.725 205.347 201.838C205.432 201.935 205.548 202 205.675 202.019C206.468 202.234 207.282 202.364 208.103 202.406C208.173 202.424 208.247 202.424 208.318 202.406C208.379 202.372 208.429 202.321 208.464 202.26L210.393 199.824C210.695 199.47 210.96 199.086 211.185 198.679C211.409 198.188 211.591 197.678 211.728 197.155C212.425 195.003 213.82 193.067 214.311 190.863C214.625 189.206 214.686 187.511 214.492 185.836C214.495 185.8 214.491 185.763 214.479 185.729C214.467 185.695 214.448 185.664 214.423 185.638C214.361 185.62 214.295 185.62 214.233 185.638C212.928 185.662 211.622 185.605 210.324 185.465C209.874 185.372 209.415 185.326 208.955 185.328Z" fill="#FEFEFF"/>
<path d="M234.391 188.676C235.843 194.346 237.467 199.97 239.264 205.548C239.35 205.92 239.524 206.266 239.772 206.556C240.504 207.305 242.278 206.332 243.036 205.988C243.115 205.96 243.186 205.913 243.242 205.85C243.289 205.787 243.316 205.712 243.32 205.635L243.957 202.269C244.074 201.754 244.14 201.23 244.155 200.702C244.119 200.1 244.036 199.501 243.905 198.912C243.492 196.398 243.905 193.747 243.268 191.276C243.028 190.36 242.687 189.474 242.252 188.633C241.951 188.031 241.391 186.386 240.771 186.051C240.151 185.715 238.937 186.361 238.308 186.533L235.122 187.445C235.009 187.452 234.899 187.481 234.797 187.53C234.695 187.58 234.603 187.649 234.528 187.734C234.453 187.818 234.395 187.917 234.358 188.024C234.322 188.131 234.306 188.245 234.313 188.358C234.321 188.462 234.348 188.564 234.391 188.659V188.676Z" fill="#FEFEFF"/>
<path d="M209.851 200.788C209.722 200.636 209.541 200.537 209.343 200.513C209.081 200.548 208.836 200.659 208.637 200.831C208.2 201.009 207.728 201.079 207.259 201.035C206.79 200.992 206.338 200.836 205.942 200.582C205.751 200.469 205.534 200.409 205.313 200.409C205.149 200.435 204.995 200.504 204.865 200.607C204.108 201.15 203.591 201.959 202.893 202.57C202.032 203.336 200.913 203.801 200.155 204.671C200.044 204.747 199.961 204.858 199.918 204.986C199.874 205.114 199.874 205.252 199.915 205.38C199.957 205.509 200.038 205.621 200.148 205.699C200.258 205.777 200.391 205.818 200.526 205.815C202.592 206.341 204.762 205.884 206.846 205.419C207.556 205.292 208.248 205.075 208.904 204.774C209.217 204.635 209.499 204.436 209.735 204.187C209.97 203.938 210.154 203.645 210.275 203.324C210.396 203.004 210.452 202.663 210.44 202.32C210.427 201.978 210.347 201.642 210.204 201.331C210.107 201.137 209.989 200.955 209.851 200.788Z" fill="#505365"/>
<path d="M244.275 204.386C244.148 204.237 243.97 204.139 243.776 204.111C243.515 204.153 243.271 204.267 243.07 204.438C242.634 204.616 242.161 204.686 241.692 204.642C241.223 204.599 240.771 204.443 240.375 204.188C240.181 204.076 239.962 204.016 239.738 204.016C239.576 204.043 239.425 204.111 239.299 204.214C238.605 204.831 237.947 205.487 237.327 206.177C236.466 206.943 235.346 207.408 234.589 208.277C234.487 208.367 234.411 208.482 234.367 208.61C234.323 208.738 234.314 208.876 234.339 209.009C234.405 209.12 234.495 209.215 234.602 209.286C234.709 209.358 234.831 209.404 234.959 209.422C237.017 209.947 239.195 209.482 241.27 209.018C241.984 208.896 242.679 208.682 243.337 208.381C243.65 208.242 243.933 208.042 244.168 207.794C244.404 207.545 244.587 207.252 244.708 206.931C244.829 206.611 244.885 206.269 244.873 205.927C244.861 205.585 244.781 205.248 244.637 204.937C244.539 204.74 244.418 204.555 244.275 204.386Z" fill="#505365"/>
<path d="M128.878 112.321C128.941 111.612 128.853 110.897 128.618 110.224C128.384 109.552 128.008 108.937 127.517 108.421C125.399 105.942 122.058 104.883 119.475 102.878C117.461 101.139 115.72 99.1074 114.309 96.8518L111.373 92.6338C110.623 91.6613 110.04 90.5702 109.651 89.4057C109.28 88.0972 109.366 86.5822 108.497 85.532C108.277 85.273 108.009 85.0597 107.707 84.9044C107.406 84.749 107.076 84.6547 106.738 84.6267C106.4 84.5987 106.059 84.6377 105.736 84.7413C105.413 84.8449 105.113 85.0112 104.854 85.2307C104.419 85.5964 104.116 86.0957 103.993 86.651C103.658 88.2263 104.803 89.6811 105.716 90.9552C108.178 94.3985 109.659 98.3583 111.097 102.309C111.423 103.357 111.899 104.351 112.509 105.262C113.058 105.93 113.679 106.537 114.36 107.07L122.11 113.56C124.116 115.239 128.335 115.756 128.878 112.321Z" fill="#FDB9A9"/>
<path d="M154.477 100.631C154.209 99.9715 154.085 99.2626 154.113 98.5516C154.142 97.8405 154.321 97.1436 154.64 96.5075C155.932 93.5119 158.816 91.5233 160.668 88.8462C162.092 86.5794 163.163 84.1093 163.845 81.5205L165.395 76.6741C165.834 75.5265 166.076 74.3127 166.109 73.0844C166.109 71.7157 165.55 70.2953 166.109 69.0385C166.299 68.5961 166.609 68.2156 167.004 67.9399C167.399 67.6643 167.863 67.5045 168.344 67.4785C168.825 67.4525 169.303 67.5615 169.725 67.793C170.148 68.0246 170.497 68.3695 170.733 68.7889C171.517 70.192 170.854 71.9223 170.329 73.446C168.977 77.423 168.736 81.6841 168.52 85.8849C168.519 86.9788 168.357 88.0666 168.038 89.113C167.719 89.9165 167.306 90.6793 166.807 91.3856L161.313 99.882C159.893 102.025 156.009 103.756 154.477 100.631Z" fill="#FDB9A9"/>
<path d="M138.806 164.874C134.38 175.807 133.82 187.962 129.868 199.075C129.793 199.428 129.583 199.737 129.282 199.936C129.003 200.03 128.701 200.03 128.421 199.936L123.909 199.075C127.758 187.265 126.088 174.214 129.825 162.369C129.845 162.197 129.899 162.03 129.984 161.878C130.07 161.727 130.184 161.593 130.321 161.486C130.458 161.379 130.614 161.3 130.782 161.253C130.95 161.207 131.125 161.194 131.297 161.216C131.351 161.207 131.407 161.207 131.461 161.216C133.604 161.165 135.747 161.327 137.858 161.698C139.787 162.12 139.469 163.213 138.806 164.874Z" fill="#FDB9A9"/>
<path d="M160.452 198.378C159.847 198.641 159.172 198.7 158.53 198.544C157.888 198.389 157.314 198.028 156.896 197.517C156.086 196.476 155.518 195.267 155.234 193.979L153.09 186.774C152.436 184.57 151.782 182.358 151.274 180.111C149.956 174.292 149.646 168.301 149.336 162.352C149.201 161.533 149.366 160.692 149.801 159.985C150.809 158.737 155.691 157.265 157.241 158.039C159.333 159.09 158.265 164.186 158.257 166.148C158.257 173.113 158.386 180.094 158.989 187.041C159.04 188.151 160.805 198.154 160.452 198.378Z" fill="#FDB9A9"/>
<path d="M159.927 156.111C159.772 157.833 159.557 159.477 159.299 161.113C159.258 161.736 159.036 162.334 158.661 162.834C158.314 163.174 157.893 163.427 157.43 163.575C154.142 164.89 150.703 165.789 147.192 166.252C146.259 163.555 145.55 160.785 145.074 157.971C143.274 160.026 142.126 162.57 141.776 165.279C141.775 165.767 141.608 166.241 141.303 166.622C141.052 166.788 140.768 166.897 140.47 166.94C140.172 166.984 139.868 166.96 139.581 166.872L132.864 165.83C131.47 165.606 129.885 165.262 129.205 164.022C128.792 162.981 128.765 161.828 129.127 160.768L131.986 147.856C132.018 147.209 132.262 146.59 132.681 146.095C133.1 145.601 133.669 145.257 134.302 145.118C140.037 142.811 145.737 140.332 151.523 138.232C156.13 136.51 157.826 137.931 159.058 142.588C160.119 147.013 160.413 151.587 159.927 156.111Z" fill="#505365"/>
<path d="M162.588 101.535C162.559 101.654 162.507 101.766 162.434 101.865C162.362 101.964 162.271 102.048 162.166 102.111C160.306 103.618 157 105.916 156.845 108.542C156.793 109.489 156.784 110.461 156.793 111.443C156.87 118.82 157.206 126.593 158.799 133.824C159.108 134.928 159.256 136.07 159.238 137.216C159.049 139.893 156.819 142.105 154.27 142.94C153.889 143.063 153.501 143.164 153.108 143.242C150.844 143.585 148.532 143.406 146.348 142.717C145.268 142.319 144.124 142.123 142.973 142.14C141.552 142.269 140.33 143.13 139.09 143.862C137.38 144.822 135.537 145.524 133.622 145.945C132.985 146.083 132.124 146.074 131.9 145.463C131.824 145.13 131.863 144.781 132.012 144.473C133.243 140.84 133.002 136.527 132.787 132.74C132.666 130.527 133.088 128.014 132.012 125.991C131.418 125.153 130.908 124.259 130.488 123.322C130.224 122.12 129.736 120.978 129.05 119.956C127.586 118.183 125.02 117.908 123.023 116.832C122.514 116.601 122.094 116.211 121.826 115.721C121.686 115.309 121.639 114.871 121.688 114.438C121.757 112.424 121.869 110.298 122.937 108.585C123.686 107.526 124.605 106.598 125.657 105.839C125.886 105.623 126.164 105.467 126.467 105.383C126.794 105.347 127.125 105.392 127.431 105.512C129.17 106.011 130.993 106.149 132.787 105.916C134.586 105.675 134.621 105.055 135.835 104.083C137.178 102.998 138.823 103.42 140.433 103.136C142.029 102.842 143.558 102.258 144.945 101.414C145.683 100.844 146.544 100.455 147.459 100.278C148.811 100.166 149.681 98.7112 150.619 97.7643C151.833 96.5247 153.073 95.3023 154.322 94.0885C154.397 93.9459 154.509 93.8257 154.646 93.7399C154.783 93.6541 154.94 93.6058 155.101 93.5997C155.262 93.5936 155.422 93.6299 155.565 93.7052C155.708 93.7804 155.828 93.8918 155.915 94.0283C157.387 95.5003 158.816 97.0067 160.22 98.5476C160.917 99.3138 161.615 100.089 162.304 100.872C162.477 101.05 162.578 101.286 162.588 101.535Z" fill="#228B78"/>
<path d="M143.671 106.786C142.741 107.069 141.755 107.113 140.803 106.915C140.165 106.671 139.58 106.306 139.081 105.839C138.487 105.434 138.031 104.857 137.772 104.186C137.663 103.467 137.71 102.733 137.91 102.034C138.16 100.533 137.953 98.9916 137.316 97.6094C137.316 97.6094 139.443 97.7299 139.632 97.7643C140.449 97.9426 141.237 98.2323 141.974 98.6252C143.001 99.1008 143.905 99.8045 144.618 100.683C145.092 101.581 145.384 102.564 145.479 103.575C145.815 105.288 145.505 106.381 143.671 106.786Z" fill="#FDB9A9"/>
<path d="M142.37 102.593C142.826 103.194 143.44 103.656 144.144 103.928C144.261 103.971 144.389 103.971 144.506 103.928C144.566 103.896 144.617 103.848 144.652 103.79C145.075 103.204 145.298 102.498 145.289 101.776C145.28 101.059 145.152 100.35 144.91 99.6753C144.368 99.8389 143.826 99.9852 143.274 100.106C142.723 100.124 142.177 100.226 141.656 100.407C140.932 100.923 141.974 102.103 142.37 102.593Z" fill="url(#paint4_linear_15_111)"/>
<path d="M147.898 95.991C148.12 96.773 148.15 97.5969 147.984 98.3927C147.468 100.364 145.152 101.302 143.119 101.294C141.347 101.268 139.613 100.768 138.099 99.8465C136.585 98.9246 135.345 97.6141 134.509 96.0513C134.106 95.358 133.889 94.572 133.88 93.7701C133.956 92.9062 134.253 92.0762 134.741 91.3598C136.214 88.9925 139.675 85.4717 142.715 87.3397C145.367 88.9581 147.244 93.1417 147.898 95.991Z" fill="#FDB9A9"/>
<path d="M141.802 84.6969C141.923 84.8605 142.043 85.0326 142.147 85.2048C142.44 85.6345 142.618 86.1326 142.663 86.651C142.723 88.2349 140.769 89.2851 139.632 89.9738C139.462 90.0575 139.314 90.1816 139.202 90.3353C139.082 90.5822 139.02 90.853 139.021 91.1273C138.969 91.4462 138.844 91.7489 138.656 92.0117C138.468 92.2744 138.221 92.4903 137.936 92.6423C137.66 92.7801 137.333 92.8748 137.187 93.1416C137.099 93.3324 137.069 93.545 137.101 93.7528C137.164 94.6912 137.407 95.6087 137.815 96.4558L136.593 96.4042C136.317 96.5763 136.377 97.0153 136.593 97.265C136.852 97.469 137.143 97.6289 137.454 97.7384C138.203 98.1258 138.676 99.2449 138.048 99.7958C136.601 99.7528 135.706 98.935 134.604 98.1947C134.143 97.9552 133.658 97.7648 133.157 97.6265C133.08 97.6265 131.435 97.1186 131.521 97.4544C131.366 96.9779 131.167 96.5168 130.927 96.077L129.205 96.4644C129.541 95.2783 130.03 94.1411 130.66 93.0814L130.178 92.7973L132.391 90.8002C132.483 90.7303 132.547 90.6294 132.572 90.5161C132.557 90.4094 132.508 90.31 132.434 90.232C132.156 89.8814 131.93 89.493 131.762 89.0785C131.737 89.0032 131.737 88.9215 131.762 88.8461C131.806 88.7894 131.866 88.7473 131.934 88.7256L132.864 88.3899C132.34 87.618 131.882 86.803 131.495 85.9537C133.009 86.167 134.552 86.0075 135.99 85.4889L135.284 84.8346C136.088 84.5006 136.929 84.2636 137.79 84.1288L136.791 82.8289C137.814 82.5041 138.924 82.5938 139.882 83.0785C140.639 83.4609 141.297 84.0152 141.802 84.6969Z" fill="#505365"/>
<path d="M158.351 185.328C158.443 185.334 158.532 185.364 158.61 185.414C158.928 185.672 158.954 186.567 159.014 186.929C159.824 191.807 160.805 196.659 161.959 201.485C161.985 201.541 161.998 201.601 161.998 201.662C161.998 201.723 161.985 201.783 161.959 201.838C161.877 201.934 161.765 201.998 161.641 202.019C160.847 202.234 160.033 202.364 159.212 202.406C159.142 202.424 159.068 202.424 158.997 202.406C158.934 202.372 158.88 202.321 158.842 202.26L156.948 199.824C156.646 199.47 156.381 199.086 156.156 198.679C155.94 198.184 155.759 197.675 155.613 197.155C154.916 195.003 153.53 193.067 153.03 190.863C152.72 189.205 152.66 187.511 152.849 185.836C152.848 185.799 152.855 185.763 152.868 185.729C152.881 185.695 152.901 185.664 152.927 185.638C152.986 185.62 153.049 185.62 153.108 185.638C154.413 185.662 155.719 185.605 157.017 185.465C157.456 185.372 157.903 185.326 158.351 185.328Z" fill="#FEFEFF"/>
<path d="M132.899 188.676C131.447 194.346 129.825 199.97 128.034 205.549C127.941 205.919 127.764 206.264 127.517 206.556C126.785 207.305 125.02 206.332 124.254 205.988C124.174 205.961 124.103 205.913 124.047 205.85C124.005 205.785 123.979 205.711 123.97 205.635L123.333 202.269C123.215 201.754 123.149 201.23 123.135 200.702C123.175 200.1 123.258 199.502 123.384 198.912C123.798 196.398 123.384 193.747 124.021 191.276C124.264 190.364 124.604 189.481 125.037 188.642C125.339 188.039 125.898 186.395 126.518 186.059C127.138 185.724 128.352 186.369 128.981 186.541L132.167 187.454C132.321 187.477 132.468 187.532 132.599 187.617C132.73 187.701 132.841 187.813 132.925 187.945C133.003 188.184 132.993 188.443 132.899 188.676Z" fill="#FEFEFF"/>
<path d="M157.465 200.788C157.524 200.71 157.6 200.646 157.686 200.598C157.771 200.551 157.866 200.522 157.964 200.513C158.225 200.548 158.47 200.659 158.67 200.831C159.106 201.009 159.579 201.079 160.048 201.035C160.517 200.992 160.969 200.836 161.365 200.582C161.559 200.469 161.778 200.409 162.002 200.409C162.164 200.436 162.315 200.504 162.441 200.607C163.199 201.15 163.716 201.959 164.413 202.57C165.274 203.336 166.394 203.801 167.151 204.671C167.253 204.762 167.33 204.878 167.374 205.008C167.418 205.138 167.427 205.276 167.401 205.411C167.334 205.52 167.244 205.613 167.137 205.683C167.03 205.753 166.908 205.798 166.781 205.815C164.715 206.341 162.545 205.884 160.47 205.419C159.757 205.291 159.062 205.074 158.403 204.774C158.091 204.634 157.809 204.434 157.574 204.185C157.34 203.936 157.157 203.643 157.037 203.322C156.917 203.002 156.862 202.661 156.874 202.319C156.887 201.977 156.968 201.641 157.112 201.331C157.207 201.136 157.326 200.954 157.465 200.788Z" fill="#505365"/>
<path d="M123.031 204.386C123.16 204.234 123.341 204.136 123.539 204.111C123.8 204.155 124.043 204.268 124.245 204.438C124.682 204.616 125.154 204.686 125.623 204.642C126.092 204.599 126.544 204.443 126.94 204.188C127.131 204.076 127.348 204.016 127.569 204.016C127.73 204.043 127.882 204.111 128.008 204.214C128.703 204.829 129.362 205.484 129.98 206.177C130.841 206.943 131.96 207.408 132.718 208.277C132.819 208.367 132.896 208.482 132.939 208.61C132.983 208.738 132.993 208.876 132.968 209.009C132.882 209.25 132.606 209.353 132.356 209.422C130.29 209.947 128.111 209.482 126.036 209.018C125.323 208.896 124.628 208.682 123.97 208.381C123.656 208.242 123.374 208.042 123.138 207.794C122.903 207.545 122.719 207.252 122.598 206.931C122.477 206.611 122.421 206.269 122.434 205.927C122.446 205.585 122.526 205.248 122.67 204.937C122.767 204.74 122.889 204.555 123.031 204.386Z" fill="#505365"/>
<path d="M199.432 64.1748C199.187 63.8783 198.879 63.6403 198.531 63.4779C198.182 63.3156 197.802 63.2331 197.417 63.2365L193.835 63.7186V58.8463C193.258 57.1246 187.722 57.1246 183.322 57.1246C182.271 57.1246 181.143 57.1246 180.033 57.1935C177.89 57.1858 175.757 57.4932 173.704 58.106C173.196 58.3126 172.843 58.5622 172.843 58.8635V63.7186L171.835 63.5808L169.476 63.2623H169.356C168.973 63.2558 168.594 63.3343 168.246 63.4921C167.897 63.6499 167.588 63.8831 167.341 64.1748C167.091 64.465 166.909 64.8071 166.808 65.1763C166.706 65.5456 166.689 65.9327 166.755 66.3097C167.169 68.7286 168.185 71.9223 170.656 73.4373C171.568 74.0031 172.622 74.3014 173.695 74.2981C174.065 74.2869 174.433 74.2495 174.797 74.1862C175.4 74.1002 176.003 73.9796 176.597 73.8333C177.907 75.7258 179.838 77.0996 182.056 77.7156V80.0915C182.056 81.0126 179.705 81.7099 179.051 82.2005C178.839 82.319 178.654 82.4793 178.506 82.6716C178.358 82.864 178.25 83.0845 178.19 83.3196C178.185 83.5766 178.247 83.8304 178.371 84.0555C178.495 84.2807 178.676 84.4693 178.896 84.6022C179.367 84.919 179.902 85.1277 180.463 85.2134C180.773 85.2737 181.083 85.3167 181.393 85.3512C183.5 85.652 185.648 85.4635 187.67 84.8002C187.945 84.7295 188.2 84.5975 188.416 84.4141C188.632 84.2307 188.804 84.0007 188.919 83.7414C188.974 83.4994 188.961 83.2468 188.882 83.0114C188.803 82.776 188.661 82.567 188.471 82.4071C188.095 82.089 187.667 81.8385 187.205 81.6668C186.577 81.4 184.932 81.0126 184.932 80.0915V77.5865C187.023 76.892 188.834 75.5428 190.098 73.7386C191.064 74.0148 192.057 74.1851 193.06 74.2465C194.134 74.2497 195.187 73.9515 196.1 73.3857C198.571 71.8706 199.544 68.6769 200 66.258C200.062 65.8903 200.043 65.5138 199.944 65.1542C199.846 64.7946 199.672 64.4605 199.432 64.1748ZM173.962 72.4215C173.126 72.4889 172.287 72.3283 171.534 71.9567C169.511 70.7257 168.727 67.7042 168.434 66.0084C168.409 65.8794 168.414 65.7464 168.448 65.6196C168.483 65.4927 168.546 65.3754 168.632 65.2767C168.712 65.1763 168.812 65.0949 168.927 65.0383C169.042 64.9818 169.168 64.9514 169.295 64.9496L171.879 65.3025L172.963 65.4488C173.359 67.8594 174.222 70.1694 175.504 72.2494C174.995 72.3453 174.48 72.4028 173.962 72.4215ZM195.222 71.9567C193.932 72.4994 192.498 72.5933 191.149 72.2235C192.424 70.1567 193.283 67.8615 193.68 65.466L197.469 64.9496C197.594 64.957 197.717 64.9898 197.83 65.0461C197.942 65.1023 198.042 65.1807 198.123 65.2767C198.21 65.3754 198.273 65.4927 198.307 65.6196C198.342 65.7464 198.346 65.8794 198.321 66.0084C198.029 67.73 197.245 70.6999 195.222 71.9653V71.9567Z" fill="#C29F26"/>
<path opacity="0.42" d="M183.623 81.1847C183.621 81.5399 183.548 81.8911 183.408 82.2177C183.211 82.5465 182.957 82.8379 182.659 83.0785L180.48 85.1445C179.919 85.0588 179.384 84.8501 178.913 84.5333C178.693 84.4004 178.512 84.2118 178.388 83.9866C178.264 83.7615 178.202 83.5077 178.207 83.2507C178.267 83.0156 178.375 82.7951 178.523 82.6027C178.671 82.4104 178.856 82.2501 179.068 82.1316C179.723 81.641 182.073 80.9437 182.073 80.0226V77.6467C179.856 77.0307 177.924 75.6569 176.614 73.7644C176.02 73.9107 175.417 74.0312 174.815 74.1173C174.513 73.5578 174.246 72.981 173.954 72.3957C174.477 72.3771 174.998 72.3196 175.512 72.2235C174.231 70.1435 173.368 67.8335 172.972 65.423L171.887 65.2766C171.827 64.7048 171.801 64.1299 171.81 63.555L172.817 63.6927V59.3886C173.051 58.9091 173.34 58.4585 173.678 58.0457C175.732 57.433 177.864 57.1255 180.007 57.1332C180.386 58.2609 179.886 59.9051 179.749 60.9036C179.37 63.4062 179.481 65.9584 180.076 68.4186C181.212 72.7572 183.916 76.7256 183.623 81.1847Z" fill="white"/>
<path d="M193.525 58.8377C193.525 59.1304 192.914 59.3887 191.855 59.6125C186.207 60.4648 180.463 60.4648 174.815 59.6125C173.756 59.3887 173.144 59.1304 173.144 58.8377C173.144 58.5451 173.756 58.2868 174.815 58.063C180.464 57.228 186.205 57.228 191.855 58.063C192.914 58.2868 193.525 58.5537 193.525 58.8377Z" fill="url(#paint5_linear_15_111)"/>
<path d="M181.936 64.9581L185.242 62.9008V71.268H186.275V72.4301H181.548V71.268H183.546V64.7257L181.936 64.9581Z" fill="white"/>
<path d="M179.077 70.278H178.5L179.783 66.1375H180.368L179.077 70.278Z" fill="white"/>
<path d="M180.601 70.278H180.024L181.307 66.1375H181.892L180.601 70.278Z" fill="white"/>
<path d="M182.237 67.205H178.233V67.5493H182.237V67.205Z" fill="white"/>
<path d="M182.237 68.3499H178.233V68.6942H182.237V68.3499Z" fill="white"/>
<path d="M239.428 125.199L238.997 125.259C237.628 125.414 236.767 123.942 235.699 125.19C234.244 126.912 234.632 130.631 234.511 132.723C234.279 136.932 234.304 141.176 233.443 145.316C233.407 145.637 233.272 145.938 233.056 146.177C232.866 146.308 232.65 146.396 232.422 146.436C232.195 146.476 231.962 146.467 231.739 146.41C230.533 146.263 229.328 146.074 228.131 145.842C228.556 144.09 229.204 142.401 230.059 140.814C230.731 139.764 231.274 138.637 231.678 137.457C231.825 136.829 231.92 136.19 231.962 135.546C232.325 132.478 232.478 129.389 232.419 126.301C232.275 124.6 232.227 122.893 232.272 121.187C232.272 120.929 232.358 120.619 232.608 120.533C232.782 120.506 232.959 120.543 233.108 120.637C234.288 121.217 235.437 121.858 236.552 122.556C237.413 123.073 238.885 123.727 239.29 124.691C239.365 124.851 239.411 125.023 239.428 125.199Z" fill="url(#paint6_linear_15_111)"/>
<path d="M162.588 101.535C162.559 101.654 162.507 101.766 162.434 101.865C162.362 101.964 162.271 102.048 162.166 102.111C160.306 103.618 157 105.916 156.845 108.542C156.793 109.489 156.784 110.461 156.793 111.443C156.87 118.82 157.206 126.593 158.799 133.824C159.108 134.928 159.256 136.07 159.238 137.216C159.049 139.893 156.819 142.105 154.27 142.94C153.889 143.063 153.501 143.164 153.108 143.242C154.627 138.881 154.869 134.177 153.805 129.684C152.996 126.318 151.446 123.021 151.721 119.578C151.937 116.883 153.263 114.232 152.703 111.589C152.47 110.939 152.384 110.245 152.453 109.558C152.705 108.867 153.158 108.267 153.753 107.836C155.228 106.501 156.496 104.955 157.516 103.248C158.257 102.008 158.704 99.7097 159.815 98.78C159.932 98.6786 160.059 98.5892 160.194 98.5132C160.892 99.2793 161.589 100.054 162.278 100.837C162.469 101.02 162.58 101.271 162.588 101.535Z" fill="url(#paint7_linear_15_111)"/>
<path d="M91.6374 135.71C90.983 137.784 91.4479 140.47 93.5747 141.271C94.7113 141.71 95.8737 140.78 96.7434 139.928C98.6006 138.268 100.197 136.338 101.479 134.203C102.34 132.585 102.822 130.76 103.597 129.124C104.149 127.732 104.881 126.418 105.776 125.216C106.637 124.235 107.705 123.193 107.98 121.867C108.016 121.299 108.126 120.737 108.307 120.197C108.686 119.466 109.633 119.07 109.797 118.261C109.825 117.903 109.72 117.547 109.502 117.261C109.285 116.976 108.97 116.78 108.617 116.711C107.899 116.606 107.167 116.775 106.568 117.185C105.388 117.881 104.409 118.872 103.726 120.06C103.124 121.334 103.072 122.806 102.426 124.071C101.61 125.368 100.596 126.53 99.4213 127.515C98.2847 128.659 97.2859 129.89 96.0718 130.958C94.8577 132.025 93.3336 132.929 92.352 134.238C92.0341 134.685 91.7926 135.183 91.6374 135.71Z" fill="#FDB9A9"/>
<path d="M99.318 100.261C99.2488 100.301 99.1899 100.357 99.1457 100.424C99.1201 100.503 99.1201 100.587 99.1457 100.665C99.1198 102.305 99.4827 103.927 100.205 105.4C99.9024 105.107 99.577 104.84 99.2319 104.599C99.1059 104.497 98.9463 104.444 98.7841 104.453C98.5 104.513 98.4397 104.892 98.4655 105.176C98.4625 105.496 98.5487 105.81 98.7145 106.084C98.8803 106.358 99.119 106.58 99.4041 106.725C99.3052 106.942 99.2591 107.179 99.2696 107.417C99.28 107.655 99.3468 107.887 99.4643 108.094C99.7057 108.504 99.8083 108.981 99.7571 109.454C99.6623 109.45 99.5695 109.425 99.4849 109.382C99.4003 109.339 99.3258 109.279 99.2663 109.205C98.0255 107.748 97.0044 106.119 96.2354 104.367C95.8479 103.616 95.528 102.833 95.2796 102.025C95.0545 101.07 94.9646 100.088 95.0127 99.1072C95.0126 98.7077 95.0559 98.3094 95.1419 97.9192C95.315 97.376 95.5643 96.8601 95.8824 96.3869C96.1528 95.8848 96.5082 95.4334 96.9329 95.0527C97.5978 94.5982 98.3833 94.3524 99.1888 94.3468C100.118 94.2707 101.052 94.2852 101.979 94.3898C103.072 94.5103 105.294 95.0182 105.423 96.4128C105.492 96.9723 104.433 97.4286 104.011 97.6954C103.295 98.1386 102.556 98.5437 101.798 98.9092C100.944 99.3087 100.116 99.7601 99.318 100.261Z" fill="#505365"/>
<g opacity="0.51">
<path d="M228.01 59.9826C228.882 60.4226 229.828 60.697 230.8 60.7917C230.86 59.1387 230.834 57.4837 230.723 55.8334C230.702 55.4176 230.639 55.0051 230.533 54.6024C230.12 53.2251 228.699 51.6411 227.855 53.4489C227.132 55.007 228.002 58.2695 228.01 59.9826Z" fill="#68E1FD"/>
<path d="M212.597 42.9898C210.988 43.8183 209.312 44.5094 207.586 45.0557C207.503 45.3808 207.546 45.7252 207.705 46.0203C207.865 46.3155 208.13 46.5397 208.447 46.6483C209.099 46.8367 209.798 46.7784 210.41 46.4847C210.987 46.252 211.527 45.9359 212.012 45.5464C212.192 45.4346 212.329 45.2645 212.399 45.0644C212.433 44.8334 212.391 44.5977 212.279 44.3929L211.418 42.2753" fill="#68E1FD"/>
<path d="M214.698 53.1906L211.702 55.0844C211.538 55.1877 211.349 55.3512 211.409 55.532C211.469 55.7128 211.556 55.7042 211.65 55.7558L212.968 56.4617L214.879 54.74C215.136 54.5456 215.333 54.2832 215.448 53.9825C215.472 53.8717 215.473 53.7573 215.453 53.6457C215.433 53.5342 215.391 53.4278 215.329 53.3326C215.267 53.2374 215.188 53.1553 215.094 53.0911C215.001 53.0268 214.895 52.9816 214.785 52.9581" fill="#68E1FD"/>
<path d="M163.036 48.4474C163.564 49.7438 164.538 50.8091 165.782 51.4517C165.514 51.9535 165.127 52.3821 164.654 52.6999C164.528 52.8025 164.369 52.8547 164.207 52.8462C164.086 52.8204 163.976 52.7606 163.888 52.674C163.206 52.1074 162.573 51.4855 161.994 50.8147C161.906 50.7289 161.849 50.6172 161.83 50.4962C161.83 50.324 161.985 50.2035 162.123 50.1002C162.643 49.7044 163.05 49.179 163.302 48.5765" fill="#68E1FD"/>
<path d="M150.318 59.6898C151.184 59.2782 152.079 58.9301 152.996 58.6482C153.39 59.4881 153.735 60.3504 154.029 61.2307C154.072 61.355 154.09 61.4868 154.081 61.618C154.029 61.9107 153.685 62.0399 153.4 62.1173L150.163 62.9782C149.935 63.0641 149.684 63.0641 149.457 62.9782C149.318 62.8904 149.208 62.765 149.138 62.6166C148.901 62.0878 148.876 61.4885 149.066 60.9413C149.257 60.3941 149.649 59.9402 150.163 59.6726" fill="#68E1FD"/>
<path d="M136.102 51.8477L139.219 52.1748C139.649 52.6999 139.124 53.5435 138.47 53.7157C137.795 53.8021 137.109 53.7493 136.455 53.5607C136.096 53.5339 135.741 53.4675 135.396 53.3627C135.225 53.3059 135.074 53.2037 134.957 53.0672C134.84 52.9308 134.763 52.7651 134.733 52.588C134.733 52.2264 135.069 51.8563 135.405 51.9854" fill="#68E1FD"/>
<path d="M179.395 29.0358C178.44 29.2768 177.484 29.5264 176.528 29.7933L177.303 30.9812C177.946 30.6533 178.669 30.5187 179.387 30.5939L179.456 29.1477" fill="#68E1FD"/>
<path d="M187.705 37.3772C187.309 38.0471 186.786 38.6322 186.163 39.0989C186.733 39.8855 187.499 40.5089 188.385 40.9066L189.056 39.8908C189.127 39.8061 189.167 39.6998 189.168 39.5895C189.168 39.4088 188.979 39.2968 188.824 39.2022C188.249 38.8457 187.823 38.2917 187.627 37.6441" fill="#68E1FD"/>
<path d="M216.36 18.8694L218.384 22.614C218.537 22.9498 218.767 23.2448 219.055 23.4748C219.204 23.5846 219.383 23.6438 219.568 23.6438C219.752 23.6438 219.932 23.5846 220.08 23.4748C220.209 23.2988 220.287 23.0901 220.304 22.8723C220.437 22.2563 220.435 21.6188 220.298 21.0036C220.162 20.3884 219.893 19.8101 219.512 19.3084C218.651 18.3873 216.929 18.3013 216.283 19.4031" fill="#68E1FD"/>
<path d="M231.007 36.7919C230.868 36.9882 230.793 37.2228 230.793 37.4633C230.793 37.7039 230.868 37.9385 231.007 38.1348C231.163 38.2955 231.361 38.4089 231.579 38.4619C231.796 38.5149 232.024 38.5053 232.237 38.4342C232.449 38.3631 232.637 38.2334 232.779 38.0601C232.921 37.8868 233.011 37.677 233.039 37.4547C232.988 37.1513 232.819 36.8803 232.569 36.7012C232.319 36.5221 232.008 36.4494 231.704 36.4992C231.422 36.5417 231.167 36.6893 230.989 36.9124" fill="#68E1FD"/>
<path d="M245.3 49.9711C243.144 49.8248 240.981 49.8248 238.825 49.9711C239.322 50.7767 240.082 51.3852 240.978 51.6928L243.931 49.799" fill="#68E1FD"/>
<path d="M244.835 60.5593C242.444 60.9313 240.136 61.7178 238.016 62.8835C238.712 63.2467 239.332 63.7407 239.841 64.3383C240.899 63.7982 242.04 63.4403 243.216 63.2795C243.558 63.2787 243.89 63.1601 244.155 62.9438C244.278 62.7617 244.351 62.5504 244.366 62.3312C244.381 62.1121 244.338 61.8928 244.241 61.6956C243.937 60.8375 243.382 60.0907 242.648 59.5521" fill="#68E1FD"/>
<path d="M215.206 77.0527L217.221 77.8447C216.971 78.2493 216.605 78.5692 216.17 78.7627C215.736 78.9562 215.253 79.0142 214.785 78.9293C214.67 78.3577 214.485 77.8026 214.233 77.2766L216.438 77.4918" fill="#68E1FD"/>
<path d="M172.068 87.9163C171.766 88.5184 171.415 89.0943 171.017 89.638C170.818 89.9097 170.703 90.234 170.686 90.5707C170.669 90.9073 170.751 91.2415 170.923 91.5318C171.142 91.76 171.435 91.9039 171.749 91.9385C172.064 91.9731 172.381 91.8962 172.645 91.7212C172.903 91.5296 173.118 91.2856 173.275 91.0052C173.432 90.7249 173.529 90.4144 173.558 90.0942C173.721 88.8632 172.774 87.3482 171.569 87.6409" fill="#68E1FD"/>
<path d="M192.501 95.3711C193.535 96.6217 194.93 97.5234 196.496 97.9536C195.497 98.7775 194.279 99.2921 192.991 99.4342C192.307 98.4075 191.471 97.4903 190.512 96.714C190.305 96.534 190.061 96.4018 189.797 96.3266C188.833 96.1373 188.213 97.4543 187.214 97.6179C186.924 96.7523 186.73 95.8573 186.637 94.9493C186.585 94.4328 186.792 93.7011 187.3 93.7958C187.653 93.8561 187.816 94.3295 188.161 94.4328C188.505 94.5361 188.858 94.209 189.194 94.0196C189.447 93.9085 189.725 93.8661 189.999 93.8968C190.274 93.9275 190.535 94.0302 190.757 94.1945C190.979 94.3588 191.154 94.5788 191.264 94.8323C191.373 95.0858 191.414 95.3638 191.381 95.638L190.959 95.4658" fill="#68E1FD"/>
<path d="M145.401 77.7328L143.679 77.9824C143.697 78.8276 143.938 79.6531 144.377 80.3755C144.643 80.0319 144.992 79.761 145.39 79.5879C145.789 79.4149 146.225 79.3453 146.658 79.3856C147.296 79.5319 147.915 79.7127 148.535 79.9193C148.844 80.0113 149.173 80.0088 149.48 79.9122C149.787 79.8155 150.058 79.6291 150.258 79.377C150.395 79.0219 150.387 78.6267 150.233 78.2781C150.08 77.9295 149.794 77.656 149.44 77.5176H149.396C148.643 77.2946 147.849 77.2417 147.072 77.3626C146.289 77.4763 145.493 77.2751 144.859 76.8031" fill="#68E1FD"/>
<path d="M120.913 80.6424C122.065 79.2913 123.111 77.8522 124.039 76.3383L125.545 77.8619C125.622 77.9235 125.676 78.0081 125.7 78.1029C125.7 78.3354 125.451 78.4645 125.227 78.542C124.399 78.8291 123.678 79.3621 123.161 80.0697C122.644 80.7773 122.355 81.6258 122.334 82.5018C121.173 82.0046 120.248 81.0799 119.751 79.9193" fill="#68E1FD"/>
<path d="M140.226 62.9524C140.262 63.5231 140.424 64.0787 140.7 64.5794C140.841 64.8252 141.056 65.021 141.313 65.1397C141.571 65.2584 141.859 65.2943 142.138 65.2422C142.853 65.0442 143.102 64.1748 143.18 63.4431C142.08 63.6749 140.962 63.8131 139.839 63.8563" fill="#68E1FD"/>
<path d="M127.948 66.5851L126.734 67.4459L128.645 68.7544C128.861 68.9249 129.121 69.0322 129.394 69.0643C130.135 69.0643 130.376 67.9108 129.859 67.3426C129.264 66.8759 128.511 66.6569 127.758 66.7314" fill="#68E1FD"/>
<path d="M183.218 91.5577C183.043 91.5156 182.86 91.5163 182.684 91.5598C182.509 91.6032 182.347 91.6881 182.211 91.8073C182.469 92.0554 182.777 92.247 183.113 92.37C183.45 92.4931 183.808 92.5447 184.166 92.5218C184.245 92.3135 184.251 92.0846 184.184 91.8721C184.117 91.6597 183.98 91.4761 183.795 91.3511C183.419 91.1107 182.991 90.9631 182.547 90.9207L183.709 91.308" fill="#68E1FD"/>
<path d="M199.854 86.8146C199.322 86.3682 198.654 86.1162 197.96 86.1001C197.271 86.169 196.659 86.9609 197.047 87.5549C197.198 87.7352 197.408 87.8565 197.639 87.8974C197.871 87.9383 198.109 87.8963 198.313 87.7787C198.716 87.5299 199.036 87.1675 199.234 86.7371" fill="#68E1FD"/>
<path d="M219.426 81.5894C219.388 81.9453 219.491 82.3018 219.71 82.5842C219.93 82.8666 220.251 83.053 220.605 83.1044C220.761 82.8826 220.845 82.618 220.845 82.3469C220.845 82.0757 220.761 81.8112 220.605 81.5894" fill="#68E1FD"/>
<path d="M246.299 85.6437L243.974 84.473C243.544 85.859 246.213 86.4788 246.213 87.9163C246.37 87.7531 246.493 87.5605 246.575 87.3497C246.657 87.1388 246.697 86.9138 246.692 86.6876C246.687 86.4613 246.638 86.2382 246.547 86.031C246.456 85.8238 246.325 85.6367 246.161 85.4802L245.989 85.3339" fill="#68E1FD"/>
<path d="M118.984 112.235C118.665 112.276 118.368 112.42 118.138 112.645C117.908 112.871 117.758 113.165 117.71 113.483C118.245 113.662 118.813 113.718 119.372 113.646C119.523 113.638 119.671 113.599 119.807 113.532C119.943 113.465 120.065 113.371 120.164 113.257C120.263 113.142 120.339 113.009 120.386 112.865C120.433 112.721 120.45 112.568 120.438 112.417C120.425 112.266 120.382 112.119 120.312 111.985C120.242 111.851 120.145 111.732 120.028 111.635C119.911 111.539 119.776 111.467 119.631 111.424C119.486 111.38 119.333 111.366 119.182 111.383H119.122C118.465 111.443 117.836 111.674 117.297 112.054" fill="#68E1FD"/>
<path d="M90.5955 109.988C89.7593 108.974 88.7649 108.102 87.6507 107.406C87.477 107.546 87.3406 107.727 87.2535 107.933C87.1664 108.138 87.1313 108.362 87.1513 108.585C87.7492 108.625 88.3274 108.815 88.8328 109.137C89.3383 109.459 89.7549 109.903 90.0445 110.427C90.2987 110.338 90.5257 110.185 90.7037 109.983C90.8817 109.781 91.0046 109.537 91.0605 109.274" fill="#68E1FD"/>
</g>
</g>
<defs>
<linearGradient id="paint0_linear_15_111" x1="166.927" y1="142.605" x2="166.927" y2="222.731" gradientUnits="userSpaceOnUse">
<stop offset="0.01"/>
<stop offset="0.08" stop-opacity="0.69"/>
<stop offset="0.21" stop-opacity="0.32"/>
<stop offset="1" stop-opacity="0"/>
</linearGradient>
<linearGradient id="paint1_linear_15_111" x1="112.423" y1="97.067" x2="109.273" y2="146.263" gradientUnits="userSpaceOnUse">
<stop offset="0.01"/>
<stop offset="0.08" stop-opacity="0.69"/>
<stop offset="0.21" stop-opacity="0.32"/>
<stop offset="1" stop-opacity="0"/>
</linearGradient>
<linearGradient id="paint2_linear_15_111" x1="100.988" y1="96.4042" x2="106.075" y2="117.727" gradientUnits="userSpaceOnUse">
<stop offset="0.01"/>
<stop offset="0.08" stop-opacity="0.69"/>
<stop offset="0.21" stop-opacity="0.32"/>
<stop offset="1" stop-opacity="0"/>
</linearGradient>
<linearGradient id="paint3_linear_15_111" x1="223.817" y1="91.1876" x2="224.307" y2="110.091" gradientUnits="userSpaceOnUse">
<stop offset="0.01"/>
<stop offset="0.08" stop-opacity="0.69"/>
<stop offset="0.21" stop-opacity="0.32"/>
<stop offset="1" stop-opacity="0"/>
</linearGradient>
<linearGradient id="paint4_linear_15_111" x1="142.904" y1="97.2736" x2="143.834" y2="105.477" gradientUnits="userSpaceOnUse">
<stop offset="0.01"/>
<stop offset="0.08" stop-opacity="0.69"/>
<stop offset="0.21" stop-opacity="0.32"/>
<stop offset="1" stop-opacity="0"/>
</linearGradient>
<linearGradient id="paint5_linear_15_111" x1="180.403" y1="37.9971" x2="187.185" y2="86.2298" gradientUnits="userSpaceOnUse">
<stop offset="0.01"/>
<stop offset="0.08" stop-opacity="0.69"/>
<stop offset="0.21" stop-opacity="0.32"/>
<stop offset="1" stop-opacity="0"/>
</linearGradient>
<linearGradient id="paint6_linear_15_111" x1="206.596" y1="118.958" x2="247.671" y2="143.268" gradientUnits="userSpaceOnUse">
<stop offset="0.01"/>
<stop offset="0.08" stop-opacity="0.69"/>
<stop offset="0.21" stop-opacity="0.32"/>
<stop offset="1" stop-opacity="0"/>
</linearGradient>
<linearGradient id="paint7_linear_15_111" x1="190.761" y1="144.654" x2="111.498" y2="89.378" gradientUnits="userSpaceOnUse">
<stop offset="0.01"/>
<stop offset="0.08" stop-opacity="0.69"/>
<stop offset="0.21" stop-opacity="0.32"/>
<stop offset="1" stop-opacity="0"/>
</linearGradient>
<clipPath id="clip0_15_111">
<rect width="357" height="269" fill="white"/>
</clipPath>
</defs>
</svg>
